M48
;DRILL file {KiCad 5.0.2-bee76a0~70~ubuntu18.04.1} date Fri 15 Mar 2019 03:47:16 PM EET
;FORMAT={-:-/ absolute / metric / decimal}
FMAT,2
METRIC,TZ
T1C0.400
T2C1.000
T3C1.500
T4C1.700
%
G90
G05
T1
X85.09Y-83.82
X85.598Y-79.502
X86.614Y-78.232
X87.884Y-77.343
X91.186Y-78.486
X107.696Y-93.255
X110.744Y-88.9
X111.506Y-90.678
X112.014Y-98.552
X113.792Y-92.964
X114.3Y-84.836
X116.84Y-84.836
X117.602Y-109.474
X119.38Y-84.836
X123.952Y-96.012
X123.968Y-93.472
X125.73Y-86.36
X126.492Y-80.264
X126.492Y-81.788
X126.492Y-83.312
X127.762Y-96.52
X128.905Y-86.36
X129.54Y-93.98
X132.334Y-96.52
X134.117Y-81.783
X135.128Y-90.17
X135.128Y-93.218
X135.382Y-96.52
X139.7Y-81.788
X139.954Y-96.774
X146.558Y-81.788
X147.32Y-87.884
X147.828Y-90.424
X152.908Y-85.344
X155.956Y-85.852
X155.956Y-91.186
X159.004Y-85.852
X165.608Y-79.756
X165.862Y-82.55
X165.862Y-85.344
X165.862Y-97.79
X166.37Y-93.218
X173.736Y-97.79
X173.995Y-81.783
X174.498Y-91.186
X179.324Y-81.788
X181.61Y-97.028
X184.15Y-81.788
X186.944Y-87.376
X187.706Y-89.408
X187.96Y-93.345
X188.722Y-87.122
X189.23Y-83.312
X190.5Y-80.772
X192.151Y-78.613
X193.294Y-77.978
X194.437Y-77.724
T2
X120.142Y-106.934
X122.682Y-106.934
X125.222Y-106.934
X127.762Y-106.934
X130.302Y-106.934
X132.842Y-106.934
X135.382Y-106.934
X137.922Y-106.934
X140.462Y-106.934
T3
X72.136Y-81.28
X208.534Y-81.788
T4
X69.596Y-78.74
X69.596Y-83.82
X74.676Y-78.74
X74.676Y-83.82
X205.994Y-79.248
X205.994Y-84.328
X211.074Y-79.248
X211.074Y-84.328
T0
M30
