G04 #@! TF.GenerationSoftware,KiCad,Pcbnew,5.0.2-bee76a0~70~ubuntu18.04.1*
G04 #@! TF.CreationDate,2019-03-15T15:47:03+02:00*
G04 #@! TF.ProjectId,bandpass_filter_design,62616e64-7061-4737-935f-66696c746572,rev?*
G04 #@! TF.SameCoordinates,Original*
G04 #@! TF.FileFunction,Legend,Bot*
G04 #@! TF.FilePolarity,Positive*
%FSLAX46Y46*%
G04 Gerber Fmt 4.6, Leading zero omitted, Abs format (unit mm)*
G04 Created by KiCad (PCBNEW 5.0.2-bee76a0~70~ubuntu18.04.1) date Fri 15 Mar 2019 03:47:03 PM EET*
%MOMM*%
%LPD*%
G01*
G04 APERTURE LIST*
%ADD10C,0.120000*%
%ADD11C,0.150000*%
G04 APERTURE END LIST*
D10*
G04 #@! TO.C,D1*
X132209000Y-100640000D02*
X132209000Y-99710000D01*
X132209000Y-97480000D02*
X132209000Y-98410000D01*
X132209000Y-97480000D02*
X134369000Y-97480000D01*
X132209000Y-100640000D02*
X133669000Y-100640000D01*
G04 #@! TO.C,D2*
X128018000Y-100386000D02*
X128018000Y-99456000D01*
X128018000Y-97226000D02*
X128018000Y-98156000D01*
X128018000Y-97226000D02*
X130178000Y-97226000D01*
X128018000Y-100386000D02*
X129478000Y-100386000D01*
G04 #@! TO.C,D4*
X124208000Y-100640000D02*
X124208000Y-99710000D01*
X124208000Y-97480000D02*
X124208000Y-98410000D01*
X124208000Y-97480000D02*
X126368000Y-97480000D01*
X124208000Y-100640000D02*
X125668000Y-100640000D01*
G04 #@! TO.C,D5*
X119890000Y-100767000D02*
X121350000Y-100767000D01*
X119890000Y-97607000D02*
X122050000Y-97607000D01*
X119890000Y-97607000D02*
X119890000Y-98537000D01*
X119890000Y-100767000D02*
X119890000Y-99837000D01*
G04 #@! TO.C,R22*
X132663000Y-103267252D02*
X132663000Y-102744748D01*
X131243000Y-103267252D02*
X131243000Y-102744748D01*
G04 #@! TO.C,R23*
X128472000Y-103131252D02*
X128472000Y-102608748D01*
X127052000Y-103131252D02*
X127052000Y-102608748D01*
G04 #@! TO.C,R25*
X123242000Y-103258252D02*
X123242000Y-102735748D01*
X124662000Y-103258252D02*
X124662000Y-102735748D01*
G04 #@! TO.C,R26*
X118924000Y-103258252D02*
X118924000Y-102735748D01*
X120344000Y-103258252D02*
X120344000Y-102735748D01*
G04 #@! TO.C,D1*
D11*
X133707095Y-97012380D02*
X133707095Y-96012380D01*
X133469000Y-96012380D01*
X133326142Y-96060000D01*
X133230904Y-96155238D01*
X133183285Y-96250476D01*
X133135666Y-96440952D01*
X133135666Y-96583809D01*
X133183285Y-96774285D01*
X133230904Y-96869523D01*
X133326142Y-96964761D01*
X133469000Y-97012380D01*
X133707095Y-97012380D01*
X132183285Y-97012380D02*
X132754714Y-97012380D01*
X132469000Y-97012380D02*
X132469000Y-96012380D01*
X132564238Y-96155238D01*
X132659476Y-96250476D01*
X132754714Y-96298095D01*
G04 #@! TO.C,D2*
X129516095Y-96758380D02*
X129516095Y-95758380D01*
X129278000Y-95758380D01*
X129135142Y-95806000D01*
X129039904Y-95901238D01*
X128992285Y-95996476D01*
X128944666Y-96186952D01*
X128944666Y-96329809D01*
X128992285Y-96520285D01*
X129039904Y-96615523D01*
X129135142Y-96710761D01*
X129278000Y-96758380D01*
X129516095Y-96758380D01*
X128563714Y-95853619D02*
X128516095Y-95806000D01*
X128420857Y-95758380D01*
X128182761Y-95758380D01*
X128087523Y-95806000D01*
X128039904Y-95853619D01*
X127992285Y-95948857D01*
X127992285Y-96044095D01*
X128039904Y-96186952D01*
X128611333Y-96758380D01*
X127992285Y-96758380D01*
G04 #@! TO.C,D4*
X125706095Y-97012380D02*
X125706095Y-96012380D01*
X125468000Y-96012380D01*
X125325142Y-96060000D01*
X125229904Y-96155238D01*
X125182285Y-96250476D01*
X125134666Y-96440952D01*
X125134666Y-96583809D01*
X125182285Y-96774285D01*
X125229904Y-96869523D01*
X125325142Y-96964761D01*
X125468000Y-97012380D01*
X125706095Y-97012380D01*
X124277523Y-96345714D02*
X124277523Y-97012380D01*
X124515619Y-95964761D02*
X124753714Y-96679047D01*
X124134666Y-96679047D01*
G04 #@! TO.C,D5*
X121388095Y-97139380D02*
X121388095Y-96139380D01*
X121150000Y-96139380D01*
X121007142Y-96187000D01*
X120911904Y-96282238D01*
X120864285Y-96377476D01*
X120816666Y-96567952D01*
X120816666Y-96710809D01*
X120864285Y-96901285D01*
X120911904Y-96996523D01*
X121007142Y-97091761D01*
X121150000Y-97139380D01*
X121388095Y-97139380D01*
X119911904Y-96139380D02*
X120388095Y-96139380D01*
X120435714Y-96615571D01*
X120388095Y-96567952D01*
X120292857Y-96520333D01*
X120054761Y-96520333D01*
X119959523Y-96567952D01*
X119911904Y-96615571D01*
X119864285Y-96710809D01*
X119864285Y-96948904D01*
X119911904Y-97044142D01*
X119959523Y-97091761D01*
X120054761Y-97139380D01*
X120292857Y-97139380D01*
X120388095Y-97091761D01*
X120435714Y-97044142D01*
G04 #@! TO.C,R22*
X134055380Y-102363142D02*
X133579190Y-102029809D01*
X134055380Y-101791714D02*
X133055380Y-101791714D01*
X133055380Y-102172666D01*
X133103000Y-102267904D01*
X133150619Y-102315523D01*
X133245857Y-102363142D01*
X133388714Y-102363142D01*
X133483952Y-102315523D01*
X133531571Y-102267904D01*
X133579190Y-102172666D01*
X133579190Y-101791714D01*
X133150619Y-102744095D02*
X133103000Y-102791714D01*
X133055380Y-102886952D01*
X133055380Y-103125047D01*
X133103000Y-103220285D01*
X133150619Y-103267904D01*
X133245857Y-103315523D01*
X133341095Y-103315523D01*
X133483952Y-103267904D01*
X134055380Y-102696476D01*
X134055380Y-103315523D01*
X133150619Y-103696476D02*
X133103000Y-103744095D01*
X133055380Y-103839333D01*
X133055380Y-104077428D01*
X133103000Y-104172666D01*
X133150619Y-104220285D01*
X133245857Y-104267904D01*
X133341095Y-104267904D01*
X133483952Y-104220285D01*
X134055380Y-103648857D01*
X134055380Y-104267904D01*
G04 #@! TO.C,R23*
X129864380Y-102227142D02*
X129388190Y-101893809D01*
X129864380Y-101655714D02*
X128864380Y-101655714D01*
X128864380Y-102036666D01*
X128912000Y-102131904D01*
X128959619Y-102179523D01*
X129054857Y-102227142D01*
X129197714Y-102227142D01*
X129292952Y-102179523D01*
X129340571Y-102131904D01*
X129388190Y-102036666D01*
X129388190Y-101655714D01*
X128959619Y-102608095D02*
X128912000Y-102655714D01*
X128864380Y-102750952D01*
X128864380Y-102989047D01*
X128912000Y-103084285D01*
X128959619Y-103131904D01*
X129054857Y-103179523D01*
X129150095Y-103179523D01*
X129292952Y-103131904D01*
X129864380Y-102560476D01*
X129864380Y-103179523D01*
X128864380Y-103512857D02*
X128864380Y-104131904D01*
X129245333Y-103798571D01*
X129245333Y-103941428D01*
X129292952Y-104036666D01*
X129340571Y-104084285D01*
X129435809Y-104131904D01*
X129673904Y-104131904D01*
X129769142Y-104084285D01*
X129816761Y-104036666D01*
X129864380Y-103941428D01*
X129864380Y-103655714D01*
X129816761Y-103560476D01*
X129769142Y-103512857D01*
G04 #@! TO.C,R25*
X126054380Y-102354142D02*
X125578190Y-102020809D01*
X126054380Y-101782714D02*
X125054380Y-101782714D01*
X125054380Y-102163666D01*
X125102000Y-102258904D01*
X125149619Y-102306523D01*
X125244857Y-102354142D01*
X125387714Y-102354142D01*
X125482952Y-102306523D01*
X125530571Y-102258904D01*
X125578190Y-102163666D01*
X125578190Y-101782714D01*
X125149619Y-102735095D02*
X125102000Y-102782714D01*
X125054380Y-102877952D01*
X125054380Y-103116047D01*
X125102000Y-103211285D01*
X125149619Y-103258904D01*
X125244857Y-103306523D01*
X125340095Y-103306523D01*
X125482952Y-103258904D01*
X126054380Y-102687476D01*
X126054380Y-103306523D01*
X125054380Y-104211285D02*
X125054380Y-103735095D01*
X125530571Y-103687476D01*
X125482952Y-103735095D01*
X125435333Y-103830333D01*
X125435333Y-104068428D01*
X125482952Y-104163666D01*
X125530571Y-104211285D01*
X125625809Y-104258904D01*
X125863904Y-104258904D01*
X125959142Y-104211285D01*
X126006761Y-104163666D01*
X126054380Y-104068428D01*
X126054380Y-103830333D01*
X126006761Y-103735095D01*
X125959142Y-103687476D01*
G04 #@! TO.C,R26*
X121736380Y-102354142D02*
X121260190Y-102020809D01*
X121736380Y-101782714D02*
X120736380Y-101782714D01*
X120736380Y-102163666D01*
X120784000Y-102258904D01*
X120831619Y-102306523D01*
X120926857Y-102354142D01*
X121069714Y-102354142D01*
X121164952Y-102306523D01*
X121212571Y-102258904D01*
X121260190Y-102163666D01*
X121260190Y-101782714D01*
X120831619Y-102735095D02*
X120784000Y-102782714D01*
X120736380Y-102877952D01*
X120736380Y-103116047D01*
X120784000Y-103211285D01*
X120831619Y-103258904D01*
X120926857Y-103306523D01*
X121022095Y-103306523D01*
X121164952Y-103258904D01*
X121736380Y-102687476D01*
X121736380Y-103306523D01*
X120736380Y-104163666D02*
X120736380Y-103973190D01*
X120784000Y-103877952D01*
X120831619Y-103830333D01*
X120974476Y-103735095D01*
X121164952Y-103687476D01*
X121545904Y-103687476D01*
X121641142Y-103735095D01*
X121688761Y-103782714D01*
X121736380Y-103877952D01*
X121736380Y-104068428D01*
X121688761Y-104163666D01*
X121641142Y-104211285D01*
X121545904Y-104258904D01*
X121307809Y-104258904D01*
X121212571Y-104211285D01*
X121164952Y-104163666D01*
X121117333Y-104068428D01*
X121117333Y-103877952D01*
X121164952Y-103782714D01*
X121212571Y-103735095D01*
X121307809Y-103687476D01*
G04 #@! TD*
M02*
