G04 #@! TF.GenerationSoftware,KiCad,Pcbnew,5.0.2-bee76a0~70~ubuntu18.04.1*
G04 #@! TF.CreationDate,2019-04-19T15:30:24+03:00*
G04 #@! TF.ProjectId,bandpass_filter_design,62616e64-7061-4737-935f-66696c746572,rev?*
G04 #@! TF.SameCoordinates,Original*
G04 #@! TF.FileFunction,Copper,L2,Bot*
G04 #@! TF.FilePolarity,Positive*
%FSLAX46Y46*%
G04 Gerber Fmt 4.6, Leading zero omitted, Abs format (unit mm)*
G04 Created by KiCad (PCBNEW 5.0.2-bee76a0~70~ubuntu18.04.1) date Fri 19 Apr 2019 03:30:24 PM EEST*
%MOMM*%
%LPD*%
G01*
G04 APERTURE LIST*
G04 #@! TA.AperFunction,ComponentPad*
%ADD10R,1.700000X1.700000*%
G04 #@! TD*
G04 #@! TA.AperFunction,ComponentPad*
%ADD11O,1.700000X1.700000*%
G04 #@! TD*
G04 #@! TA.AperFunction,SMDPad,CuDef*
%ADD12R,0.900000X0.800000*%
G04 #@! TD*
G04 #@! TA.AperFunction,Conductor*
%ADD13C,0.100000*%
G04 #@! TD*
G04 #@! TA.AperFunction,SMDPad,CuDef*
%ADD14C,1.150000*%
G04 #@! TD*
G04 #@! TA.AperFunction,ComponentPad*
%ADD15C,2.250000*%
G04 #@! TD*
G04 #@! TA.AperFunction,ComponentPad*
%ADD16C,2.050000*%
G04 #@! TD*
G04 #@! TA.AperFunction,ViaPad*
%ADD17C,0.800000*%
G04 #@! TD*
G04 #@! TA.AperFunction,Conductor*
%ADD18C,0.250000*%
G04 #@! TD*
G04 #@! TA.AperFunction,Conductor*
%ADD19C,0.254000*%
G04 #@! TD*
G04 APERTURE END LIST*
D10*
G04 #@! TO.P,J2,1*
G04 #@! TO.N,Net-(J2-Pad1)*
X120142000Y-106934000D03*
D11*
G04 #@! TO.P,J2,2*
G04 #@! TO.N,Net-(J2-Pad2)*
X122682000Y-106934000D03*
G04 #@! TO.P,J2,3*
G04 #@! TO.N,Net-(J2-Pad3)*
X125222000Y-106934000D03*
G04 #@! TO.P,J2,4*
G04 #@! TO.N,Net-(J2-Pad4)*
X127762000Y-106934000D03*
G04 #@! TO.P,J2,5*
G04 #@! TO.N,Net-(J2-Pad5)*
X130302000Y-106934000D03*
G04 #@! TO.P,J2,6*
G04 #@! TO.N,/~ENres*
X132842000Y-106934000D03*
G04 #@! TO.P,J2,7*
G04 #@! TO.N,/~ENmid*
X135382000Y-106934000D03*
G04 #@! TO.P,J2,8*
G04 #@! TO.N,VDD*
X137922000Y-106934000D03*
G04 #@! TO.P,J2,9*
G04 #@! TO.N,GND*
X140462000Y-106934000D03*
G04 #@! TD*
D12*
G04 #@! TO.P,D1,2*
G04 #@! TO.N,GND*
X133969000Y-98110000D03*
G04 #@! TO.P,D1,*
G04 #@! TO.N,*
X133969000Y-100010000D03*
G04 #@! TO.P,D1,1*
G04 #@! TO.N,/ENinv_2*
X131969000Y-99060000D03*
G04 #@! TD*
G04 #@! TO.P,D2,2*
G04 #@! TO.N,GND*
X129778000Y-97856000D03*
G04 #@! TO.P,D2,*
G04 #@! TO.N,*
X129778000Y-99756000D03*
G04 #@! TO.P,D2,1*
G04 #@! TO.N,/ENinv_1*
X127778000Y-98806000D03*
G04 #@! TD*
G04 #@! TO.P,D4,2*
G04 #@! TO.N,GND*
X125968000Y-98110000D03*
G04 #@! TO.P,D4,*
G04 #@! TO.N,*
X125968000Y-100010000D03*
G04 #@! TO.P,D4,1*
G04 #@! TO.N,/CLK*
X123968000Y-99060000D03*
G04 #@! TD*
G04 #@! TO.P,D5,1*
G04 #@! TO.N,/DATA*
X119650000Y-99187000D03*
G04 #@! TO.P,D5,*
G04 #@! TO.N,*
X121650000Y-100137000D03*
G04 #@! TO.P,D5,2*
G04 #@! TO.N,GND*
X121650000Y-98237000D03*
G04 #@! TD*
D13*
G04 #@! TO.N,Net-(J2-Pad5)*
G04 #@! TO.C,R22*
G36*
X132427505Y-103457204D02*
X132451773Y-103460804D01*
X132475572Y-103466765D01*
X132498671Y-103475030D01*
X132520850Y-103485520D01*
X132541893Y-103498132D01*
X132561599Y-103512747D01*
X132579777Y-103529223D01*
X132596253Y-103547401D01*
X132610868Y-103567107D01*
X132623480Y-103588150D01*
X132633970Y-103610329D01*
X132642235Y-103633428D01*
X132648196Y-103657227D01*
X132651796Y-103681495D01*
X132653000Y-103705999D01*
X132653000Y-104356001D01*
X132651796Y-104380505D01*
X132648196Y-104404773D01*
X132642235Y-104428572D01*
X132633970Y-104451671D01*
X132623480Y-104473850D01*
X132610868Y-104494893D01*
X132596253Y-104514599D01*
X132579777Y-104532777D01*
X132561599Y-104549253D01*
X132541893Y-104563868D01*
X132520850Y-104576480D01*
X132498671Y-104586970D01*
X132475572Y-104595235D01*
X132451773Y-104601196D01*
X132427505Y-104604796D01*
X132403001Y-104606000D01*
X131502999Y-104606000D01*
X131478495Y-104604796D01*
X131454227Y-104601196D01*
X131430428Y-104595235D01*
X131407329Y-104586970D01*
X131385150Y-104576480D01*
X131364107Y-104563868D01*
X131344401Y-104549253D01*
X131326223Y-104532777D01*
X131309747Y-104514599D01*
X131295132Y-104494893D01*
X131282520Y-104473850D01*
X131272030Y-104451671D01*
X131263765Y-104428572D01*
X131257804Y-104404773D01*
X131254204Y-104380505D01*
X131253000Y-104356001D01*
X131253000Y-103705999D01*
X131254204Y-103681495D01*
X131257804Y-103657227D01*
X131263765Y-103633428D01*
X131272030Y-103610329D01*
X131282520Y-103588150D01*
X131295132Y-103567107D01*
X131309747Y-103547401D01*
X131326223Y-103529223D01*
X131344401Y-103512747D01*
X131364107Y-103498132D01*
X131385150Y-103485520D01*
X131407329Y-103475030D01*
X131430428Y-103466765D01*
X131454227Y-103460804D01*
X131478495Y-103457204D01*
X131502999Y-103456000D01*
X132403001Y-103456000D01*
X132427505Y-103457204D01*
X132427505Y-103457204D01*
G37*
D14*
G04 #@! TD*
G04 #@! TO.P,R22,1*
G04 #@! TO.N,Net-(J2-Pad5)*
X131953000Y-104031000D03*
D13*
G04 #@! TO.N,/ENinv_2*
G04 #@! TO.C,R22*
G36*
X132427505Y-101407204D02*
X132451773Y-101410804D01*
X132475572Y-101416765D01*
X132498671Y-101425030D01*
X132520850Y-101435520D01*
X132541893Y-101448132D01*
X132561599Y-101462747D01*
X132579777Y-101479223D01*
X132596253Y-101497401D01*
X132610868Y-101517107D01*
X132623480Y-101538150D01*
X132633970Y-101560329D01*
X132642235Y-101583428D01*
X132648196Y-101607227D01*
X132651796Y-101631495D01*
X132653000Y-101655999D01*
X132653000Y-102306001D01*
X132651796Y-102330505D01*
X132648196Y-102354773D01*
X132642235Y-102378572D01*
X132633970Y-102401671D01*
X132623480Y-102423850D01*
X132610868Y-102444893D01*
X132596253Y-102464599D01*
X132579777Y-102482777D01*
X132561599Y-102499253D01*
X132541893Y-102513868D01*
X132520850Y-102526480D01*
X132498671Y-102536970D01*
X132475572Y-102545235D01*
X132451773Y-102551196D01*
X132427505Y-102554796D01*
X132403001Y-102556000D01*
X131502999Y-102556000D01*
X131478495Y-102554796D01*
X131454227Y-102551196D01*
X131430428Y-102545235D01*
X131407329Y-102536970D01*
X131385150Y-102526480D01*
X131364107Y-102513868D01*
X131344401Y-102499253D01*
X131326223Y-102482777D01*
X131309747Y-102464599D01*
X131295132Y-102444893D01*
X131282520Y-102423850D01*
X131272030Y-102401671D01*
X131263765Y-102378572D01*
X131257804Y-102354773D01*
X131254204Y-102330505D01*
X131253000Y-102306001D01*
X131253000Y-101655999D01*
X131254204Y-101631495D01*
X131257804Y-101607227D01*
X131263765Y-101583428D01*
X131272030Y-101560329D01*
X131282520Y-101538150D01*
X131295132Y-101517107D01*
X131309747Y-101497401D01*
X131326223Y-101479223D01*
X131344401Y-101462747D01*
X131364107Y-101448132D01*
X131385150Y-101435520D01*
X131407329Y-101425030D01*
X131430428Y-101416765D01*
X131454227Y-101410804D01*
X131478495Y-101407204D01*
X131502999Y-101406000D01*
X132403001Y-101406000D01*
X132427505Y-101407204D01*
X132427505Y-101407204D01*
G37*
D14*
G04 #@! TD*
G04 #@! TO.P,R22,2*
G04 #@! TO.N,/ENinv_2*
X131953000Y-101981000D03*
D13*
G04 #@! TO.N,Net-(J2-Pad4)*
G04 #@! TO.C,R23*
G36*
X128236505Y-103321204D02*
X128260773Y-103324804D01*
X128284572Y-103330765D01*
X128307671Y-103339030D01*
X128329850Y-103349520D01*
X128350893Y-103362132D01*
X128370599Y-103376747D01*
X128388777Y-103393223D01*
X128405253Y-103411401D01*
X128419868Y-103431107D01*
X128432480Y-103452150D01*
X128442970Y-103474329D01*
X128451235Y-103497428D01*
X128457196Y-103521227D01*
X128460796Y-103545495D01*
X128462000Y-103569999D01*
X128462000Y-104220001D01*
X128460796Y-104244505D01*
X128457196Y-104268773D01*
X128451235Y-104292572D01*
X128442970Y-104315671D01*
X128432480Y-104337850D01*
X128419868Y-104358893D01*
X128405253Y-104378599D01*
X128388777Y-104396777D01*
X128370599Y-104413253D01*
X128350893Y-104427868D01*
X128329850Y-104440480D01*
X128307671Y-104450970D01*
X128284572Y-104459235D01*
X128260773Y-104465196D01*
X128236505Y-104468796D01*
X128212001Y-104470000D01*
X127311999Y-104470000D01*
X127287495Y-104468796D01*
X127263227Y-104465196D01*
X127239428Y-104459235D01*
X127216329Y-104450970D01*
X127194150Y-104440480D01*
X127173107Y-104427868D01*
X127153401Y-104413253D01*
X127135223Y-104396777D01*
X127118747Y-104378599D01*
X127104132Y-104358893D01*
X127091520Y-104337850D01*
X127081030Y-104315671D01*
X127072765Y-104292572D01*
X127066804Y-104268773D01*
X127063204Y-104244505D01*
X127062000Y-104220001D01*
X127062000Y-103569999D01*
X127063204Y-103545495D01*
X127066804Y-103521227D01*
X127072765Y-103497428D01*
X127081030Y-103474329D01*
X127091520Y-103452150D01*
X127104132Y-103431107D01*
X127118747Y-103411401D01*
X127135223Y-103393223D01*
X127153401Y-103376747D01*
X127173107Y-103362132D01*
X127194150Y-103349520D01*
X127216329Y-103339030D01*
X127239428Y-103330765D01*
X127263227Y-103324804D01*
X127287495Y-103321204D01*
X127311999Y-103320000D01*
X128212001Y-103320000D01*
X128236505Y-103321204D01*
X128236505Y-103321204D01*
G37*
D14*
G04 #@! TD*
G04 #@! TO.P,R23,1*
G04 #@! TO.N,Net-(J2-Pad4)*
X127762000Y-103895000D03*
D13*
G04 #@! TO.N,/ENinv_1*
G04 #@! TO.C,R23*
G36*
X128236505Y-101271204D02*
X128260773Y-101274804D01*
X128284572Y-101280765D01*
X128307671Y-101289030D01*
X128329850Y-101299520D01*
X128350893Y-101312132D01*
X128370599Y-101326747D01*
X128388777Y-101343223D01*
X128405253Y-101361401D01*
X128419868Y-101381107D01*
X128432480Y-101402150D01*
X128442970Y-101424329D01*
X128451235Y-101447428D01*
X128457196Y-101471227D01*
X128460796Y-101495495D01*
X128462000Y-101519999D01*
X128462000Y-102170001D01*
X128460796Y-102194505D01*
X128457196Y-102218773D01*
X128451235Y-102242572D01*
X128442970Y-102265671D01*
X128432480Y-102287850D01*
X128419868Y-102308893D01*
X128405253Y-102328599D01*
X128388777Y-102346777D01*
X128370599Y-102363253D01*
X128350893Y-102377868D01*
X128329850Y-102390480D01*
X128307671Y-102400970D01*
X128284572Y-102409235D01*
X128260773Y-102415196D01*
X128236505Y-102418796D01*
X128212001Y-102420000D01*
X127311999Y-102420000D01*
X127287495Y-102418796D01*
X127263227Y-102415196D01*
X127239428Y-102409235D01*
X127216329Y-102400970D01*
X127194150Y-102390480D01*
X127173107Y-102377868D01*
X127153401Y-102363253D01*
X127135223Y-102346777D01*
X127118747Y-102328599D01*
X127104132Y-102308893D01*
X127091520Y-102287850D01*
X127081030Y-102265671D01*
X127072765Y-102242572D01*
X127066804Y-102218773D01*
X127063204Y-102194505D01*
X127062000Y-102170001D01*
X127062000Y-101519999D01*
X127063204Y-101495495D01*
X127066804Y-101471227D01*
X127072765Y-101447428D01*
X127081030Y-101424329D01*
X127091520Y-101402150D01*
X127104132Y-101381107D01*
X127118747Y-101361401D01*
X127135223Y-101343223D01*
X127153401Y-101326747D01*
X127173107Y-101312132D01*
X127194150Y-101299520D01*
X127216329Y-101289030D01*
X127239428Y-101280765D01*
X127263227Y-101274804D01*
X127287495Y-101271204D01*
X127311999Y-101270000D01*
X128212001Y-101270000D01*
X128236505Y-101271204D01*
X128236505Y-101271204D01*
G37*
D14*
G04 #@! TD*
G04 #@! TO.P,R23,2*
G04 #@! TO.N,/ENinv_1*
X127762000Y-101845000D03*
D13*
G04 #@! TO.N,/CLK*
G04 #@! TO.C,R25*
G36*
X124426505Y-101398204D02*
X124450773Y-101401804D01*
X124474572Y-101407765D01*
X124497671Y-101416030D01*
X124519850Y-101426520D01*
X124540893Y-101439132D01*
X124560599Y-101453747D01*
X124578777Y-101470223D01*
X124595253Y-101488401D01*
X124609868Y-101508107D01*
X124622480Y-101529150D01*
X124632970Y-101551329D01*
X124641235Y-101574428D01*
X124647196Y-101598227D01*
X124650796Y-101622495D01*
X124652000Y-101646999D01*
X124652000Y-102297001D01*
X124650796Y-102321505D01*
X124647196Y-102345773D01*
X124641235Y-102369572D01*
X124632970Y-102392671D01*
X124622480Y-102414850D01*
X124609868Y-102435893D01*
X124595253Y-102455599D01*
X124578777Y-102473777D01*
X124560599Y-102490253D01*
X124540893Y-102504868D01*
X124519850Y-102517480D01*
X124497671Y-102527970D01*
X124474572Y-102536235D01*
X124450773Y-102542196D01*
X124426505Y-102545796D01*
X124402001Y-102547000D01*
X123501999Y-102547000D01*
X123477495Y-102545796D01*
X123453227Y-102542196D01*
X123429428Y-102536235D01*
X123406329Y-102527970D01*
X123384150Y-102517480D01*
X123363107Y-102504868D01*
X123343401Y-102490253D01*
X123325223Y-102473777D01*
X123308747Y-102455599D01*
X123294132Y-102435893D01*
X123281520Y-102414850D01*
X123271030Y-102392671D01*
X123262765Y-102369572D01*
X123256804Y-102345773D01*
X123253204Y-102321505D01*
X123252000Y-102297001D01*
X123252000Y-101646999D01*
X123253204Y-101622495D01*
X123256804Y-101598227D01*
X123262765Y-101574428D01*
X123271030Y-101551329D01*
X123281520Y-101529150D01*
X123294132Y-101508107D01*
X123308747Y-101488401D01*
X123325223Y-101470223D01*
X123343401Y-101453747D01*
X123363107Y-101439132D01*
X123384150Y-101426520D01*
X123406329Y-101416030D01*
X123429428Y-101407765D01*
X123453227Y-101401804D01*
X123477495Y-101398204D01*
X123501999Y-101397000D01*
X124402001Y-101397000D01*
X124426505Y-101398204D01*
X124426505Y-101398204D01*
G37*
D14*
G04 #@! TD*
G04 #@! TO.P,R25,2*
G04 #@! TO.N,/CLK*
X123952000Y-101972000D03*
D13*
G04 #@! TO.N,Net-(J2-Pad2)*
G04 #@! TO.C,R25*
G36*
X124426505Y-103448204D02*
X124450773Y-103451804D01*
X124474572Y-103457765D01*
X124497671Y-103466030D01*
X124519850Y-103476520D01*
X124540893Y-103489132D01*
X124560599Y-103503747D01*
X124578777Y-103520223D01*
X124595253Y-103538401D01*
X124609868Y-103558107D01*
X124622480Y-103579150D01*
X124632970Y-103601329D01*
X124641235Y-103624428D01*
X124647196Y-103648227D01*
X124650796Y-103672495D01*
X124652000Y-103696999D01*
X124652000Y-104347001D01*
X124650796Y-104371505D01*
X124647196Y-104395773D01*
X124641235Y-104419572D01*
X124632970Y-104442671D01*
X124622480Y-104464850D01*
X124609868Y-104485893D01*
X124595253Y-104505599D01*
X124578777Y-104523777D01*
X124560599Y-104540253D01*
X124540893Y-104554868D01*
X124519850Y-104567480D01*
X124497671Y-104577970D01*
X124474572Y-104586235D01*
X124450773Y-104592196D01*
X124426505Y-104595796D01*
X124402001Y-104597000D01*
X123501999Y-104597000D01*
X123477495Y-104595796D01*
X123453227Y-104592196D01*
X123429428Y-104586235D01*
X123406329Y-104577970D01*
X123384150Y-104567480D01*
X123363107Y-104554868D01*
X123343401Y-104540253D01*
X123325223Y-104523777D01*
X123308747Y-104505599D01*
X123294132Y-104485893D01*
X123281520Y-104464850D01*
X123271030Y-104442671D01*
X123262765Y-104419572D01*
X123256804Y-104395773D01*
X123253204Y-104371505D01*
X123252000Y-104347001D01*
X123252000Y-103696999D01*
X123253204Y-103672495D01*
X123256804Y-103648227D01*
X123262765Y-103624428D01*
X123271030Y-103601329D01*
X123281520Y-103579150D01*
X123294132Y-103558107D01*
X123308747Y-103538401D01*
X123325223Y-103520223D01*
X123343401Y-103503747D01*
X123363107Y-103489132D01*
X123384150Y-103476520D01*
X123406329Y-103466030D01*
X123429428Y-103457765D01*
X123453227Y-103451804D01*
X123477495Y-103448204D01*
X123501999Y-103447000D01*
X124402001Y-103447000D01*
X124426505Y-103448204D01*
X124426505Y-103448204D01*
G37*
D14*
G04 #@! TD*
G04 #@! TO.P,R25,1*
G04 #@! TO.N,Net-(J2-Pad2)*
X123952000Y-104022000D03*
D13*
G04 #@! TO.N,/DATA*
G04 #@! TO.C,R26*
G36*
X120108505Y-101398204D02*
X120132773Y-101401804D01*
X120156572Y-101407765D01*
X120179671Y-101416030D01*
X120201850Y-101426520D01*
X120222893Y-101439132D01*
X120242599Y-101453747D01*
X120260777Y-101470223D01*
X120277253Y-101488401D01*
X120291868Y-101508107D01*
X120304480Y-101529150D01*
X120314970Y-101551329D01*
X120323235Y-101574428D01*
X120329196Y-101598227D01*
X120332796Y-101622495D01*
X120334000Y-101646999D01*
X120334000Y-102297001D01*
X120332796Y-102321505D01*
X120329196Y-102345773D01*
X120323235Y-102369572D01*
X120314970Y-102392671D01*
X120304480Y-102414850D01*
X120291868Y-102435893D01*
X120277253Y-102455599D01*
X120260777Y-102473777D01*
X120242599Y-102490253D01*
X120222893Y-102504868D01*
X120201850Y-102517480D01*
X120179671Y-102527970D01*
X120156572Y-102536235D01*
X120132773Y-102542196D01*
X120108505Y-102545796D01*
X120084001Y-102547000D01*
X119183999Y-102547000D01*
X119159495Y-102545796D01*
X119135227Y-102542196D01*
X119111428Y-102536235D01*
X119088329Y-102527970D01*
X119066150Y-102517480D01*
X119045107Y-102504868D01*
X119025401Y-102490253D01*
X119007223Y-102473777D01*
X118990747Y-102455599D01*
X118976132Y-102435893D01*
X118963520Y-102414850D01*
X118953030Y-102392671D01*
X118944765Y-102369572D01*
X118938804Y-102345773D01*
X118935204Y-102321505D01*
X118934000Y-102297001D01*
X118934000Y-101646999D01*
X118935204Y-101622495D01*
X118938804Y-101598227D01*
X118944765Y-101574428D01*
X118953030Y-101551329D01*
X118963520Y-101529150D01*
X118976132Y-101508107D01*
X118990747Y-101488401D01*
X119007223Y-101470223D01*
X119025401Y-101453747D01*
X119045107Y-101439132D01*
X119066150Y-101426520D01*
X119088329Y-101416030D01*
X119111428Y-101407765D01*
X119135227Y-101401804D01*
X119159495Y-101398204D01*
X119183999Y-101397000D01*
X120084001Y-101397000D01*
X120108505Y-101398204D01*
X120108505Y-101398204D01*
G37*
D14*
G04 #@! TD*
G04 #@! TO.P,R26,2*
G04 #@! TO.N,/DATA*
X119634000Y-101972000D03*
D13*
G04 #@! TO.N,Net-(J2-Pad1)*
G04 #@! TO.C,R26*
G36*
X120108505Y-103448204D02*
X120132773Y-103451804D01*
X120156572Y-103457765D01*
X120179671Y-103466030D01*
X120201850Y-103476520D01*
X120222893Y-103489132D01*
X120242599Y-103503747D01*
X120260777Y-103520223D01*
X120277253Y-103538401D01*
X120291868Y-103558107D01*
X120304480Y-103579150D01*
X120314970Y-103601329D01*
X120323235Y-103624428D01*
X120329196Y-103648227D01*
X120332796Y-103672495D01*
X120334000Y-103696999D01*
X120334000Y-104347001D01*
X120332796Y-104371505D01*
X120329196Y-104395773D01*
X120323235Y-104419572D01*
X120314970Y-104442671D01*
X120304480Y-104464850D01*
X120291868Y-104485893D01*
X120277253Y-104505599D01*
X120260777Y-104523777D01*
X120242599Y-104540253D01*
X120222893Y-104554868D01*
X120201850Y-104567480D01*
X120179671Y-104577970D01*
X120156572Y-104586235D01*
X120132773Y-104592196D01*
X120108505Y-104595796D01*
X120084001Y-104597000D01*
X119183999Y-104597000D01*
X119159495Y-104595796D01*
X119135227Y-104592196D01*
X119111428Y-104586235D01*
X119088329Y-104577970D01*
X119066150Y-104567480D01*
X119045107Y-104554868D01*
X119025401Y-104540253D01*
X119007223Y-104523777D01*
X118990747Y-104505599D01*
X118976132Y-104485893D01*
X118963520Y-104464850D01*
X118953030Y-104442671D01*
X118944765Y-104419572D01*
X118938804Y-104395773D01*
X118935204Y-104371505D01*
X118934000Y-104347001D01*
X118934000Y-103696999D01*
X118935204Y-103672495D01*
X118938804Y-103648227D01*
X118944765Y-103624428D01*
X118953030Y-103601329D01*
X118963520Y-103579150D01*
X118976132Y-103558107D01*
X118990747Y-103538401D01*
X119007223Y-103520223D01*
X119025401Y-103503747D01*
X119045107Y-103489132D01*
X119066150Y-103476520D01*
X119088329Y-103466030D01*
X119111428Y-103457765D01*
X119135227Y-103451804D01*
X119159495Y-103448204D01*
X119183999Y-103447000D01*
X120084001Y-103447000D01*
X120108505Y-103448204D01*
X120108505Y-103448204D01*
G37*
D14*
G04 #@! TD*
G04 #@! TO.P,R26,1*
G04 #@! TO.N,Net-(J2-Pad1)*
X119634000Y-104022000D03*
D15*
G04 #@! TO.P,J1,2*
G04 #@! TO.N,GND*
X69596000Y-83820000D03*
X69596000Y-78740000D03*
X74676000Y-78740000D03*
X74676000Y-83820000D03*
D16*
G04 #@! TO.P,J1,1*
G04 #@! TO.N,/SIG_IN*
X72136000Y-81280000D03*
G04 #@! TD*
G04 #@! TO.P,J3,1*
G04 #@! TO.N,/SIG_OUT*
X208534000Y-81788000D03*
D15*
G04 #@! TO.P,J3,2*
G04 #@! TO.N,GND*
X205994000Y-79248000D03*
X205994000Y-84328000D03*
X211074000Y-84328000D03*
X211074000Y-79248000D03*
G04 #@! TD*
D10*
G04 #@! TO.P,J4,1*
G04 #@! TO.N,/SIG_IN*
X72100000Y-97900000D03*
D11*
G04 #@! TO.P,J4,2*
G04 #@! TO.N,GND*
X72100000Y-100440000D03*
G04 #@! TD*
G04 #@! TO.P,J5,2*
G04 #@! TO.N,GND*
X208500000Y-100540000D03*
D10*
G04 #@! TO.P,J5,1*
G04 #@! TO.N,/SIG_OUT*
X208500000Y-98000000D03*
G04 #@! TD*
D17*
G04 #@! TO.N,VDD*
X85090000Y-83820000D03*
X189230000Y-83312000D03*
X190500000Y-80772000D03*
X187960000Y-93345000D03*
X85598000Y-79502000D03*
X165862000Y-97790000D03*
X173736000Y-97790000D03*
G04 #@! TO.N,/~ENres*
X181610000Y-97028000D03*
X107696000Y-93255000D03*
G04 #@! TO.N,/CLK*
X110744000Y-88900000D03*
X147828000Y-90424000D03*
X187706000Y-89408000D03*
X114300000Y-84836000D03*
X126492000Y-83312000D03*
X152908000Y-85344000D03*
X165862000Y-85344000D03*
X112014000Y-98552000D03*
X192151000Y-78613000D03*
X113792000Y-92964000D03*
X86614000Y-78232000D03*
X123952000Y-96012000D03*
X123968000Y-93472000D03*
G04 #@! TO.N,/DATA*
X111506000Y-90678000D03*
X186944000Y-87376000D03*
X119380000Y-84836000D03*
X159004000Y-85852000D03*
X165608000Y-79756000D03*
X91186000Y-78486000D03*
X147320000Y-87884000D03*
X194437000Y-77724000D03*
X126200000Y-79900000D03*
G04 #@! TO.N,Net-(C10-Pad1)*
X134116653Y-81783347D03*
X139700000Y-81788000D03*
X146558000Y-81788000D03*
G04 #@! TO.N,/~ENmid*
X135382000Y-96520000D03*
G04 #@! TO.N,Net-(C12-Pad8)*
X179324000Y-81788000D03*
X173994653Y-81783347D03*
X184150000Y-81788000D03*
G04 #@! TO.N,/ENser*
X188722000Y-87122000D03*
X117602000Y-109474000D03*
X193294000Y-77978000D03*
X87884000Y-77343000D03*
G04 #@! TO.N,/ENinv_1*
X116840000Y-84836000D03*
X155956000Y-85852000D03*
X125730000Y-86360000D03*
X155956000Y-91186000D03*
X139954000Y-96774000D03*
X128905000Y-86360000D03*
X127762000Y-96520000D03*
X129540000Y-93980000D03*
G04 #@! TO.N,/ENinv_2*
X135128000Y-90170000D03*
X174498000Y-91186000D03*
X166370000Y-93218000D03*
X135128000Y-93218000D03*
X132334000Y-96520000D03*
X166344600Y-82067400D03*
X126500000Y-81100000D03*
G04 #@! TD*
D18*
G04 #@! TO.N,VDD*
X189230000Y-83312000D02*
X189230000Y-82042000D01*
X189230000Y-82042000D02*
X190500000Y-80772000D01*
X187960000Y-93345000D02*
X190500000Y-90805000D01*
X190500000Y-90805000D02*
X190500000Y-85725000D01*
X189230000Y-84455000D02*
X189230000Y-83312000D01*
X190500000Y-85725000D02*
X189230000Y-84455000D01*
X84944001Y-83674001D02*
X85090000Y-83820000D01*
X84944001Y-79590314D02*
X84944001Y-83674001D01*
X85032315Y-79502000D02*
X84944001Y-79590314D01*
X85598000Y-79502000D02*
X85032315Y-79502000D01*
X165862000Y-97790000D02*
X173736000Y-97790000D01*
G04 #@! TO.N,/~ENres*
X132842000Y-108712000D02*
X132842000Y-106934000D01*
X133350000Y-109220000D02*
X132842000Y-108712000D01*
X181610000Y-97028000D02*
X181610000Y-98806000D01*
X181610000Y-98806000D02*
X171196000Y-109220000D01*
X171196000Y-109220000D02*
X133604000Y-109220000D01*
X133604000Y-109220000D02*
X133350000Y-109220000D01*
X118618000Y-109220000D02*
X133604000Y-109220000D01*
X117094000Y-107696000D02*
X118618000Y-109220000D01*
X117094000Y-102558998D02*
X117094000Y-107696000D01*
X107913000Y-93472000D02*
X108007002Y-93472000D01*
X107696000Y-93255000D02*
X107913000Y-93472000D01*
X108007002Y-93472000D02*
X117094000Y-102558998D01*
G04 #@! TO.N,/CLK*
X113783000Y-88900000D02*
X113792000Y-88909000D01*
X110744000Y-88900000D02*
X113783000Y-88900000D01*
X132686594Y-84680594D02*
X133350000Y-85344000D01*
X133350000Y-85344000D02*
X133350000Y-90932000D01*
X147828000Y-90424000D02*
X147828000Y-91186000D01*
X147828000Y-91186000D02*
X146812000Y-92202000D01*
X134620000Y-92202000D02*
X133350000Y-90932000D01*
X146812000Y-92202000D02*
X134620000Y-92202000D01*
X150607000Y-92202000D02*
X146812000Y-92202000D01*
X152428600Y-90380400D02*
X150607000Y-92202000D01*
X152428600Y-89705400D02*
X152428600Y-90380400D01*
X171958000Y-92202000D02*
X150607000Y-92202000D01*
X187198000Y-92202000D02*
X171958000Y-92202000D01*
X187706000Y-89408000D02*
X187706000Y-91694000D01*
X187706000Y-91694000D02*
X187198000Y-92202000D01*
X127860594Y-84680594D02*
X126492000Y-83312000D01*
X128215952Y-84680594D02*
X127860594Y-84680594D01*
X152428600Y-85823400D02*
X152908000Y-85344000D01*
X113792000Y-85852000D02*
X113792000Y-85344000D01*
X113792000Y-85344000D02*
X114300000Y-84836000D01*
X130265952Y-84680594D02*
X130429000Y-84680594D01*
X128215952Y-84680594D02*
X130429000Y-84680594D01*
X130429000Y-84680594D02*
X132686594Y-84680594D01*
X113792000Y-86859000D02*
X113792000Y-86614000D01*
X113792000Y-86614000D02*
X113792000Y-85852000D01*
X152428600Y-89705400D02*
X152428600Y-87122000D01*
X152428600Y-87655400D02*
X152428600Y-87122000D01*
X152428600Y-87122000D02*
X152428600Y-85823400D01*
X172491400Y-85623400D02*
X173482000Y-86614000D01*
X165862000Y-85344000D02*
X166141400Y-85623400D01*
X173482000Y-90678000D02*
X171958000Y-92202000D01*
X173482000Y-86614000D02*
X173482000Y-90678000D01*
X166141400Y-85623400D02*
X172491400Y-85623400D01*
X123968000Y-101956000D02*
X123952000Y-101972000D01*
X123968000Y-99060000D02*
X123968000Y-101956000D01*
X112014000Y-98552000D02*
X94488000Y-98552000D01*
X94488000Y-98552000D02*
X83058000Y-87122000D01*
X189738000Y-87376000D02*
X189738000Y-86614000D01*
X189738000Y-86614000D02*
X187844020Y-84720020D01*
X187844020Y-80379980D02*
X187844020Y-79744980D01*
X188976000Y-78613000D02*
X192151000Y-78613000D01*
X187844020Y-79744980D02*
X188976000Y-78613000D01*
X187706000Y-89408000D02*
X189738000Y-87376000D01*
X187844020Y-84720020D02*
X187844020Y-80379980D01*
X113792000Y-87884000D02*
X113792000Y-86614000D01*
X113792000Y-88909000D02*
X113792000Y-87884000D01*
X113792000Y-92964000D02*
X113792000Y-88909000D01*
X123968000Y-99060000D02*
X123698000Y-99060000D01*
X125984000Y-87884000D02*
X127860594Y-86007406D01*
X127860594Y-86007406D02*
X127860594Y-84680594D01*
X123968000Y-88122000D02*
X124206000Y-87884000D01*
X113792000Y-87884000D02*
X124206000Y-87884000D01*
X124206000Y-87884000D02*
X125984000Y-87884000D01*
X83058000Y-80010000D02*
X84836000Y-78232000D01*
X83058000Y-87122000D02*
X83058000Y-80010000D01*
X84836000Y-78232000D02*
X86614000Y-78232000D01*
X123952000Y-99044000D02*
X123968000Y-99060000D01*
X123952000Y-96012000D02*
X123952000Y-99044000D01*
X123968000Y-92202000D02*
X123968000Y-93472000D01*
X123968000Y-92202000D02*
X123968000Y-88122000D01*
G04 #@! TO.N,/DATA*
X186944000Y-87376000D02*
X186944000Y-83312000D01*
X186944000Y-83312000D02*
X182143400Y-78511400D01*
X159540600Y-86388600D02*
X159004000Y-85852000D01*
X166852600Y-78511400D02*
X165608000Y-79756000D01*
X119888000Y-85344000D02*
X119380000Y-84836000D01*
X168176600Y-78511400D02*
X170815000Y-78511400D01*
X170226600Y-78511400D02*
X170815000Y-78511400D01*
X170815000Y-78511400D02*
X173228000Y-78511400D01*
X119634000Y-99203000D02*
X119650000Y-99187000D01*
X119634000Y-101972000D02*
X119634000Y-99203000D01*
X111506000Y-96266000D02*
X111506000Y-90678000D01*
X119650000Y-99187000D02*
X114427000Y-99187000D01*
X114427000Y-99187000D02*
X111506000Y-96266000D01*
X119888000Y-85344000D02*
X122809000Y-85344000D01*
X122809000Y-85344000D02*
X125222000Y-82931000D01*
X109220000Y-89916000D02*
X109982000Y-90678000D01*
X110490000Y-90678000D02*
X111506000Y-90678000D01*
X109982000Y-90678000D02*
X110490000Y-90678000D01*
X107442000Y-82550000D02*
X109220000Y-84328000D01*
X101854000Y-81083002D02*
X103320998Y-82550000D01*
X103320998Y-82550000D02*
X107442000Y-82550000D01*
X109220000Y-84328000D02*
X109220000Y-89916000D01*
X173482000Y-78511400D02*
X173228000Y-78511400D01*
X182143400Y-78511400D02*
X173482000Y-78511400D01*
X126902946Y-78511400D02*
X126877546Y-78486000D01*
X167132000Y-78511400D02*
X166852600Y-78511400D01*
X168176600Y-78511400D02*
X167132000Y-78511400D01*
X126877546Y-78486000D02*
X125222000Y-78486000D01*
X125222000Y-78486000D02*
X125222000Y-82931000D01*
X125222000Y-78486000D02*
X101854000Y-78486000D01*
X101854000Y-78486000D02*
X101854000Y-81083002D01*
X101854000Y-78486000D02*
X91186000Y-78486000D01*
X147320000Y-87884000D02*
X148082000Y-87884000D01*
X148082000Y-87884000D02*
X149098000Y-86868000D01*
X150749000Y-78511400D02*
X149199600Y-78511400D01*
X149199600Y-78511400D02*
X149098000Y-78613000D01*
X149098000Y-86868000D02*
X149098000Y-78613000D01*
X150749000Y-78511400D02*
X126902946Y-78511400D01*
X159004000Y-78511400D02*
X150749000Y-78511400D01*
X163296600Y-78511400D02*
X163322000Y-78486000D01*
X159004000Y-78511400D02*
X163296600Y-78511400D01*
X163322000Y-78638400D02*
X163449000Y-78511400D01*
X167132000Y-78511400D02*
X163449000Y-78511400D01*
X163449000Y-78511400D02*
X159004000Y-78511400D01*
X182143400Y-78511400D02*
X187045600Y-78511400D01*
X187045600Y-78511400D02*
X188341000Y-77216000D01*
X193929000Y-77216000D02*
X194437000Y-77724000D01*
X193421000Y-77216000D02*
X193929000Y-77216000D01*
X188341000Y-77216000D02*
X193421000Y-77216000D01*
X161515400Y-86388600D02*
X163322000Y-84582000D01*
X159540600Y-86388600D02*
X161515400Y-86388600D01*
X163322000Y-84582000D02*
X163322000Y-78638400D01*
X126877546Y-79788139D02*
X126877546Y-79600000D01*
X126765685Y-79900000D02*
X126877546Y-79788139D01*
X126200000Y-79900000D02*
X126765685Y-79900000D01*
X126877546Y-78486000D02*
X126877546Y-79600000D01*
G04 #@! TO.N,Net-(C10-Pad1)*
X134116653Y-81783347D02*
X139695347Y-81783347D01*
X139695347Y-81783347D02*
X139700000Y-81788000D01*
X139700000Y-81788000D02*
X146558000Y-81788000D01*
G04 #@! TO.N,/~ENmid*
X135382000Y-106934000D02*
X135382000Y-96520000D01*
G04 #@! TO.N,Net-(C12-Pad8)*
X179319347Y-81783347D02*
X179324000Y-81788000D01*
X173994653Y-81783347D02*
X179319347Y-81783347D01*
X179324000Y-81788000D02*
X184150000Y-81788000D01*
G04 #@! TO.N,/ENser*
X82042000Y-84836000D02*
X82042000Y-85344000D01*
X116586000Y-108458000D02*
X117602000Y-109474000D01*
X116586000Y-102870000D02*
X116586000Y-108458000D01*
X82042000Y-86742410D02*
X94301600Y-99002010D01*
X82042000Y-84836000D02*
X82042000Y-86742410D01*
X94301600Y-99002010D02*
X110998000Y-99002010D01*
X110998000Y-99002010D02*
X111309990Y-99314000D01*
X111309990Y-99314000D02*
X113030000Y-99314000D01*
X113030000Y-99314000D02*
X116586000Y-102870000D01*
X187394010Y-85794010D02*
X187394010Y-78924990D01*
X188722000Y-87122000D02*
X187394010Y-85794010D01*
X193253999Y-77937999D02*
X193294000Y-77978000D01*
X187394010Y-78924990D02*
X188381001Y-77937999D01*
X188381001Y-77937999D02*
X193253999Y-77937999D01*
X84836000Y-77343000D02*
X87884000Y-77343000D01*
X82042000Y-80137000D02*
X84836000Y-77343000D01*
X82042000Y-80137000D02*
X82042000Y-84836000D01*
G04 #@! TO.N,/ENinv_1*
X155984600Y-87646400D02*
X155984600Y-85880600D01*
X155984600Y-85880600D02*
X155956000Y-85852000D01*
X127762000Y-98822000D02*
X127778000Y-98806000D01*
X127762000Y-101845000D02*
X127762000Y-98822000D01*
X155984600Y-89916000D02*
X155984600Y-86896600D01*
X155984600Y-89696400D02*
X155984600Y-89916000D01*
X116840000Y-85725000D02*
X117475000Y-86360000D01*
X116840000Y-84836000D02*
X116840000Y-85725000D01*
X124460000Y-86360000D02*
X125730000Y-86360000D01*
X117475000Y-86360000D02*
X124460000Y-86360000D01*
X155984600Y-91157400D02*
X155956000Y-91186000D01*
X155984600Y-89916000D02*
X155984600Y-91157400D01*
X138430000Y-95250000D02*
X139954000Y-96774000D01*
X128905000Y-86360000D02*
X131445000Y-88900000D01*
X131445000Y-90534002D02*
X134890998Y-93980000D01*
X131445000Y-88900000D02*
X131445000Y-90534002D01*
X137160000Y-93980000D02*
X138430000Y-95250000D01*
X129540000Y-93980000D02*
X135128000Y-93980000D01*
X134890998Y-93980000D02*
X135128000Y-93980000D01*
X135128000Y-93980000D02*
X137160000Y-93980000D01*
X127778000Y-98156000D02*
X127762000Y-98140000D01*
X127778000Y-98806000D02*
X127778000Y-98156000D01*
X127762000Y-98140000D02*
X127762000Y-96520000D01*
G04 #@! TO.N,/ENinv_2*
X132432594Y-81124594D02*
X135128000Y-83820000D01*
X135128000Y-83820000D02*
X135128000Y-90170000D01*
X173253400Y-82067400D02*
X174498000Y-83312000D01*
X174498000Y-83312000D02*
X174498000Y-91186000D01*
X168167600Y-82067400D02*
X166344600Y-82067400D01*
X130265952Y-81124594D02*
X130810000Y-81124594D01*
X130810000Y-81124594D02*
X132432594Y-81124594D01*
X166370000Y-93218000D02*
X135128000Y-93218000D01*
X128215952Y-81124594D02*
X130810000Y-81124594D01*
X127155406Y-81124594D02*
X128215952Y-81124594D01*
X168167600Y-82067400D02*
X170815000Y-82067400D01*
X170217600Y-82067400D02*
X170815000Y-82067400D01*
X170815000Y-82067400D02*
X173253400Y-82067400D01*
X131969000Y-101965000D02*
X131953000Y-101981000D01*
X131969000Y-99060000D02*
X131969000Y-101965000D01*
X131969000Y-99060000D02*
X131969000Y-98187000D01*
X131969000Y-98187000D02*
X131969000Y-96885000D01*
X131969000Y-96885000D02*
X132334000Y-96520000D01*
X127155406Y-81124594D02*
X126524594Y-81124594D01*
X126524594Y-81124594D02*
X126500000Y-81100000D01*
G04 #@! TO.N,Net-(J2-Pad1)*
X120142000Y-104530000D02*
X119634000Y-104022000D01*
X120142000Y-106934000D02*
X120142000Y-104530000D01*
G04 #@! TO.N,Net-(J2-Pad2)*
X122682000Y-105292000D02*
X122682000Y-106934000D01*
X123952000Y-104022000D02*
X122682000Y-105292000D01*
G04 #@! TO.N,Net-(J2-Pad4)*
X127762000Y-103895000D02*
X127762000Y-106934000D01*
G04 #@! TO.N,Net-(J2-Pad5)*
X131153000Y-104031000D02*
X131135000Y-104013000D01*
X131953000Y-104031000D02*
X131153000Y-104031000D01*
X131135000Y-104013000D02*
X130810000Y-104013000D01*
X130302000Y-104521000D02*
X130302000Y-106934000D01*
X130810000Y-104013000D02*
X130302000Y-104521000D01*
G04 #@! TD*
D19*
G04 #@! TO.N,GND*
G36*
X215190001Y-117400000D02*
X64210000Y-117400000D01*
X64210000Y-100796890D01*
X70658524Y-100796890D01*
X70828355Y-101206924D01*
X71218642Y-101635183D01*
X71743108Y-101881486D01*
X71973000Y-101760819D01*
X71973000Y-100567000D01*
X72227000Y-100567000D01*
X72227000Y-101760819D01*
X72456892Y-101881486D01*
X72981358Y-101635183D01*
X73371645Y-101206924D01*
X73541476Y-100796890D01*
X73420155Y-100567000D01*
X72227000Y-100567000D01*
X71973000Y-100567000D01*
X70779845Y-100567000D01*
X70658524Y-100796890D01*
X64210000Y-100796890D01*
X64210000Y-97050000D01*
X70602560Y-97050000D01*
X70602560Y-98750000D01*
X70651843Y-98997765D01*
X70792191Y-99207809D01*
X71002235Y-99348157D01*
X71105708Y-99368739D01*
X70828355Y-99673076D01*
X70658524Y-100083110D01*
X70779845Y-100313000D01*
X71973000Y-100313000D01*
X71973000Y-100293000D01*
X72227000Y-100293000D01*
X72227000Y-100313000D01*
X73420155Y-100313000D01*
X73541476Y-100083110D01*
X73371645Y-99673076D01*
X73094292Y-99368739D01*
X73197765Y-99348157D01*
X73407809Y-99207809D01*
X73548157Y-98997765D01*
X73597440Y-98750000D01*
X73597440Y-97050000D01*
X73548157Y-96802235D01*
X73407809Y-96592191D01*
X73197765Y-96451843D01*
X72950000Y-96402560D01*
X71250000Y-96402560D01*
X71002235Y-96451843D01*
X70792191Y-96592191D01*
X70651843Y-96802235D01*
X70602560Y-97050000D01*
X64210000Y-97050000D01*
X64210000Y-85062947D01*
X68532658Y-85062947D01*
X68646621Y-85342773D01*
X69301629Y-85590170D01*
X70001451Y-85568075D01*
X70545379Y-85342773D01*
X70659342Y-85062947D01*
X73612658Y-85062947D01*
X73726621Y-85342773D01*
X74381629Y-85590170D01*
X75081451Y-85568075D01*
X75625379Y-85342773D01*
X75739342Y-85062947D01*
X74676000Y-83999605D01*
X73612658Y-85062947D01*
X70659342Y-85062947D01*
X69596000Y-83999605D01*
X68532658Y-85062947D01*
X64210000Y-85062947D01*
X64210000Y-83525629D01*
X67825830Y-83525629D01*
X67847925Y-84225451D01*
X68073227Y-84769379D01*
X68353053Y-84883342D01*
X69416395Y-83820000D01*
X69775605Y-83820000D01*
X70838947Y-84883342D01*
X71118773Y-84769379D01*
X71366170Y-84114371D01*
X71347583Y-83525629D01*
X72905830Y-83525629D01*
X72927925Y-84225451D01*
X73153227Y-84769379D01*
X73433053Y-84883342D01*
X74496395Y-83820000D01*
X74855605Y-83820000D01*
X75918947Y-84883342D01*
X76198773Y-84769379D01*
X76446170Y-84114371D01*
X76424075Y-83414549D01*
X76198773Y-82870621D01*
X75918947Y-82756658D01*
X74855605Y-83820000D01*
X74496395Y-83820000D01*
X73433053Y-82756658D01*
X73153227Y-82870621D01*
X72905830Y-83525629D01*
X71347583Y-83525629D01*
X71344075Y-83414549D01*
X71118773Y-82870621D01*
X70838947Y-82756658D01*
X69775605Y-83820000D01*
X69416395Y-83820000D01*
X68353053Y-82756658D01*
X68073227Y-82870621D01*
X67825830Y-83525629D01*
X64210000Y-83525629D01*
X64210000Y-82577053D01*
X68532658Y-82577053D01*
X69596000Y-83640395D01*
X70659342Y-82577053D01*
X70545379Y-82297227D01*
X69890371Y-82049830D01*
X69190549Y-82071925D01*
X68646621Y-82297227D01*
X68532658Y-82577053D01*
X64210000Y-82577053D01*
X64210000Y-80949806D01*
X70476000Y-80949806D01*
X70476000Y-81610194D01*
X70728720Y-82220314D01*
X71195686Y-82687280D01*
X71805806Y-82940000D01*
X72466194Y-82940000D01*
X73076314Y-82687280D01*
X73186541Y-82577053D01*
X73612658Y-82577053D01*
X74676000Y-83640395D01*
X75739342Y-82577053D01*
X75625379Y-82297227D01*
X74970371Y-82049830D01*
X74270549Y-82071925D01*
X73726621Y-82297227D01*
X73612658Y-82577053D01*
X73186541Y-82577053D01*
X73543280Y-82220314D01*
X73796000Y-81610194D01*
X73796000Y-80949806D01*
X73543280Y-80339686D01*
X73186541Y-79982947D01*
X73612658Y-79982947D01*
X73726621Y-80262773D01*
X74381629Y-80510170D01*
X75081451Y-80488075D01*
X75625379Y-80262773D01*
X75676601Y-80137000D01*
X81267112Y-80137000D01*
X81282000Y-80211847D01*
X81282001Y-84761144D01*
X81282000Y-84761149D01*
X81282001Y-86667558D01*
X81267112Y-86742410D01*
X81326097Y-87038947D01*
X81412392Y-87168096D01*
X81494072Y-87290339D01*
X81557528Y-87332739D01*
X93711270Y-99486482D01*
X93753671Y-99549939D01*
X94005063Y-99717914D01*
X94226748Y-99762010D01*
X94226752Y-99762010D01*
X94301600Y-99776898D01*
X94376448Y-99762010D01*
X110683198Y-99762010D01*
X110719660Y-99798472D01*
X110762061Y-99861929D01*
X111013453Y-100029904D01*
X111235138Y-100074000D01*
X111235142Y-100074000D01*
X111309989Y-100088888D01*
X111384836Y-100074000D01*
X112715199Y-100074000D01*
X115826000Y-103184803D01*
X115826001Y-108383148D01*
X115811112Y-108458000D01*
X115870097Y-108754537D01*
X115891689Y-108786851D01*
X116038072Y-109005929D01*
X116101528Y-109048329D01*
X116567000Y-109513802D01*
X116567000Y-109679874D01*
X116724569Y-110060280D01*
X117015720Y-110351431D01*
X117396126Y-110509000D01*
X117807874Y-110509000D01*
X118188280Y-110351431D01*
X118479431Y-110060280D01*
X118515003Y-109974402D01*
X118543148Y-109980000D01*
X118543152Y-109980000D01*
X118617999Y-109994888D01*
X118692846Y-109980000D01*
X133275152Y-109980000D01*
X133349999Y-109994888D01*
X133424846Y-109980000D01*
X171121153Y-109980000D01*
X171196000Y-109994888D01*
X171270847Y-109980000D01*
X171270852Y-109980000D01*
X171492537Y-109935904D01*
X171743929Y-109767929D01*
X171786331Y-109704470D01*
X180593911Y-100896890D01*
X207058524Y-100896890D01*
X207228355Y-101306924D01*
X207618642Y-101735183D01*
X208143108Y-101981486D01*
X208373000Y-101860819D01*
X208373000Y-100667000D01*
X208627000Y-100667000D01*
X208627000Y-101860819D01*
X208856892Y-101981486D01*
X209381358Y-101735183D01*
X209771645Y-101306924D01*
X209941476Y-100896890D01*
X209820155Y-100667000D01*
X208627000Y-100667000D01*
X208373000Y-100667000D01*
X207179845Y-100667000D01*
X207058524Y-100896890D01*
X180593911Y-100896890D01*
X182094473Y-99396329D01*
X182157929Y-99353929D01*
X182325904Y-99102537D01*
X182370000Y-98880852D01*
X182370000Y-98880848D01*
X182384888Y-98806001D01*
X182370000Y-98731154D01*
X182370000Y-97731711D01*
X182487431Y-97614280D01*
X182645000Y-97233874D01*
X182645000Y-97150000D01*
X207002560Y-97150000D01*
X207002560Y-98850000D01*
X207051843Y-99097765D01*
X207192191Y-99307809D01*
X207402235Y-99448157D01*
X207505708Y-99468739D01*
X207228355Y-99773076D01*
X207058524Y-100183110D01*
X207179845Y-100413000D01*
X208373000Y-100413000D01*
X208373000Y-100393000D01*
X208627000Y-100393000D01*
X208627000Y-100413000D01*
X209820155Y-100413000D01*
X209941476Y-100183110D01*
X209771645Y-99773076D01*
X209494292Y-99468739D01*
X209597765Y-99448157D01*
X209807809Y-99307809D01*
X209948157Y-99097765D01*
X209997440Y-98850000D01*
X209997440Y-97150000D01*
X209948157Y-96902235D01*
X209807809Y-96692191D01*
X209597765Y-96551843D01*
X209350000Y-96502560D01*
X207650000Y-96502560D01*
X207402235Y-96551843D01*
X207192191Y-96692191D01*
X207051843Y-96902235D01*
X207002560Y-97150000D01*
X182645000Y-97150000D01*
X182645000Y-96822126D01*
X182487431Y-96441720D01*
X182196280Y-96150569D01*
X181815874Y-95993000D01*
X181404126Y-95993000D01*
X181023720Y-96150569D01*
X180732569Y-96441720D01*
X180575000Y-96822126D01*
X180575000Y-97233874D01*
X180732569Y-97614280D01*
X180850000Y-97731711D01*
X180850001Y-98491197D01*
X170881199Y-108460000D01*
X133664802Y-108460000D01*
X133602000Y-108397198D01*
X133602000Y-108212178D01*
X133912625Y-108004625D01*
X134112000Y-107706239D01*
X134311375Y-108004625D01*
X134802582Y-108332839D01*
X135235744Y-108419000D01*
X135528256Y-108419000D01*
X135961418Y-108332839D01*
X136452625Y-108004625D01*
X136652000Y-107706239D01*
X136851375Y-108004625D01*
X137342582Y-108332839D01*
X137775744Y-108419000D01*
X138068256Y-108419000D01*
X138501418Y-108332839D01*
X138992625Y-108004625D01*
X139205843Y-107685522D01*
X139266817Y-107815358D01*
X139695076Y-108205645D01*
X140105110Y-108375476D01*
X140335000Y-108254155D01*
X140335000Y-107061000D01*
X140589000Y-107061000D01*
X140589000Y-108254155D01*
X140818890Y-108375476D01*
X141228924Y-108205645D01*
X141657183Y-107815358D01*
X141903486Y-107290892D01*
X141782819Y-107061000D01*
X140589000Y-107061000D01*
X140335000Y-107061000D01*
X140315000Y-107061000D01*
X140315000Y-106807000D01*
X140335000Y-106807000D01*
X140335000Y-105613845D01*
X140589000Y-105613845D01*
X140589000Y-106807000D01*
X141782819Y-106807000D01*
X141903486Y-106577108D01*
X141657183Y-106052642D01*
X141228924Y-105662355D01*
X140818890Y-105492524D01*
X140589000Y-105613845D01*
X140335000Y-105613845D01*
X140105110Y-105492524D01*
X139695076Y-105662355D01*
X139266817Y-106052642D01*
X139205843Y-106182478D01*
X138992625Y-105863375D01*
X138501418Y-105535161D01*
X138068256Y-105449000D01*
X137775744Y-105449000D01*
X137342582Y-105535161D01*
X136851375Y-105863375D01*
X136652000Y-106161761D01*
X136452625Y-105863375D01*
X136142000Y-105655822D01*
X136142000Y-97223711D01*
X136259431Y-97106280D01*
X136417000Y-96725874D01*
X136417000Y-96314126D01*
X136259431Y-95933720D01*
X135968280Y-95642569D01*
X135587874Y-95485000D01*
X135176126Y-95485000D01*
X134795720Y-95642569D01*
X134504569Y-95933720D01*
X134347000Y-96314126D01*
X134347000Y-96725874D01*
X134491612Y-97075000D01*
X134254750Y-97075000D01*
X134096000Y-97233750D01*
X134096000Y-97983000D01*
X134116000Y-97983000D01*
X134116000Y-98237000D01*
X134096000Y-98237000D01*
X134096000Y-98257000D01*
X133842000Y-98257000D01*
X133842000Y-98237000D01*
X133042750Y-98237000D01*
X132957219Y-98322531D01*
X132876809Y-98202191D01*
X132729000Y-98103427D01*
X132729000Y-97583690D01*
X132884000Y-97583690D01*
X132884000Y-97824250D01*
X133042750Y-97983000D01*
X133842000Y-97983000D01*
X133842000Y-97233750D01*
X133683250Y-97075000D01*
X133392691Y-97075000D01*
X133159302Y-97171673D01*
X132980673Y-97350301D01*
X132884000Y-97583690D01*
X132729000Y-97583690D01*
X132729000Y-97476662D01*
X132920280Y-97397431D01*
X133211431Y-97106280D01*
X133369000Y-96725874D01*
X133369000Y-96314126D01*
X133211431Y-95933720D01*
X132920280Y-95642569D01*
X132539874Y-95485000D01*
X132128126Y-95485000D01*
X131747720Y-95642569D01*
X131456569Y-95933720D01*
X131299000Y-96314126D01*
X131299000Y-96519764D01*
X131253097Y-96588463D01*
X131194112Y-96885000D01*
X131209001Y-96959851D01*
X131209000Y-98103427D01*
X131061191Y-98202191D01*
X130920843Y-98412235D01*
X130871560Y-98660000D01*
X130871560Y-99336494D01*
X130826157Y-99108235D01*
X130685809Y-98898191D01*
X130552306Y-98808987D01*
X130587698Y-98794327D01*
X130766327Y-98615699D01*
X130863000Y-98382310D01*
X130863000Y-98141750D01*
X130704250Y-97983000D01*
X129905000Y-97983000D01*
X129905000Y-98003000D01*
X129651000Y-98003000D01*
X129651000Y-97983000D01*
X128851750Y-97983000D01*
X128766219Y-98068531D01*
X128685809Y-97948191D01*
X128522000Y-97838736D01*
X128522000Y-97329690D01*
X128693000Y-97329690D01*
X128693000Y-97570250D01*
X128851750Y-97729000D01*
X129651000Y-97729000D01*
X129651000Y-96979750D01*
X129905000Y-96979750D01*
X129905000Y-97729000D01*
X130704250Y-97729000D01*
X130863000Y-97570250D01*
X130863000Y-97329690D01*
X130766327Y-97096301D01*
X130587698Y-96917673D01*
X130354309Y-96821000D01*
X130063750Y-96821000D01*
X129905000Y-96979750D01*
X129651000Y-96979750D01*
X129492250Y-96821000D01*
X129201691Y-96821000D01*
X128968302Y-96917673D01*
X128789673Y-97096301D01*
X128693000Y-97329690D01*
X128522000Y-97329690D01*
X128522000Y-97223711D01*
X128639431Y-97106280D01*
X128797000Y-96725874D01*
X128797000Y-96314126D01*
X128639431Y-95933720D01*
X128348280Y-95642569D01*
X127967874Y-95485000D01*
X127556126Y-95485000D01*
X127175720Y-95642569D01*
X126884569Y-95933720D01*
X126727000Y-96314126D01*
X126727000Y-96725874D01*
X126884569Y-97106280D01*
X127002001Y-97223712D01*
X127002000Y-97460566D01*
X126956327Y-97350301D01*
X126777698Y-97171673D01*
X126544309Y-97075000D01*
X126253750Y-97075000D01*
X126095000Y-97233750D01*
X126095000Y-97983000D01*
X126115000Y-97983000D01*
X126115000Y-98237000D01*
X126095000Y-98237000D01*
X126095000Y-98257000D01*
X125841000Y-98257000D01*
X125841000Y-98237000D01*
X125041750Y-98237000D01*
X124956219Y-98322531D01*
X124875809Y-98202191D01*
X124712000Y-98092736D01*
X124712000Y-97583690D01*
X124883000Y-97583690D01*
X124883000Y-97824250D01*
X125041750Y-97983000D01*
X125841000Y-97983000D01*
X125841000Y-97233750D01*
X125682250Y-97075000D01*
X125391691Y-97075000D01*
X125158302Y-97171673D01*
X124979673Y-97350301D01*
X124883000Y-97583690D01*
X124712000Y-97583690D01*
X124712000Y-96715711D01*
X124829431Y-96598280D01*
X124987000Y-96217874D01*
X124987000Y-95806126D01*
X124829431Y-95425720D01*
X124538280Y-95134569D01*
X124157874Y-94977000D01*
X123746126Y-94977000D01*
X123365720Y-95134569D01*
X123074569Y-95425720D01*
X122917000Y-95806126D01*
X122917000Y-96217874D01*
X123074569Y-96598280D01*
X123192000Y-96715711D01*
X123192001Y-98114118D01*
X123060191Y-98202191D01*
X122919843Y-98412235D01*
X122870560Y-98660000D01*
X122870560Y-99460000D01*
X122919843Y-99707765D01*
X123060191Y-99917809D01*
X123208000Y-100016573D01*
X123208001Y-100808040D01*
X123158564Y-100817873D01*
X122867414Y-101012414D01*
X122672873Y-101303564D01*
X122604560Y-101646999D01*
X122604560Y-102297001D01*
X122672873Y-102640436D01*
X122867414Y-102931586D01*
X122965313Y-102997000D01*
X122867414Y-103062414D01*
X122672873Y-103353564D01*
X122604560Y-103696999D01*
X122604560Y-104294639D01*
X122197530Y-104701669D01*
X122134071Y-104744071D01*
X121966096Y-104995464D01*
X121922000Y-105217149D01*
X121922000Y-105217153D01*
X121907112Y-105292000D01*
X121922000Y-105366847D01*
X121922000Y-105655822D01*
X121611375Y-105863375D01*
X121599184Y-105881619D01*
X121590157Y-105836235D01*
X121449809Y-105626191D01*
X121239765Y-105485843D01*
X120992000Y-105436560D01*
X120902000Y-105436560D01*
X120902000Y-104707089D01*
X120913127Y-104690436D01*
X120981440Y-104347001D01*
X120981440Y-103696999D01*
X120913127Y-103353564D01*
X120718586Y-103062414D01*
X120620687Y-102997000D01*
X120718586Y-102931586D01*
X120913127Y-102640436D01*
X120981440Y-102297001D01*
X120981440Y-101646999D01*
X120913127Y-101303564D01*
X120718586Y-101012414D01*
X120427436Y-100817873D01*
X120394000Y-100811222D01*
X120394000Y-100154264D01*
X120552560Y-100048316D01*
X120552560Y-100537000D01*
X120601843Y-100784765D01*
X120742191Y-100994809D01*
X120952235Y-101135157D01*
X121200000Y-101184440D01*
X122100000Y-101184440D01*
X122347765Y-101135157D01*
X122557809Y-100994809D01*
X122698157Y-100784765D01*
X122747440Y-100537000D01*
X122747440Y-99737000D01*
X122698157Y-99489235D01*
X122557809Y-99279191D01*
X122424306Y-99189987D01*
X122459698Y-99175327D01*
X122638327Y-98996699D01*
X122735000Y-98763310D01*
X122735000Y-98522750D01*
X122576250Y-98364000D01*
X121777000Y-98364000D01*
X121777000Y-98384000D01*
X121523000Y-98384000D01*
X121523000Y-98364000D01*
X120723750Y-98364000D01*
X120638219Y-98449531D01*
X120557809Y-98329191D01*
X120347765Y-98188843D01*
X120100000Y-98139560D01*
X119200000Y-98139560D01*
X118952235Y-98188843D01*
X118742191Y-98329191D01*
X118676837Y-98427000D01*
X114741802Y-98427000D01*
X114025492Y-97710690D01*
X120565000Y-97710690D01*
X120565000Y-97951250D01*
X120723750Y-98110000D01*
X121523000Y-98110000D01*
X121523000Y-97360750D01*
X121777000Y-97360750D01*
X121777000Y-98110000D01*
X122576250Y-98110000D01*
X122735000Y-97951250D01*
X122735000Y-97710690D01*
X122638327Y-97477301D01*
X122459698Y-97298673D01*
X122226309Y-97202000D01*
X121935750Y-97202000D01*
X121777000Y-97360750D01*
X121523000Y-97360750D01*
X121364250Y-97202000D01*
X121073691Y-97202000D01*
X120840302Y-97298673D01*
X120661673Y-97477301D01*
X120565000Y-97710690D01*
X114025492Y-97710690D01*
X112266000Y-95951199D01*
X112266000Y-91381711D01*
X112383431Y-91264280D01*
X112541000Y-90883874D01*
X112541000Y-90472126D01*
X112383431Y-90091720D01*
X112092280Y-89800569D01*
X111752916Y-89660000D01*
X113032001Y-89660000D01*
X113032000Y-92260289D01*
X112914569Y-92377720D01*
X112757000Y-92758126D01*
X112757000Y-93169874D01*
X112914569Y-93550280D01*
X113205720Y-93841431D01*
X113586126Y-93999000D01*
X113997874Y-93999000D01*
X114378280Y-93841431D01*
X114669431Y-93550280D01*
X114827000Y-93169874D01*
X114827000Y-92758126D01*
X114669431Y-92377720D01*
X114552000Y-92260289D01*
X114552000Y-88983847D01*
X114566888Y-88909000D01*
X114552000Y-88834153D01*
X114552000Y-88644000D01*
X123208001Y-88644000D01*
X123208000Y-92127148D01*
X123208000Y-92768289D01*
X123090569Y-92885720D01*
X122933000Y-93266126D01*
X122933000Y-93677874D01*
X123090569Y-94058280D01*
X123381720Y-94349431D01*
X123762126Y-94507000D01*
X124173874Y-94507000D01*
X124554280Y-94349431D01*
X124845431Y-94058280D01*
X125003000Y-93677874D01*
X125003000Y-93266126D01*
X124845431Y-92885720D01*
X124728000Y-92768289D01*
X124728000Y-88644000D01*
X125909153Y-88644000D01*
X125984000Y-88658888D01*
X126058847Y-88644000D01*
X126058852Y-88644000D01*
X126280537Y-88599904D01*
X126531929Y-88431929D01*
X126574331Y-88368470D01*
X128018475Y-86924326D01*
X128027569Y-86946280D01*
X128318720Y-87237431D01*
X128699126Y-87395000D01*
X128865199Y-87395000D01*
X130685000Y-89214803D01*
X130685001Y-90459151D01*
X130670112Y-90534002D01*
X130729097Y-90830539D01*
X130846906Y-91006852D01*
X130897072Y-91081931D01*
X130960528Y-91124331D01*
X133056196Y-93220000D01*
X130243711Y-93220000D01*
X130126280Y-93102569D01*
X129745874Y-92945000D01*
X129334126Y-92945000D01*
X128953720Y-93102569D01*
X128662569Y-93393720D01*
X128505000Y-93774126D01*
X128505000Y-94185874D01*
X128662569Y-94566280D01*
X128953720Y-94857431D01*
X129334126Y-95015000D01*
X129745874Y-95015000D01*
X130126280Y-94857431D01*
X130243711Y-94740000D01*
X134816150Y-94740000D01*
X134890997Y-94754888D01*
X134965844Y-94740000D01*
X136845199Y-94740000D01*
X137945527Y-95840329D01*
X137945530Y-95840331D01*
X138919000Y-96813802D01*
X138919000Y-96979874D01*
X139076569Y-97360280D01*
X139367720Y-97651431D01*
X139748126Y-97809000D01*
X140159874Y-97809000D01*
X140540280Y-97651431D01*
X140607585Y-97584126D01*
X164827000Y-97584126D01*
X164827000Y-97995874D01*
X164984569Y-98376280D01*
X165275720Y-98667431D01*
X165656126Y-98825000D01*
X166067874Y-98825000D01*
X166448280Y-98667431D01*
X166565711Y-98550000D01*
X173032289Y-98550000D01*
X173149720Y-98667431D01*
X173530126Y-98825000D01*
X173941874Y-98825000D01*
X174322280Y-98667431D01*
X174613431Y-98376280D01*
X174771000Y-97995874D01*
X174771000Y-97584126D01*
X174613431Y-97203720D01*
X174322280Y-96912569D01*
X173941874Y-96755000D01*
X173530126Y-96755000D01*
X173149720Y-96912569D01*
X173032289Y-97030000D01*
X166565711Y-97030000D01*
X166448280Y-96912569D01*
X166067874Y-96755000D01*
X165656126Y-96755000D01*
X165275720Y-96912569D01*
X164984569Y-97203720D01*
X164827000Y-97584126D01*
X140607585Y-97584126D01*
X140831431Y-97360280D01*
X140989000Y-96979874D01*
X140989000Y-96568126D01*
X140831431Y-96187720D01*
X140540280Y-95896569D01*
X140159874Y-95739000D01*
X139993802Y-95739000D01*
X139020331Y-94765530D01*
X139020329Y-94765527D01*
X138232801Y-93978000D01*
X165666289Y-93978000D01*
X165783720Y-94095431D01*
X166164126Y-94253000D01*
X166575874Y-94253000D01*
X166956280Y-94095431D01*
X167247431Y-93804280D01*
X167405000Y-93423874D01*
X167405000Y-93012126D01*
X167384237Y-92962000D01*
X171883153Y-92962000D01*
X171958000Y-92976888D01*
X172032847Y-92962000D01*
X186998368Y-92962000D01*
X186925000Y-93139126D01*
X186925000Y-93550874D01*
X187082569Y-93931280D01*
X187373720Y-94222431D01*
X187754126Y-94380000D01*
X188165874Y-94380000D01*
X188546280Y-94222431D01*
X188837431Y-93931280D01*
X188995000Y-93550874D01*
X188995000Y-93384801D01*
X190984476Y-91395327D01*
X191047929Y-91352929D01*
X191090327Y-91289476D01*
X191090329Y-91289474D01*
X191215903Y-91101538D01*
X191215904Y-91101537D01*
X191260000Y-90879852D01*
X191260000Y-90879848D01*
X191274888Y-90805001D01*
X191260000Y-90730154D01*
X191260000Y-85799846D01*
X191274888Y-85724999D01*
X191260000Y-85650152D01*
X191260000Y-85650148D01*
X191244246Y-85570947D01*
X204930658Y-85570947D01*
X205044621Y-85850773D01*
X205699629Y-86098170D01*
X206399451Y-86076075D01*
X206943379Y-85850773D01*
X207057342Y-85570947D01*
X210010658Y-85570947D01*
X210124621Y-85850773D01*
X210779629Y-86098170D01*
X211479451Y-86076075D01*
X212023379Y-85850773D01*
X212137342Y-85570947D01*
X211074000Y-84507605D01*
X210010658Y-85570947D01*
X207057342Y-85570947D01*
X205994000Y-84507605D01*
X204930658Y-85570947D01*
X191244246Y-85570947D01*
X191215904Y-85428463D01*
X191047929Y-85177071D01*
X190984473Y-85134671D01*
X189990000Y-84140199D01*
X189990000Y-84033629D01*
X204223830Y-84033629D01*
X204245925Y-84733451D01*
X204471227Y-85277379D01*
X204751053Y-85391342D01*
X205814395Y-84328000D01*
X206173605Y-84328000D01*
X207236947Y-85391342D01*
X207516773Y-85277379D01*
X207764170Y-84622371D01*
X207745583Y-84033629D01*
X209303830Y-84033629D01*
X209325925Y-84733451D01*
X209551227Y-85277379D01*
X209831053Y-85391342D01*
X210894395Y-84328000D01*
X211253605Y-84328000D01*
X212316947Y-85391342D01*
X212596773Y-85277379D01*
X212844170Y-84622371D01*
X212822075Y-83922549D01*
X212596773Y-83378621D01*
X212316947Y-83264658D01*
X211253605Y-84328000D01*
X210894395Y-84328000D01*
X209831053Y-83264658D01*
X209551227Y-83378621D01*
X209303830Y-84033629D01*
X207745583Y-84033629D01*
X207742075Y-83922549D01*
X207516773Y-83378621D01*
X207236947Y-83264658D01*
X206173605Y-84328000D01*
X205814395Y-84328000D01*
X204751053Y-83264658D01*
X204471227Y-83378621D01*
X204223830Y-84033629D01*
X189990000Y-84033629D01*
X189990000Y-84015711D01*
X190107431Y-83898280D01*
X190265000Y-83517874D01*
X190265000Y-83106126D01*
X190256272Y-83085053D01*
X204930658Y-83085053D01*
X205994000Y-84148395D01*
X207057342Y-83085053D01*
X206943379Y-82805227D01*
X206288371Y-82557830D01*
X205588549Y-82579925D01*
X205044621Y-82805227D01*
X204930658Y-83085053D01*
X190256272Y-83085053D01*
X190107431Y-82725720D01*
X189990000Y-82608289D01*
X189990000Y-82356801D01*
X190539802Y-81807000D01*
X190705874Y-81807000D01*
X191086280Y-81649431D01*
X191277905Y-81457806D01*
X206874000Y-81457806D01*
X206874000Y-82118194D01*
X207126720Y-82728314D01*
X207593686Y-83195280D01*
X208203806Y-83448000D01*
X208864194Y-83448000D01*
X209474314Y-83195280D01*
X209584541Y-83085053D01*
X210010658Y-83085053D01*
X211074000Y-84148395D01*
X212137342Y-83085053D01*
X212023379Y-82805227D01*
X211368371Y-82557830D01*
X210668549Y-82579925D01*
X210124621Y-82805227D01*
X210010658Y-83085053D01*
X209584541Y-83085053D01*
X209941280Y-82728314D01*
X210194000Y-82118194D01*
X210194000Y-81457806D01*
X209941280Y-80847686D01*
X209584541Y-80490947D01*
X210010658Y-80490947D01*
X210124621Y-80770773D01*
X210779629Y-81018170D01*
X211479451Y-80996075D01*
X212023379Y-80770773D01*
X212137342Y-80490947D01*
X211074000Y-79427605D01*
X210010658Y-80490947D01*
X209584541Y-80490947D01*
X209474314Y-80380720D01*
X208864194Y-80128000D01*
X208203806Y-80128000D01*
X207593686Y-80380720D01*
X207126720Y-80847686D01*
X206874000Y-81457806D01*
X191277905Y-81457806D01*
X191377431Y-81358280D01*
X191535000Y-80977874D01*
X191535000Y-80566126D01*
X191503860Y-80490947D01*
X204930658Y-80490947D01*
X205044621Y-80770773D01*
X205699629Y-81018170D01*
X206399451Y-80996075D01*
X206943379Y-80770773D01*
X207057342Y-80490947D01*
X205994000Y-79427605D01*
X204930658Y-80490947D01*
X191503860Y-80490947D01*
X191377431Y-80185720D01*
X191086280Y-79894569D01*
X190705874Y-79737000D01*
X190294126Y-79737000D01*
X189913720Y-79894569D01*
X189622569Y-80185720D01*
X189465000Y-80566126D01*
X189465000Y-80732198D01*
X188745528Y-81451671D01*
X188682072Y-81494071D01*
X188639672Y-81557527D01*
X188639671Y-81557528D01*
X188604020Y-81610884D01*
X188604020Y-80059781D01*
X189290803Y-79373000D01*
X191447289Y-79373000D01*
X191564720Y-79490431D01*
X191945126Y-79648000D01*
X192356874Y-79648000D01*
X192737280Y-79490431D01*
X193028431Y-79199280D01*
X193105591Y-79013000D01*
X193499874Y-79013000D01*
X193643208Y-78953629D01*
X204223830Y-78953629D01*
X204245925Y-79653451D01*
X204471227Y-80197379D01*
X204751053Y-80311342D01*
X205814395Y-79248000D01*
X206173605Y-79248000D01*
X207236947Y-80311342D01*
X207516773Y-80197379D01*
X207764170Y-79542371D01*
X207745583Y-78953629D01*
X209303830Y-78953629D01*
X209325925Y-79653451D01*
X209551227Y-80197379D01*
X209831053Y-80311342D01*
X210894395Y-79248000D01*
X211253605Y-79248000D01*
X212316947Y-80311342D01*
X212596773Y-80197379D01*
X212844170Y-79542371D01*
X212822075Y-78842549D01*
X212596773Y-78298621D01*
X212316947Y-78184658D01*
X211253605Y-79248000D01*
X210894395Y-79248000D01*
X209831053Y-78184658D01*
X209551227Y-78298621D01*
X209303830Y-78953629D01*
X207745583Y-78953629D01*
X207742075Y-78842549D01*
X207516773Y-78298621D01*
X207236947Y-78184658D01*
X206173605Y-79248000D01*
X205814395Y-79248000D01*
X204751053Y-78184658D01*
X204471227Y-78298621D01*
X204223830Y-78953629D01*
X193643208Y-78953629D01*
X193880280Y-78855431D01*
X194051227Y-78684484D01*
X194231126Y-78759000D01*
X194642874Y-78759000D01*
X195023280Y-78601431D01*
X195314431Y-78310280D01*
X195440859Y-78005053D01*
X204930658Y-78005053D01*
X205994000Y-79068395D01*
X207057342Y-78005053D01*
X210010658Y-78005053D01*
X211074000Y-79068395D01*
X212137342Y-78005053D01*
X212023379Y-77725227D01*
X211368371Y-77477830D01*
X210668549Y-77499925D01*
X210124621Y-77725227D01*
X210010658Y-78005053D01*
X207057342Y-78005053D01*
X206943379Y-77725227D01*
X206288371Y-77477830D01*
X205588549Y-77499925D01*
X205044621Y-77725227D01*
X204930658Y-78005053D01*
X195440859Y-78005053D01*
X195472000Y-77929874D01*
X195472000Y-77518126D01*
X195314431Y-77137720D01*
X195023280Y-76846569D01*
X194642874Y-76689000D01*
X194490913Y-76689000D01*
X194476929Y-76668071D01*
X194225537Y-76500096D01*
X194003852Y-76456000D01*
X194003847Y-76456000D01*
X193929000Y-76441112D01*
X193854153Y-76456000D01*
X188415846Y-76456000D01*
X188340999Y-76441112D01*
X188266152Y-76456000D01*
X188266148Y-76456000D01*
X188044463Y-76500096D01*
X187793071Y-76668071D01*
X187750671Y-76731527D01*
X186730799Y-77751400D01*
X182218247Y-77751400D01*
X182143400Y-77736512D01*
X182068553Y-77751400D01*
X166927446Y-77751400D01*
X166852599Y-77736512D01*
X166777752Y-77751400D01*
X163524541Y-77751400D01*
X163321999Y-77711112D01*
X163119459Y-77751400D01*
X149274446Y-77751400D01*
X149199599Y-77736512D01*
X149124752Y-77751400D01*
X127080092Y-77751400D01*
X126952398Y-77726000D01*
X126877546Y-77711111D01*
X126802694Y-77726000D01*
X125296852Y-77726000D01*
X125222000Y-77711111D01*
X125147148Y-77726000D01*
X101928852Y-77726000D01*
X101854000Y-77711111D01*
X101779148Y-77726000D01*
X91889711Y-77726000D01*
X91772280Y-77608569D01*
X91391874Y-77451000D01*
X90980126Y-77451000D01*
X90599720Y-77608569D01*
X90308569Y-77899720D01*
X90151000Y-78280126D01*
X90151000Y-78691874D01*
X90308569Y-79072280D01*
X90599720Y-79363431D01*
X90980126Y-79521000D01*
X91391874Y-79521000D01*
X91772280Y-79363431D01*
X91889711Y-79246000D01*
X101094000Y-79246000D01*
X101094001Y-81008150D01*
X101079112Y-81083002D01*
X101094001Y-81157854D01*
X101132519Y-81351496D01*
X101138097Y-81379539D01*
X101257026Y-81557528D01*
X101306072Y-81630931D01*
X101369528Y-81673331D01*
X102730671Y-83034476D01*
X102773069Y-83097929D01*
X102836522Y-83140327D01*
X102836524Y-83140329D01*
X102918765Y-83195280D01*
X103024461Y-83265904D01*
X103246146Y-83310000D01*
X103246150Y-83310000D01*
X103320997Y-83324888D01*
X103395844Y-83310000D01*
X107127199Y-83310000D01*
X108460000Y-84642802D01*
X108460001Y-89841148D01*
X108445112Y-89916000D01*
X108460001Y-89990851D01*
X108460001Y-89990852D01*
X108493072Y-90157112D01*
X108504097Y-90212537D01*
X108618713Y-90384071D01*
X108672072Y-90463929D01*
X108735528Y-90506329D01*
X109391671Y-91162473D01*
X109434071Y-91225929D01*
X109497527Y-91268329D01*
X109685462Y-91393904D01*
X109703360Y-91397464D01*
X109907148Y-91438000D01*
X109907152Y-91438000D01*
X109982000Y-91452888D01*
X110056848Y-91438000D01*
X110746001Y-91438000D01*
X110746000Y-95136197D01*
X108731000Y-93121197D01*
X108731000Y-93049126D01*
X108573431Y-92668720D01*
X108282280Y-92377569D01*
X107901874Y-92220000D01*
X107490126Y-92220000D01*
X107109720Y-92377569D01*
X106818569Y-92668720D01*
X106661000Y-93049126D01*
X106661000Y-93460874D01*
X106818569Y-93841280D01*
X107109720Y-94132431D01*
X107490126Y-94290000D01*
X107750201Y-94290000D01*
X111252201Y-97792000D01*
X94802802Y-97792000D01*
X83818000Y-86807199D01*
X83818000Y-80324801D01*
X84184001Y-79958800D01*
X84184002Y-83302687D01*
X84055000Y-83614126D01*
X84055000Y-84025874D01*
X84212569Y-84406280D01*
X84503720Y-84697431D01*
X84884126Y-84855000D01*
X85295874Y-84855000D01*
X85676280Y-84697431D01*
X85967431Y-84406280D01*
X86125000Y-84025874D01*
X86125000Y-83614126D01*
X85967431Y-83233720D01*
X85704001Y-82970290D01*
X85704001Y-80537000D01*
X85803874Y-80537000D01*
X86184280Y-80379431D01*
X86475431Y-80088280D01*
X86633000Y-79707874D01*
X86633000Y-79296126D01*
X86620936Y-79267000D01*
X86819874Y-79267000D01*
X87200280Y-79109431D01*
X87491431Y-78818280D01*
X87649000Y-78437874D01*
X87649000Y-78365936D01*
X87678126Y-78378000D01*
X88089874Y-78378000D01*
X88470280Y-78220431D01*
X88761431Y-77929280D01*
X88919000Y-77548874D01*
X88919000Y-77137126D01*
X88761431Y-76756720D01*
X88470280Y-76465569D01*
X88089874Y-76308000D01*
X87678126Y-76308000D01*
X87297720Y-76465569D01*
X87180289Y-76583000D01*
X84910848Y-76583000D01*
X84836000Y-76568112D01*
X84761152Y-76583000D01*
X84761148Y-76583000D01*
X84587605Y-76617520D01*
X84539462Y-76627096D01*
X84446817Y-76689000D01*
X84288071Y-76795071D01*
X84245671Y-76858527D01*
X81557530Y-79546669D01*
X81494071Y-79589071D01*
X81326096Y-79840464D01*
X81282000Y-80062149D01*
X81282000Y-80062153D01*
X81267112Y-80137000D01*
X75676601Y-80137000D01*
X75739342Y-79982947D01*
X74676000Y-78919605D01*
X73612658Y-79982947D01*
X73186541Y-79982947D01*
X73076314Y-79872720D01*
X72466194Y-79620000D01*
X71805806Y-79620000D01*
X71195686Y-79872720D01*
X70728720Y-80339686D01*
X70476000Y-80949806D01*
X64210000Y-80949806D01*
X64210000Y-79982947D01*
X68532658Y-79982947D01*
X68646621Y-80262773D01*
X69301629Y-80510170D01*
X70001451Y-80488075D01*
X70545379Y-80262773D01*
X70659342Y-79982947D01*
X69596000Y-78919605D01*
X68532658Y-79982947D01*
X64210000Y-79982947D01*
X64210000Y-78445629D01*
X67825830Y-78445629D01*
X67847925Y-79145451D01*
X68073227Y-79689379D01*
X68353053Y-79803342D01*
X69416395Y-78740000D01*
X69775605Y-78740000D01*
X70838947Y-79803342D01*
X71118773Y-79689379D01*
X71366170Y-79034371D01*
X71347583Y-78445629D01*
X72905830Y-78445629D01*
X72927925Y-79145451D01*
X73153227Y-79689379D01*
X73433053Y-79803342D01*
X74496395Y-78740000D01*
X74855605Y-78740000D01*
X75918947Y-79803342D01*
X76198773Y-79689379D01*
X76446170Y-79034371D01*
X76424075Y-78334549D01*
X76198773Y-77790621D01*
X75918947Y-77676658D01*
X74855605Y-78740000D01*
X74496395Y-78740000D01*
X73433053Y-77676658D01*
X73153227Y-77790621D01*
X72905830Y-78445629D01*
X71347583Y-78445629D01*
X71344075Y-78334549D01*
X71118773Y-77790621D01*
X70838947Y-77676658D01*
X69775605Y-78740000D01*
X69416395Y-78740000D01*
X68353053Y-77676658D01*
X68073227Y-77790621D01*
X67825830Y-78445629D01*
X64210000Y-78445629D01*
X64210000Y-77497053D01*
X68532658Y-77497053D01*
X69596000Y-78560395D01*
X70659342Y-77497053D01*
X73612658Y-77497053D01*
X74676000Y-78560395D01*
X75739342Y-77497053D01*
X75625379Y-77217227D01*
X74970371Y-76969830D01*
X74270549Y-76991925D01*
X73726621Y-77217227D01*
X73612658Y-77497053D01*
X70659342Y-77497053D01*
X70545379Y-77217227D01*
X69890371Y-76969830D01*
X69190549Y-76991925D01*
X68646621Y-77217227D01*
X68532658Y-77497053D01*
X64210000Y-77497053D01*
X64210000Y-70560000D01*
X215190000Y-70560000D01*
X215190001Y-117400000D01*
X215190001Y-117400000D01*
G37*
X215190001Y-117400000D02*
X64210000Y-117400000D01*
X64210000Y-100796890D01*
X70658524Y-100796890D01*
X70828355Y-101206924D01*
X71218642Y-101635183D01*
X71743108Y-101881486D01*
X71973000Y-101760819D01*
X71973000Y-100567000D01*
X72227000Y-100567000D01*
X72227000Y-101760819D01*
X72456892Y-101881486D01*
X72981358Y-101635183D01*
X73371645Y-101206924D01*
X73541476Y-100796890D01*
X73420155Y-100567000D01*
X72227000Y-100567000D01*
X71973000Y-100567000D01*
X70779845Y-100567000D01*
X70658524Y-100796890D01*
X64210000Y-100796890D01*
X64210000Y-97050000D01*
X70602560Y-97050000D01*
X70602560Y-98750000D01*
X70651843Y-98997765D01*
X70792191Y-99207809D01*
X71002235Y-99348157D01*
X71105708Y-99368739D01*
X70828355Y-99673076D01*
X70658524Y-100083110D01*
X70779845Y-100313000D01*
X71973000Y-100313000D01*
X71973000Y-100293000D01*
X72227000Y-100293000D01*
X72227000Y-100313000D01*
X73420155Y-100313000D01*
X73541476Y-100083110D01*
X73371645Y-99673076D01*
X73094292Y-99368739D01*
X73197765Y-99348157D01*
X73407809Y-99207809D01*
X73548157Y-98997765D01*
X73597440Y-98750000D01*
X73597440Y-97050000D01*
X73548157Y-96802235D01*
X73407809Y-96592191D01*
X73197765Y-96451843D01*
X72950000Y-96402560D01*
X71250000Y-96402560D01*
X71002235Y-96451843D01*
X70792191Y-96592191D01*
X70651843Y-96802235D01*
X70602560Y-97050000D01*
X64210000Y-97050000D01*
X64210000Y-85062947D01*
X68532658Y-85062947D01*
X68646621Y-85342773D01*
X69301629Y-85590170D01*
X70001451Y-85568075D01*
X70545379Y-85342773D01*
X70659342Y-85062947D01*
X73612658Y-85062947D01*
X73726621Y-85342773D01*
X74381629Y-85590170D01*
X75081451Y-85568075D01*
X75625379Y-85342773D01*
X75739342Y-85062947D01*
X74676000Y-83999605D01*
X73612658Y-85062947D01*
X70659342Y-85062947D01*
X69596000Y-83999605D01*
X68532658Y-85062947D01*
X64210000Y-85062947D01*
X64210000Y-83525629D01*
X67825830Y-83525629D01*
X67847925Y-84225451D01*
X68073227Y-84769379D01*
X68353053Y-84883342D01*
X69416395Y-83820000D01*
X69775605Y-83820000D01*
X70838947Y-84883342D01*
X71118773Y-84769379D01*
X71366170Y-84114371D01*
X71347583Y-83525629D01*
X72905830Y-83525629D01*
X72927925Y-84225451D01*
X73153227Y-84769379D01*
X73433053Y-84883342D01*
X74496395Y-83820000D01*
X74855605Y-83820000D01*
X75918947Y-84883342D01*
X76198773Y-84769379D01*
X76446170Y-84114371D01*
X76424075Y-83414549D01*
X76198773Y-82870621D01*
X75918947Y-82756658D01*
X74855605Y-83820000D01*
X74496395Y-83820000D01*
X73433053Y-82756658D01*
X73153227Y-82870621D01*
X72905830Y-83525629D01*
X71347583Y-83525629D01*
X71344075Y-83414549D01*
X71118773Y-82870621D01*
X70838947Y-82756658D01*
X69775605Y-83820000D01*
X69416395Y-83820000D01*
X68353053Y-82756658D01*
X68073227Y-82870621D01*
X67825830Y-83525629D01*
X64210000Y-83525629D01*
X64210000Y-82577053D01*
X68532658Y-82577053D01*
X69596000Y-83640395D01*
X70659342Y-82577053D01*
X70545379Y-82297227D01*
X69890371Y-82049830D01*
X69190549Y-82071925D01*
X68646621Y-82297227D01*
X68532658Y-82577053D01*
X64210000Y-82577053D01*
X64210000Y-80949806D01*
X70476000Y-80949806D01*
X70476000Y-81610194D01*
X70728720Y-82220314D01*
X71195686Y-82687280D01*
X71805806Y-82940000D01*
X72466194Y-82940000D01*
X73076314Y-82687280D01*
X73186541Y-82577053D01*
X73612658Y-82577053D01*
X74676000Y-83640395D01*
X75739342Y-82577053D01*
X75625379Y-82297227D01*
X74970371Y-82049830D01*
X74270549Y-82071925D01*
X73726621Y-82297227D01*
X73612658Y-82577053D01*
X73186541Y-82577053D01*
X73543280Y-82220314D01*
X73796000Y-81610194D01*
X73796000Y-80949806D01*
X73543280Y-80339686D01*
X73186541Y-79982947D01*
X73612658Y-79982947D01*
X73726621Y-80262773D01*
X74381629Y-80510170D01*
X75081451Y-80488075D01*
X75625379Y-80262773D01*
X75676601Y-80137000D01*
X81267112Y-80137000D01*
X81282000Y-80211847D01*
X81282001Y-84761144D01*
X81282000Y-84761149D01*
X81282001Y-86667558D01*
X81267112Y-86742410D01*
X81326097Y-87038947D01*
X81412392Y-87168096D01*
X81494072Y-87290339D01*
X81557528Y-87332739D01*
X93711270Y-99486482D01*
X93753671Y-99549939D01*
X94005063Y-99717914D01*
X94226748Y-99762010D01*
X94226752Y-99762010D01*
X94301600Y-99776898D01*
X94376448Y-99762010D01*
X110683198Y-99762010D01*
X110719660Y-99798472D01*
X110762061Y-99861929D01*
X111013453Y-100029904D01*
X111235138Y-100074000D01*
X111235142Y-100074000D01*
X111309989Y-100088888D01*
X111384836Y-100074000D01*
X112715199Y-100074000D01*
X115826000Y-103184803D01*
X115826001Y-108383148D01*
X115811112Y-108458000D01*
X115870097Y-108754537D01*
X115891689Y-108786851D01*
X116038072Y-109005929D01*
X116101528Y-109048329D01*
X116567000Y-109513802D01*
X116567000Y-109679874D01*
X116724569Y-110060280D01*
X117015720Y-110351431D01*
X117396126Y-110509000D01*
X117807874Y-110509000D01*
X118188280Y-110351431D01*
X118479431Y-110060280D01*
X118515003Y-109974402D01*
X118543148Y-109980000D01*
X118543152Y-109980000D01*
X118617999Y-109994888D01*
X118692846Y-109980000D01*
X133275152Y-109980000D01*
X133349999Y-109994888D01*
X133424846Y-109980000D01*
X171121153Y-109980000D01*
X171196000Y-109994888D01*
X171270847Y-109980000D01*
X171270852Y-109980000D01*
X171492537Y-109935904D01*
X171743929Y-109767929D01*
X171786331Y-109704470D01*
X180593911Y-100896890D01*
X207058524Y-100896890D01*
X207228355Y-101306924D01*
X207618642Y-101735183D01*
X208143108Y-101981486D01*
X208373000Y-101860819D01*
X208373000Y-100667000D01*
X208627000Y-100667000D01*
X208627000Y-101860819D01*
X208856892Y-101981486D01*
X209381358Y-101735183D01*
X209771645Y-101306924D01*
X209941476Y-100896890D01*
X209820155Y-100667000D01*
X208627000Y-100667000D01*
X208373000Y-100667000D01*
X207179845Y-100667000D01*
X207058524Y-100896890D01*
X180593911Y-100896890D01*
X182094473Y-99396329D01*
X182157929Y-99353929D01*
X182325904Y-99102537D01*
X182370000Y-98880852D01*
X182370000Y-98880848D01*
X182384888Y-98806001D01*
X182370000Y-98731154D01*
X182370000Y-97731711D01*
X182487431Y-97614280D01*
X182645000Y-97233874D01*
X182645000Y-97150000D01*
X207002560Y-97150000D01*
X207002560Y-98850000D01*
X207051843Y-99097765D01*
X207192191Y-99307809D01*
X207402235Y-99448157D01*
X207505708Y-99468739D01*
X207228355Y-99773076D01*
X207058524Y-100183110D01*
X207179845Y-100413000D01*
X208373000Y-100413000D01*
X208373000Y-100393000D01*
X208627000Y-100393000D01*
X208627000Y-100413000D01*
X209820155Y-100413000D01*
X209941476Y-100183110D01*
X209771645Y-99773076D01*
X209494292Y-99468739D01*
X209597765Y-99448157D01*
X209807809Y-99307809D01*
X209948157Y-99097765D01*
X209997440Y-98850000D01*
X209997440Y-97150000D01*
X209948157Y-96902235D01*
X209807809Y-96692191D01*
X209597765Y-96551843D01*
X209350000Y-96502560D01*
X207650000Y-96502560D01*
X207402235Y-96551843D01*
X207192191Y-96692191D01*
X207051843Y-96902235D01*
X207002560Y-97150000D01*
X182645000Y-97150000D01*
X182645000Y-96822126D01*
X182487431Y-96441720D01*
X182196280Y-96150569D01*
X181815874Y-95993000D01*
X181404126Y-95993000D01*
X181023720Y-96150569D01*
X180732569Y-96441720D01*
X180575000Y-96822126D01*
X180575000Y-97233874D01*
X180732569Y-97614280D01*
X180850000Y-97731711D01*
X180850001Y-98491197D01*
X170881199Y-108460000D01*
X133664802Y-108460000D01*
X133602000Y-108397198D01*
X133602000Y-108212178D01*
X133912625Y-108004625D01*
X134112000Y-107706239D01*
X134311375Y-108004625D01*
X134802582Y-108332839D01*
X135235744Y-108419000D01*
X135528256Y-108419000D01*
X135961418Y-108332839D01*
X136452625Y-108004625D01*
X136652000Y-107706239D01*
X136851375Y-108004625D01*
X137342582Y-108332839D01*
X137775744Y-108419000D01*
X138068256Y-108419000D01*
X138501418Y-108332839D01*
X138992625Y-108004625D01*
X139205843Y-107685522D01*
X139266817Y-107815358D01*
X139695076Y-108205645D01*
X140105110Y-108375476D01*
X140335000Y-108254155D01*
X140335000Y-107061000D01*
X140589000Y-107061000D01*
X140589000Y-108254155D01*
X140818890Y-108375476D01*
X141228924Y-108205645D01*
X141657183Y-107815358D01*
X141903486Y-107290892D01*
X141782819Y-107061000D01*
X140589000Y-107061000D01*
X140335000Y-107061000D01*
X140315000Y-107061000D01*
X140315000Y-106807000D01*
X140335000Y-106807000D01*
X140335000Y-105613845D01*
X140589000Y-105613845D01*
X140589000Y-106807000D01*
X141782819Y-106807000D01*
X141903486Y-106577108D01*
X141657183Y-106052642D01*
X141228924Y-105662355D01*
X140818890Y-105492524D01*
X140589000Y-105613845D01*
X140335000Y-105613845D01*
X140105110Y-105492524D01*
X139695076Y-105662355D01*
X139266817Y-106052642D01*
X139205843Y-106182478D01*
X138992625Y-105863375D01*
X138501418Y-105535161D01*
X138068256Y-105449000D01*
X137775744Y-105449000D01*
X137342582Y-105535161D01*
X136851375Y-105863375D01*
X136652000Y-106161761D01*
X136452625Y-105863375D01*
X136142000Y-105655822D01*
X136142000Y-97223711D01*
X136259431Y-97106280D01*
X136417000Y-96725874D01*
X136417000Y-96314126D01*
X136259431Y-95933720D01*
X135968280Y-95642569D01*
X135587874Y-95485000D01*
X135176126Y-95485000D01*
X134795720Y-95642569D01*
X134504569Y-95933720D01*
X134347000Y-96314126D01*
X134347000Y-96725874D01*
X134491612Y-97075000D01*
X134254750Y-97075000D01*
X134096000Y-97233750D01*
X134096000Y-97983000D01*
X134116000Y-97983000D01*
X134116000Y-98237000D01*
X134096000Y-98237000D01*
X134096000Y-98257000D01*
X133842000Y-98257000D01*
X133842000Y-98237000D01*
X133042750Y-98237000D01*
X132957219Y-98322531D01*
X132876809Y-98202191D01*
X132729000Y-98103427D01*
X132729000Y-97583690D01*
X132884000Y-97583690D01*
X132884000Y-97824250D01*
X133042750Y-97983000D01*
X133842000Y-97983000D01*
X133842000Y-97233750D01*
X133683250Y-97075000D01*
X133392691Y-97075000D01*
X133159302Y-97171673D01*
X132980673Y-97350301D01*
X132884000Y-97583690D01*
X132729000Y-97583690D01*
X132729000Y-97476662D01*
X132920280Y-97397431D01*
X133211431Y-97106280D01*
X133369000Y-96725874D01*
X133369000Y-96314126D01*
X133211431Y-95933720D01*
X132920280Y-95642569D01*
X132539874Y-95485000D01*
X132128126Y-95485000D01*
X131747720Y-95642569D01*
X131456569Y-95933720D01*
X131299000Y-96314126D01*
X131299000Y-96519764D01*
X131253097Y-96588463D01*
X131194112Y-96885000D01*
X131209001Y-96959851D01*
X131209000Y-98103427D01*
X131061191Y-98202191D01*
X130920843Y-98412235D01*
X130871560Y-98660000D01*
X130871560Y-99336494D01*
X130826157Y-99108235D01*
X130685809Y-98898191D01*
X130552306Y-98808987D01*
X130587698Y-98794327D01*
X130766327Y-98615699D01*
X130863000Y-98382310D01*
X130863000Y-98141750D01*
X130704250Y-97983000D01*
X129905000Y-97983000D01*
X129905000Y-98003000D01*
X129651000Y-98003000D01*
X129651000Y-97983000D01*
X128851750Y-97983000D01*
X128766219Y-98068531D01*
X128685809Y-97948191D01*
X128522000Y-97838736D01*
X128522000Y-97329690D01*
X128693000Y-97329690D01*
X128693000Y-97570250D01*
X128851750Y-97729000D01*
X129651000Y-97729000D01*
X129651000Y-96979750D01*
X129905000Y-96979750D01*
X129905000Y-97729000D01*
X130704250Y-97729000D01*
X130863000Y-97570250D01*
X130863000Y-97329690D01*
X130766327Y-97096301D01*
X130587698Y-96917673D01*
X130354309Y-96821000D01*
X130063750Y-96821000D01*
X129905000Y-96979750D01*
X129651000Y-96979750D01*
X129492250Y-96821000D01*
X129201691Y-96821000D01*
X128968302Y-96917673D01*
X128789673Y-97096301D01*
X128693000Y-97329690D01*
X128522000Y-97329690D01*
X128522000Y-97223711D01*
X128639431Y-97106280D01*
X128797000Y-96725874D01*
X128797000Y-96314126D01*
X128639431Y-95933720D01*
X128348280Y-95642569D01*
X127967874Y-95485000D01*
X127556126Y-95485000D01*
X127175720Y-95642569D01*
X126884569Y-95933720D01*
X126727000Y-96314126D01*
X126727000Y-96725874D01*
X126884569Y-97106280D01*
X127002001Y-97223712D01*
X127002000Y-97460566D01*
X126956327Y-97350301D01*
X126777698Y-97171673D01*
X126544309Y-97075000D01*
X126253750Y-97075000D01*
X126095000Y-97233750D01*
X126095000Y-97983000D01*
X126115000Y-97983000D01*
X126115000Y-98237000D01*
X126095000Y-98237000D01*
X126095000Y-98257000D01*
X125841000Y-98257000D01*
X125841000Y-98237000D01*
X125041750Y-98237000D01*
X124956219Y-98322531D01*
X124875809Y-98202191D01*
X124712000Y-98092736D01*
X124712000Y-97583690D01*
X124883000Y-97583690D01*
X124883000Y-97824250D01*
X125041750Y-97983000D01*
X125841000Y-97983000D01*
X125841000Y-97233750D01*
X125682250Y-97075000D01*
X125391691Y-97075000D01*
X125158302Y-97171673D01*
X124979673Y-97350301D01*
X124883000Y-97583690D01*
X124712000Y-97583690D01*
X124712000Y-96715711D01*
X124829431Y-96598280D01*
X124987000Y-96217874D01*
X124987000Y-95806126D01*
X124829431Y-95425720D01*
X124538280Y-95134569D01*
X124157874Y-94977000D01*
X123746126Y-94977000D01*
X123365720Y-95134569D01*
X123074569Y-95425720D01*
X122917000Y-95806126D01*
X122917000Y-96217874D01*
X123074569Y-96598280D01*
X123192000Y-96715711D01*
X123192001Y-98114118D01*
X123060191Y-98202191D01*
X122919843Y-98412235D01*
X122870560Y-98660000D01*
X122870560Y-99460000D01*
X122919843Y-99707765D01*
X123060191Y-99917809D01*
X123208000Y-100016573D01*
X123208001Y-100808040D01*
X123158564Y-100817873D01*
X122867414Y-101012414D01*
X122672873Y-101303564D01*
X122604560Y-101646999D01*
X122604560Y-102297001D01*
X122672873Y-102640436D01*
X122867414Y-102931586D01*
X122965313Y-102997000D01*
X122867414Y-103062414D01*
X122672873Y-103353564D01*
X122604560Y-103696999D01*
X122604560Y-104294639D01*
X122197530Y-104701669D01*
X122134071Y-104744071D01*
X121966096Y-104995464D01*
X121922000Y-105217149D01*
X121922000Y-105217153D01*
X121907112Y-105292000D01*
X121922000Y-105366847D01*
X121922000Y-105655822D01*
X121611375Y-105863375D01*
X121599184Y-105881619D01*
X121590157Y-105836235D01*
X121449809Y-105626191D01*
X121239765Y-105485843D01*
X120992000Y-105436560D01*
X120902000Y-105436560D01*
X120902000Y-104707089D01*
X120913127Y-104690436D01*
X120981440Y-104347001D01*
X120981440Y-103696999D01*
X120913127Y-103353564D01*
X120718586Y-103062414D01*
X120620687Y-102997000D01*
X120718586Y-102931586D01*
X120913127Y-102640436D01*
X120981440Y-102297001D01*
X120981440Y-101646999D01*
X120913127Y-101303564D01*
X120718586Y-101012414D01*
X120427436Y-100817873D01*
X120394000Y-100811222D01*
X120394000Y-100154264D01*
X120552560Y-100048316D01*
X120552560Y-100537000D01*
X120601843Y-100784765D01*
X120742191Y-100994809D01*
X120952235Y-101135157D01*
X121200000Y-101184440D01*
X122100000Y-101184440D01*
X122347765Y-101135157D01*
X122557809Y-100994809D01*
X122698157Y-100784765D01*
X122747440Y-100537000D01*
X122747440Y-99737000D01*
X122698157Y-99489235D01*
X122557809Y-99279191D01*
X122424306Y-99189987D01*
X122459698Y-99175327D01*
X122638327Y-98996699D01*
X122735000Y-98763310D01*
X122735000Y-98522750D01*
X122576250Y-98364000D01*
X121777000Y-98364000D01*
X121777000Y-98384000D01*
X121523000Y-98384000D01*
X121523000Y-98364000D01*
X120723750Y-98364000D01*
X120638219Y-98449531D01*
X120557809Y-98329191D01*
X120347765Y-98188843D01*
X120100000Y-98139560D01*
X119200000Y-98139560D01*
X118952235Y-98188843D01*
X118742191Y-98329191D01*
X118676837Y-98427000D01*
X114741802Y-98427000D01*
X114025492Y-97710690D01*
X120565000Y-97710690D01*
X120565000Y-97951250D01*
X120723750Y-98110000D01*
X121523000Y-98110000D01*
X121523000Y-97360750D01*
X121777000Y-97360750D01*
X121777000Y-98110000D01*
X122576250Y-98110000D01*
X122735000Y-97951250D01*
X122735000Y-97710690D01*
X122638327Y-97477301D01*
X122459698Y-97298673D01*
X122226309Y-97202000D01*
X121935750Y-97202000D01*
X121777000Y-97360750D01*
X121523000Y-97360750D01*
X121364250Y-97202000D01*
X121073691Y-97202000D01*
X120840302Y-97298673D01*
X120661673Y-97477301D01*
X120565000Y-97710690D01*
X114025492Y-97710690D01*
X112266000Y-95951199D01*
X112266000Y-91381711D01*
X112383431Y-91264280D01*
X112541000Y-90883874D01*
X112541000Y-90472126D01*
X112383431Y-90091720D01*
X112092280Y-89800569D01*
X111752916Y-89660000D01*
X113032001Y-89660000D01*
X113032000Y-92260289D01*
X112914569Y-92377720D01*
X112757000Y-92758126D01*
X112757000Y-93169874D01*
X112914569Y-93550280D01*
X113205720Y-93841431D01*
X113586126Y-93999000D01*
X113997874Y-93999000D01*
X114378280Y-93841431D01*
X114669431Y-93550280D01*
X114827000Y-93169874D01*
X114827000Y-92758126D01*
X114669431Y-92377720D01*
X114552000Y-92260289D01*
X114552000Y-88983847D01*
X114566888Y-88909000D01*
X114552000Y-88834153D01*
X114552000Y-88644000D01*
X123208001Y-88644000D01*
X123208000Y-92127148D01*
X123208000Y-92768289D01*
X123090569Y-92885720D01*
X122933000Y-93266126D01*
X122933000Y-93677874D01*
X123090569Y-94058280D01*
X123381720Y-94349431D01*
X123762126Y-94507000D01*
X124173874Y-94507000D01*
X124554280Y-94349431D01*
X124845431Y-94058280D01*
X125003000Y-93677874D01*
X125003000Y-93266126D01*
X124845431Y-92885720D01*
X124728000Y-92768289D01*
X124728000Y-88644000D01*
X125909153Y-88644000D01*
X125984000Y-88658888D01*
X126058847Y-88644000D01*
X126058852Y-88644000D01*
X126280537Y-88599904D01*
X126531929Y-88431929D01*
X126574331Y-88368470D01*
X128018475Y-86924326D01*
X128027569Y-86946280D01*
X128318720Y-87237431D01*
X128699126Y-87395000D01*
X128865199Y-87395000D01*
X130685000Y-89214803D01*
X130685001Y-90459151D01*
X130670112Y-90534002D01*
X130729097Y-90830539D01*
X130846906Y-91006852D01*
X130897072Y-91081931D01*
X130960528Y-91124331D01*
X133056196Y-93220000D01*
X130243711Y-93220000D01*
X130126280Y-93102569D01*
X129745874Y-92945000D01*
X129334126Y-92945000D01*
X128953720Y-93102569D01*
X128662569Y-93393720D01*
X128505000Y-93774126D01*
X128505000Y-94185874D01*
X128662569Y-94566280D01*
X128953720Y-94857431D01*
X129334126Y-95015000D01*
X129745874Y-95015000D01*
X130126280Y-94857431D01*
X130243711Y-94740000D01*
X134816150Y-94740000D01*
X134890997Y-94754888D01*
X134965844Y-94740000D01*
X136845199Y-94740000D01*
X137945527Y-95840329D01*
X137945530Y-95840331D01*
X138919000Y-96813802D01*
X138919000Y-96979874D01*
X139076569Y-97360280D01*
X139367720Y-97651431D01*
X139748126Y-97809000D01*
X140159874Y-97809000D01*
X140540280Y-97651431D01*
X140607585Y-97584126D01*
X164827000Y-97584126D01*
X164827000Y-97995874D01*
X164984569Y-98376280D01*
X165275720Y-98667431D01*
X165656126Y-98825000D01*
X166067874Y-98825000D01*
X166448280Y-98667431D01*
X166565711Y-98550000D01*
X173032289Y-98550000D01*
X173149720Y-98667431D01*
X173530126Y-98825000D01*
X173941874Y-98825000D01*
X174322280Y-98667431D01*
X174613431Y-98376280D01*
X174771000Y-97995874D01*
X174771000Y-97584126D01*
X174613431Y-97203720D01*
X174322280Y-96912569D01*
X173941874Y-96755000D01*
X173530126Y-96755000D01*
X173149720Y-96912569D01*
X173032289Y-97030000D01*
X166565711Y-97030000D01*
X166448280Y-96912569D01*
X166067874Y-96755000D01*
X165656126Y-96755000D01*
X165275720Y-96912569D01*
X164984569Y-97203720D01*
X164827000Y-97584126D01*
X140607585Y-97584126D01*
X140831431Y-97360280D01*
X140989000Y-96979874D01*
X140989000Y-96568126D01*
X140831431Y-96187720D01*
X140540280Y-95896569D01*
X140159874Y-95739000D01*
X139993802Y-95739000D01*
X139020331Y-94765530D01*
X139020329Y-94765527D01*
X138232801Y-93978000D01*
X165666289Y-93978000D01*
X165783720Y-94095431D01*
X166164126Y-94253000D01*
X166575874Y-94253000D01*
X166956280Y-94095431D01*
X167247431Y-93804280D01*
X167405000Y-93423874D01*
X167405000Y-93012126D01*
X167384237Y-92962000D01*
X171883153Y-92962000D01*
X171958000Y-92976888D01*
X172032847Y-92962000D01*
X186998368Y-92962000D01*
X186925000Y-93139126D01*
X186925000Y-93550874D01*
X187082569Y-93931280D01*
X187373720Y-94222431D01*
X187754126Y-94380000D01*
X188165874Y-94380000D01*
X188546280Y-94222431D01*
X188837431Y-93931280D01*
X188995000Y-93550874D01*
X188995000Y-93384801D01*
X190984476Y-91395327D01*
X191047929Y-91352929D01*
X191090327Y-91289476D01*
X191090329Y-91289474D01*
X191215903Y-91101538D01*
X191215904Y-91101537D01*
X191260000Y-90879852D01*
X191260000Y-90879848D01*
X191274888Y-90805001D01*
X191260000Y-90730154D01*
X191260000Y-85799846D01*
X191274888Y-85724999D01*
X191260000Y-85650152D01*
X191260000Y-85650148D01*
X191244246Y-85570947D01*
X204930658Y-85570947D01*
X205044621Y-85850773D01*
X205699629Y-86098170D01*
X206399451Y-86076075D01*
X206943379Y-85850773D01*
X207057342Y-85570947D01*
X210010658Y-85570947D01*
X210124621Y-85850773D01*
X210779629Y-86098170D01*
X211479451Y-86076075D01*
X212023379Y-85850773D01*
X212137342Y-85570947D01*
X211074000Y-84507605D01*
X210010658Y-85570947D01*
X207057342Y-85570947D01*
X205994000Y-84507605D01*
X204930658Y-85570947D01*
X191244246Y-85570947D01*
X191215904Y-85428463D01*
X191047929Y-85177071D01*
X190984473Y-85134671D01*
X189990000Y-84140199D01*
X189990000Y-84033629D01*
X204223830Y-84033629D01*
X204245925Y-84733451D01*
X204471227Y-85277379D01*
X204751053Y-85391342D01*
X205814395Y-84328000D01*
X206173605Y-84328000D01*
X207236947Y-85391342D01*
X207516773Y-85277379D01*
X207764170Y-84622371D01*
X207745583Y-84033629D01*
X209303830Y-84033629D01*
X209325925Y-84733451D01*
X209551227Y-85277379D01*
X209831053Y-85391342D01*
X210894395Y-84328000D01*
X211253605Y-84328000D01*
X212316947Y-85391342D01*
X212596773Y-85277379D01*
X212844170Y-84622371D01*
X212822075Y-83922549D01*
X212596773Y-83378621D01*
X212316947Y-83264658D01*
X211253605Y-84328000D01*
X210894395Y-84328000D01*
X209831053Y-83264658D01*
X209551227Y-83378621D01*
X209303830Y-84033629D01*
X207745583Y-84033629D01*
X207742075Y-83922549D01*
X207516773Y-83378621D01*
X207236947Y-83264658D01*
X206173605Y-84328000D01*
X205814395Y-84328000D01*
X204751053Y-83264658D01*
X204471227Y-83378621D01*
X204223830Y-84033629D01*
X189990000Y-84033629D01*
X189990000Y-84015711D01*
X190107431Y-83898280D01*
X190265000Y-83517874D01*
X190265000Y-83106126D01*
X190256272Y-83085053D01*
X204930658Y-83085053D01*
X205994000Y-84148395D01*
X207057342Y-83085053D01*
X206943379Y-82805227D01*
X206288371Y-82557830D01*
X205588549Y-82579925D01*
X205044621Y-82805227D01*
X204930658Y-83085053D01*
X190256272Y-83085053D01*
X190107431Y-82725720D01*
X189990000Y-82608289D01*
X189990000Y-82356801D01*
X190539802Y-81807000D01*
X190705874Y-81807000D01*
X191086280Y-81649431D01*
X191277905Y-81457806D01*
X206874000Y-81457806D01*
X206874000Y-82118194D01*
X207126720Y-82728314D01*
X207593686Y-83195280D01*
X208203806Y-83448000D01*
X208864194Y-83448000D01*
X209474314Y-83195280D01*
X209584541Y-83085053D01*
X210010658Y-83085053D01*
X211074000Y-84148395D01*
X212137342Y-83085053D01*
X212023379Y-82805227D01*
X211368371Y-82557830D01*
X210668549Y-82579925D01*
X210124621Y-82805227D01*
X210010658Y-83085053D01*
X209584541Y-83085053D01*
X209941280Y-82728314D01*
X210194000Y-82118194D01*
X210194000Y-81457806D01*
X209941280Y-80847686D01*
X209584541Y-80490947D01*
X210010658Y-80490947D01*
X210124621Y-80770773D01*
X210779629Y-81018170D01*
X211479451Y-80996075D01*
X212023379Y-80770773D01*
X212137342Y-80490947D01*
X211074000Y-79427605D01*
X210010658Y-80490947D01*
X209584541Y-80490947D01*
X209474314Y-80380720D01*
X208864194Y-80128000D01*
X208203806Y-80128000D01*
X207593686Y-80380720D01*
X207126720Y-80847686D01*
X206874000Y-81457806D01*
X191277905Y-81457806D01*
X191377431Y-81358280D01*
X191535000Y-80977874D01*
X191535000Y-80566126D01*
X191503860Y-80490947D01*
X204930658Y-80490947D01*
X205044621Y-80770773D01*
X205699629Y-81018170D01*
X206399451Y-80996075D01*
X206943379Y-80770773D01*
X207057342Y-80490947D01*
X205994000Y-79427605D01*
X204930658Y-80490947D01*
X191503860Y-80490947D01*
X191377431Y-80185720D01*
X191086280Y-79894569D01*
X190705874Y-79737000D01*
X190294126Y-79737000D01*
X189913720Y-79894569D01*
X189622569Y-80185720D01*
X189465000Y-80566126D01*
X189465000Y-80732198D01*
X188745528Y-81451671D01*
X188682072Y-81494071D01*
X188639672Y-81557527D01*
X188639671Y-81557528D01*
X188604020Y-81610884D01*
X188604020Y-80059781D01*
X189290803Y-79373000D01*
X191447289Y-79373000D01*
X191564720Y-79490431D01*
X191945126Y-79648000D01*
X192356874Y-79648000D01*
X192737280Y-79490431D01*
X193028431Y-79199280D01*
X193105591Y-79013000D01*
X193499874Y-79013000D01*
X193643208Y-78953629D01*
X204223830Y-78953629D01*
X204245925Y-79653451D01*
X204471227Y-80197379D01*
X204751053Y-80311342D01*
X205814395Y-79248000D01*
X206173605Y-79248000D01*
X207236947Y-80311342D01*
X207516773Y-80197379D01*
X207764170Y-79542371D01*
X207745583Y-78953629D01*
X209303830Y-78953629D01*
X209325925Y-79653451D01*
X209551227Y-80197379D01*
X209831053Y-80311342D01*
X210894395Y-79248000D01*
X211253605Y-79248000D01*
X212316947Y-80311342D01*
X212596773Y-80197379D01*
X212844170Y-79542371D01*
X212822075Y-78842549D01*
X212596773Y-78298621D01*
X212316947Y-78184658D01*
X211253605Y-79248000D01*
X210894395Y-79248000D01*
X209831053Y-78184658D01*
X209551227Y-78298621D01*
X209303830Y-78953629D01*
X207745583Y-78953629D01*
X207742075Y-78842549D01*
X207516773Y-78298621D01*
X207236947Y-78184658D01*
X206173605Y-79248000D01*
X205814395Y-79248000D01*
X204751053Y-78184658D01*
X204471227Y-78298621D01*
X204223830Y-78953629D01*
X193643208Y-78953629D01*
X193880280Y-78855431D01*
X194051227Y-78684484D01*
X194231126Y-78759000D01*
X194642874Y-78759000D01*
X195023280Y-78601431D01*
X195314431Y-78310280D01*
X195440859Y-78005053D01*
X204930658Y-78005053D01*
X205994000Y-79068395D01*
X207057342Y-78005053D01*
X210010658Y-78005053D01*
X211074000Y-79068395D01*
X212137342Y-78005053D01*
X212023379Y-77725227D01*
X211368371Y-77477830D01*
X210668549Y-77499925D01*
X210124621Y-77725227D01*
X210010658Y-78005053D01*
X207057342Y-78005053D01*
X206943379Y-77725227D01*
X206288371Y-77477830D01*
X205588549Y-77499925D01*
X205044621Y-77725227D01*
X204930658Y-78005053D01*
X195440859Y-78005053D01*
X195472000Y-77929874D01*
X195472000Y-77518126D01*
X195314431Y-77137720D01*
X195023280Y-76846569D01*
X194642874Y-76689000D01*
X194490913Y-76689000D01*
X194476929Y-76668071D01*
X194225537Y-76500096D01*
X194003852Y-76456000D01*
X194003847Y-76456000D01*
X193929000Y-76441112D01*
X193854153Y-76456000D01*
X188415846Y-76456000D01*
X188340999Y-76441112D01*
X188266152Y-76456000D01*
X188266148Y-76456000D01*
X188044463Y-76500096D01*
X187793071Y-76668071D01*
X187750671Y-76731527D01*
X186730799Y-77751400D01*
X182218247Y-77751400D01*
X182143400Y-77736512D01*
X182068553Y-77751400D01*
X166927446Y-77751400D01*
X166852599Y-77736512D01*
X166777752Y-77751400D01*
X163524541Y-77751400D01*
X163321999Y-77711112D01*
X163119459Y-77751400D01*
X149274446Y-77751400D01*
X149199599Y-77736512D01*
X149124752Y-77751400D01*
X127080092Y-77751400D01*
X126952398Y-77726000D01*
X126877546Y-77711111D01*
X126802694Y-77726000D01*
X125296852Y-77726000D01*
X125222000Y-77711111D01*
X125147148Y-77726000D01*
X101928852Y-77726000D01*
X101854000Y-77711111D01*
X101779148Y-77726000D01*
X91889711Y-77726000D01*
X91772280Y-77608569D01*
X91391874Y-77451000D01*
X90980126Y-77451000D01*
X90599720Y-77608569D01*
X90308569Y-77899720D01*
X90151000Y-78280126D01*
X90151000Y-78691874D01*
X90308569Y-79072280D01*
X90599720Y-79363431D01*
X90980126Y-79521000D01*
X91391874Y-79521000D01*
X91772280Y-79363431D01*
X91889711Y-79246000D01*
X101094000Y-79246000D01*
X101094001Y-81008150D01*
X101079112Y-81083002D01*
X101094001Y-81157854D01*
X101132519Y-81351496D01*
X101138097Y-81379539D01*
X101257026Y-81557528D01*
X101306072Y-81630931D01*
X101369528Y-81673331D01*
X102730671Y-83034476D01*
X102773069Y-83097929D01*
X102836522Y-83140327D01*
X102836524Y-83140329D01*
X102918765Y-83195280D01*
X103024461Y-83265904D01*
X103246146Y-83310000D01*
X103246150Y-83310000D01*
X103320997Y-83324888D01*
X103395844Y-83310000D01*
X107127199Y-83310000D01*
X108460000Y-84642802D01*
X108460001Y-89841148D01*
X108445112Y-89916000D01*
X108460001Y-89990851D01*
X108460001Y-89990852D01*
X108493072Y-90157112D01*
X108504097Y-90212537D01*
X108618713Y-90384071D01*
X108672072Y-90463929D01*
X108735528Y-90506329D01*
X109391671Y-91162473D01*
X109434071Y-91225929D01*
X109497527Y-91268329D01*
X109685462Y-91393904D01*
X109703360Y-91397464D01*
X109907148Y-91438000D01*
X109907152Y-91438000D01*
X109982000Y-91452888D01*
X110056848Y-91438000D01*
X110746001Y-91438000D01*
X110746000Y-95136197D01*
X108731000Y-93121197D01*
X108731000Y-93049126D01*
X108573431Y-92668720D01*
X108282280Y-92377569D01*
X107901874Y-92220000D01*
X107490126Y-92220000D01*
X107109720Y-92377569D01*
X106818569Y-92668720D01*
X106661000Y-93049126D01*
X106661000Y-93460874D01*
X106818569Y-93841280D01*
X107109720Y-94132431D01*
X107490126Y-94290000D01*
X107750201Y-94290000D01*
X111252201Y-97792000D01*
X94802802Y-97792000D01*
X83818000Y-86807199D01*
X83818000Y-80324801D01*
X84184001Y-79958800D01*
X84184002Y-83302687D01*
X84055000Y-83614126D01*
X84055000Y-84025874D01*
X84212569Y-84406280D01*
X84503720Y-84697431D01*
X84884126Y-84855000D01*
X85295874Y-84855000D01*
X85676280Y-84697431D01*
X85967431Y-84406280D01*
X86125000Y-84025874D01*
X86125000Y-83614126D01*
X85967431Y-83233720D01*
X85704001Y-82970290D01*
X85704001Y-80537000D01*
X85803874Y-80537000D01*
X86184280Y-80379431D01*
X86475431Y-80088280D01*
X86633000Y-79707874D01*
X86633000Y-79296126D01*
X86620936Y-79267000D01*
X86819874Y-79267000D01*
X87200280Y-79109431D01*
X87491431Y-78818280D01*
X87649000Y-78437874D01*
X87649000Y-78365936D01*
X87678126Y-78378000D01*
X88089874Y-78378000D01*
X88470280Y-78220431D01*
X88761431Y-77929280D01*
X88919000Y-77548874D01*
X88919000Y-77137126D01*
X88761431Y-76756720D01*
X88470280Y-76465569D01*
X88089874Y-76308000D01*
X87678126Y-76308000D01*
X87297720Y-76465569D01*
X87180289Y-76583000D01*
X84910848Y-76583000D01*
X84836000Y-76568112D01*
X84761152Y-76583000D01*
X84761148Y-76583000D01*
X84587605Y-76617520D01*
X84539462Y-76627096D01*
X84446817Y-76689000D01*
X84288071Y-76795071D01*
X84245671Y-76858527D01*
X81557530Y-79546669D01*
X81494071Y-79589071D01*
X81326096Y-79840464D01*
X81282000Y-80062149D01*
X81282000Y-80062153D01*
X81267112Y-80137000D01*
X75676601Y-80137000D01*
X75739342Y-79982947D01*
X74676000Y-78919605D01*
X73612658Y-79982947D01*
X73186541Y-79982947D01*
X73076314Y-79872720D01*
X72466194Y-79620000D01*
X71805806Y-79620000D01*
X71195686Y-79872720D01*
X70728720Y-80339686D01*
X70476000Y-80949806D01*
X64210000Y-80949806D01*
X64210000Y-79982947D01*
X68532658Y-79982947D01*
X68646621Y-80262773D01*
X69301629Y-80510170D01*
X70001451Y-80488075D01*
X70545379Y-80262773D01*
X70659342Y-79982947D01*
X69596000Y-78919605D01*
X68532658Y-79982947D01*
X64210000Y-79982947D01*
X64210000Y-78445629D01*
X67825830Y-78445629D01*
X67847925Y-79145451D01*
X68073227Y-79689379D01*
X68353053Y-79803342D01*
X69416395Y-78740000D01*
X69775605Y-78740000D01*
X70838947Y-79803342D01*
X71118773Y-79689379D01*
X71366170Y-79034371D01*
X71347583Y-78445629D01*
X72905830Y-78445629D01*
X72927925Y-79145451D01*
X73153227Y-79689379D01*
X73433053Y-79803342D01*
X74496395Y-78740000D01*
X74855605Y-78740000D01*
X75918947Y-79803342D01*
X76198773Y-79689379D01*
X76446170Y-79034371D01*
X76424075Y-78334549D01*
X76198773Y-77790621D01*
X75918947Y-77676658D01*
X74855605Y-78740000D01*
X74496395Y-78740000D01*
X73433053Y-77676658D01*
X73153227Y-77790621D01*
X72905830Y-78445629D01*
X71347583Y-78445629D01*
X71344075Y-78334549D01*
X71118773Y-77790621D01*
X70838947Y-77676658D01*
X69775605Y-78740000D01*
X69416395Y-78740000D01*
X68353053Y-77676658D01*
X68073227Y-77790621D01*
X67825830Y-78445629D01*
X64210000Y-78445629D01*
X64210000Y-77497053D01*
X68532658Y-77497053D01*
X69596000Y-78560395D01*
X70659342Y-77497053D01*
X73612658Y-77497053D01*
X74676000Y-78560395D01*
X75739342Y-77497053D01*
X75625379Y-77217227D01*
X74970371Y-76969830D01*
X74270549Y-76991925D01*
X73726621Y-77217227D01*
X73612658Y-77497053D01*
X70659342Y-77497053D01*
X70545379Y-77217227D01*
X69890371Y-76969830D01*
X69190549Y-76991925D01*
X68646621Y-77217227D01*
X68532658Y-77497053D01*
X64210000Y-77497053D01*
X64210000Y-70560000D01*
X215190000Y-70560000D01*
X215190001Y-117400000D01*
G04 #@! TD*
M02*
