G04 #@! TF.GenerationSoftware,KiCad,Pcbnew,5.0.2-bee76a0~70~ubuntu18.04.1*
G04 #@! TF.CreationDate,2019-04-19T15:30:24+03:00*
G04 #@! TF.ProjectId,bandpass_filter_design,62616e64-7061-4737-935f-66696c746572,rev?*
G04 #@! TF.SameCoordinates,Original*
G04 #@! TF.FileFunction,Soldermask,Top*
G04 #@! TF.FilePolarity,Negative*
%FSLAX46Y46*%
G04 Gerber Fmt 4.6, Leading zero omitted, Abs format (unit mm)*
G04 Created by KiCad (PCBNEW 5.0.2-bee76a0~70~ubuntu18.04.1) date Fri 19 Apr 2019 03:30:24 PM EEST*
%MOMM*%
%LPD*%
G01*
G04 APERTURE LIST*
%ADD10C,0.100000*%
G04 APERTURE END LIST*
D10*
G36*
X132057000Y-113415000D02*
X131055000Y-113415000D01*
X131055000Y-112513000D01*
X132057000Y-112513000D01*
X132057000Y-113415000D01*
X132057000Y-113415000D01*
G37*
G36*
X127980677Y-111394465D02*
X128018364Y-111405898D01*
X128053103Y-111424466D01*
X128083548Y-111449452D01*
X128108534Y-111479897D01*
X128127102Y-111514636D01*
X128138535Y-111552323D01*
X128143000Y-111597661D01*
X128143000Y-112684339D01*
X128138535Y-112729677D01*
X128127102Y-112767364D01*
X128108534Y-112802103D01*
X128083548Y-112832548D01*
X128053103Y-112857534D01*
X128018364Y-112876102D01*
X127980677Y-112887535D01*
X127935339Y-112892000D01*
X127098661Y-112892000D01*
X127053323Y-112887535D01*
X127015636Y-112876102D01*
X126980897Y-112857534D01*
X126950452Y-112832548D01*
X126925466Y-112802103D01*
X126906898Y-112767364D01*
X126895465Y-112729677D01*
X126891000Y-112684339D01*
X126891000Y-111597661D01*
X126895465Y-111552323D01*
X126906898Y-111514636D01*
X126925466Y-111479897D01*
X126950452Y-111449452D01*
X126980897Y-111424466D01*
X127015636Y-111405898D01*
X127053323Y-111394465D01*
X127098661Y-111390000D01*
X127935339Y-111390000D01*
X127980677Y-111394465D01*
X127980677Y-111394465D01*
G37*
G36*
X125930677Y-111394465D02*
X125968364Y-111405898D01*
X126003103Y-111424466D01*
X126033548Y-111449452D01*
X126058534Y-111479897D01*
X126077102Y-111514636D01*
X126088535Y-111552323D01*
X126093000Y-111597661D01*
X126093000Y-112684339D01*
X126088535Y-112729677D01*
X126077102Y-112767364D01*
X126058534Y-112802103D01*
X126033548Y-112832548D01*
X126003103Y-112857534D01*
X125968364Y-112876102D01*
X125930677Y-112887535D01*
X125885339Y-112892000D01*
X125048661Y-112892000D01*
X125003323Y-112887535D01*
X124965636Y-112876102D01*
X124930897Y-112857534D01*
X124900452Y-112832548D01*
X124875466Y-112802103D01*
X124856898Y-112767364D01*
X124845465Y-112729677D01*
X124841000Y-112684339D01*
X124841000Y-111597661D01*
X124845465Y-111552323D01*
X124856898Y-111514636D01*
X124875466Y-111479897D01*
X124900452Y-111449452D01*
X124930897Y-111424466D01*
X124965636Y-111405898D01*
X125003323Y-111394465D01*
X125048661Y-111390000D01*
X125885339Y-111390000D01*
X125930677Y-111394465D01*
X125930677Y-111394465D01*
G37*
G36*
X130057000Y-112465000D02*
X129055000Y-112465000D01*
X129055000Y-111563000D01*
X130057000Y-111563000D01*
X130057000Y-112465000D01*
X130057000Y-112465000D01*
G37*
G36*
X132057000Y-111515000D02*
X131055000Y-111515000D01*
X131055000Y-110613000D01*
X132057000Y-110613000D01*
X132057000Y-111515000D01*
X132057000Y-111515000D01*
G37*
G36*
X127872443Y-106039519D02*
X127938627Y-106046037D01*
X128051853Y-106080384D01*
X128108467Y-106097557D01*
X128247087Y-106171652D01*
X128264991Y-106181222D01*
X128300729Y-106210552D01*
X128402186Y-106293814D01*
X128485448Y-106395271D01*
X128514778Y-106431009D01*
X128514779Y-106431011D01*
X128598443Y-106587533D01*
X128598443Y-106587534D01*
X128649963Y-106757373D01*
X128667359Y-106934000D01*
X128649963Y-107110627D01*
X128615616Y-107223853D01*
X128598443Y-107280467D01*
X128524348Y-107419087D01*
X128514778Y-107436991D01*
X128485448Y-107472729D01*
X128402186Y-107574186D01*
X128300729Y-107657448D01*
X128264991Y-107686778D01*
X128264989Y-107686779D01*
X128108467Y-107770443D01*
X128051853Y-107787616D01*
X127938627Y-107821963D01*
X127872443Y-107828481D01*
X127806260Y-107835000D01*
X127717740Y-107835000D01*
X127651557Y-107828481D01*
X127585373Y-107821963D01*
X127472147Y-107787616D01*
X127415533Y-107770443D01*
X127259011Y-107686779D01*
X127259009Y-107686778D01*
X127223271Y-107657448D01*
X127121814Y-107574186D01*
X127038552Y-107472729D01*
X127009222Y-107436991D01*
X126999652Y-107419087D01*
X126925557Y-107280467D01*
X126908384Y-107223853D01*
X126874037Y-107110627D01*
X126856641Y-106934000D01*
X126874037Y-106757373D01*
X126925557Y-106587534D01*
X126925557Y-106587533D01*
X127009221Y-106431011D01*
X127009222Y-106431009D01*
X127038552Y-106395271D01*
X127121814Y-106293814D01*
X127223271Y-106210552D01*
X127259009Y-106181222D01*
X127276913Y-106171652D01*
X127415533Y-106097557D01*
X127472147Y-106080384D01*
X127585373Y-106046037D01*
X127651557Y-106039519D01*
X127717740Y-106033000D01*
X127806260Y-106033000D01*
X127872443Y-106039519D01*
X127872443Y-106039519D01*
G37*
G36*
X140572443Y-106039519D02*
X140638627Y-106046037D01*
X140751853Y-106080384D01*
X140808467Y-106097557D01*
X140947087Y-106171652D01*
X140964991Y-106181222D01*
X141000729Y-106210552D01*
X141102186Y-106293814D01*
X141185448Y-106395271D01*
X141214778Y-106431009D01*
X141214779Y-106431011D01*
X141298443Y-106587533D01*
X141298443Y-106587534D01*
X141349963Y-106757373D01*
X141367359Y-106934000D01*
X141349963Y-107110627D01*
X141315616Y-107223853D01*
X141298443Y-107280467D01*
X141224348Y-107419087D01*
X141214778Y-107436991D01*
X141185448Y-107472729D01*
X141102186Y-107574186D01*
X141000729Y-107657448D01*
X140964991Y-107686778D01*
X140964989Y-107686779D01*
X140808467Y-107770443D01*
X140751853Y-107787616D01*
X140638627Y-107821963D01*
X140572443Y-107828481D01*
X140506260Y-107835000D01*
X140417740Y-107835000D01*
X140351557Y-107828481D01*
X140285373Y-107821963D01*
X140172147Y-107787616D01*
X140115533Y-107770443D01*
X139959011Y-107686779D01*
X139959009Y-107686778D01*
X139923271Y-107657448D01*
X139821814Y-107574186D01*
X139738552Y-107472729D01*
X139709222Y-107436991D01*
X139699652Y-107419087D01*
X139625557Y-107280467D01*
X139608384Y-107223853D01*
X139574037Y-107110627D01*
X139556641Y-106934000D01*
X139574037Y-106757373D01*
X139625557Y-106587534D01*
X139625557Y-106587533D01*
X139709221Y-106431011D01*
X139709222Y-106431009D01*
X139738552Y-106395271D01*
X139821814Y-106293814D01*
X139923271Y-106210552D01*
X139959009Y-106181222D01*
X139976913Y-106171652D01*
X140115533Y-106097557D01*
X140172147Y-106080384D01*
X140285373Y-106046037D01*
X140351557Y-106039519D01*
X140417740Y-106033000D01*
X140506260Y-106033000D01*
X140572443Y-106039519D01*
X140572443Y-106039519D01*
G37*
G36*
X138032443Y-106039519D02*
X138098627Y-106046037D01*
X138211853Y-106080384D01*
X138268467Y-106097557D01*
X138407087Y-106171652D01*
X138424991Y-106181222D01*
X138460729Y-106210552D01*
X138562186Y-106293814D01*
X138645448Y-106395271D01*
X138674778Y-106431009D01*
X138674779Y-106431011D01*
X138758443Y-106587533D01*
X138758443Y-106587534D01*
X138809963Y-106757373D01*
X138827359Y-106934000D01*
X138809963Y-107110627D01*
X138775616Y-107223853D01*
X138758443Y-107280467D01*
X138684348Y-107419087D01*
X138674778Y-107436991D01*
X138645448Y-107472729D01*
X138562186Y-107574186D01*
X138460729Y-107657448D01*
X138424991Y-107686778D01*
X138424989Y-107686779D01*
X138268467Y-107770443D01*
X138211853Y-107787616D01*
X138098627Y-107821963D01*
X138032443Y-107828481D01*
X137966260Y-107835000D01*
X137877740Y-107835000D01*
X137811557Y-107828481D01*
X137745373Y-107821963D01*
X137632147Y-107787616D01*
X137575533Y-107770443D01*
X137419011Y-107686779D01*
X137419009Y-107686778D01*
X137383271Y-107657448D01*
X137281814Y-107574186D01*
X137198552Y-107472729D01*
X137169222Y-107436991D01*
X137159652Y-107419087D01*
X137085557Y-107280467D01*
X137068384Y-107223853D01*
X137034037Y-107110627D01*
X137016641Y-106934000D01*
X137034037Y-106757373D01*
X137085557Y-106587534D01*
X137085557Y-106587533D01*
X137169221Y-106431011D01*
X137169222Y-106431009D01*
X137198552Y-106395271D01*
X137281814Y-106293814D01*
X137383271Y-106210552D01*
X137419009Y-106181222D01*
X137436913Y-106171652D01*
X137575533Y-106097557D01*
X137632147Y-106080384D01*
X137745373Y-106046037D01*
X137811557Y-106039519D01*
X137877740Y-106033000D01*
X137966260Y-106033000D01*
X138032443Y-106039519D01*
X138032443Y-106039519D01*
G37*
G36*
X135492443Y-106039519D02*
X135558627Y-106046037D01*
X135671853Y-106080384D01*
X135728467Y-106097557D01*
X135867087Y-106171652D01*
X135884991Y-106181222D01*
X135920729Y-106210552D01*
X136022186Y-106293814D01*
X136105448Y-106395271D01*
X136134778Y-106431009D01*
X136134779Y-106431011D01*
X136218443Y-106587533D01*
X136218443Y-106587534D01*
X136269963Y-106757373D01*
X136287359Y-106934000D01*
X136269963Y-107110627D01*
X136235616Y-107223853D01*
X136218443Y-107280467D01*
X136144348Y-107419087D01*
X136134778Y-107436991D01*
X136105448Y-107472729D01*
X136022186Y-107574186D01*
X135920729Y-107657448D01*
X135884991Y-107686778D01*
X135884989Y-107686779D01*
X135728467Y-107770443D01*
X135671853Y-107787616D01*
X135558627Y-107821963D01*
X135492443Y-107828481D01*
X135426260Y-107835000D01*
X135337740Y-107835000D01*
X135271557Y-107828481D01*
X135205373Y-107821963D01*
X135092147Y-107787616D01*
X135035533Y-107770443D01*
X134879011Y-107686779D01*
X134879009Y-107686778D01*
X134843271Y-107657448D01*
X134741814Y-107574186D01*
X134658552Y-107472729D01*
X134629222Y-107436991D01*
X134619652Y-107419087D01*
X134545557Y-107280467D01*
X134528384Y-107223853D01*
X134494037Y-107110627D01*
X134476641Y-106934000D01*
X134494037Y-106757373D01*
X134545557Y-106587534D01*
X134545557Y-106587533D01*
X134629221Y-106431011D01*
X134629222Y-106431009D01*
X134658552Y-106395271D01*
X134741814Y-106293814D01*
X134843271Y-106210552D01*
X134879009Y-106181222D01*
X134896913Y-106171652D01*
X135035533Y-106097557D01*
X135092147Y-106080384D01*
X135205373Y-106046037D01*
X135271557Y-106039519D01*
X135337740Y-106033000D01*
X135426260Y-106033000D01*
X135492443Y-106039519D01*
X135492443Y-106039519D01*
G37*
G36*
X132952443Y-106039519D02*
X133018627Y-106046037D01*
X133131853Y-106080384D01*
X133188467Y-106097557D01*
X133327087Y-106171652D01*
X133344991Y-106181222D01*
X133380729Y-106210552D01*
X133482186Y-106293814D01*
X133565448Y-106395271D01*
X133594778Y-106431009D01*
X133594779Y-106431011D01*
X133678443Y-106587533D01*
X133678443Y-106587534D01*
X133729963Y-106757373D01*
X133747359Y-106934000D01*
X133729963Y-107110627D01*
X133695616Y-107223853D01*
X133678443Y-107280467D01*
X133604348Y-107419087D01*
X133594778Y-107436991D01*
X133565448Y-107472729D01*
X133482186Y-107574186D01*
X133380729Y-107657448D01*
X133344991Y-107686778D01*
X133344989Y-107686779D01*
X133188467Y-107770443D01*
X133131853Y-107787616D01*
X133018627Y-107821963D01*
X132952443Y-107828481D01*
X132886260Y-107835000D01*
X132797740Y-107835000D01*
X132731557Y-107828481D01*
X132665373Y-107821963D01*
X132552147Y-107787616D01*
X132495533Y-107770443D01*
X132339011Y-107686779D01*
X132339009Y-107686778D01*
X132303271Y-107657448D01*
X132201814Y-107574186D01*
X132118552Y-107472729D01*
X132089222Y-107436991D01*
X132079652Y-107419087D01*
X132005557Y-107280467D01*
X131988384Y-107223853D01*
X131954037Y-107110627D01*
X131936641Y-106934000D01*
X131954037Y-106757373D01*
X132005557Y-106587534D01*
X132005557Y-106587533D01*
X132089221Y-106431011D01*
X132089222Y-106431009D01*
X132118552Y-106395271D01*
X132201814Y-106293814D01*
X132303271Y-106210552D01*
X132339009Y-106181222D01*
X132356913Y-106171652D01*
X132495533Y-106097557D01*
X132552147Y-106080384D01*
X132665373Y-106046037D01*
X132731557Y-106039519D01*
X132797740Y-106033000D01*
X132886260Y-106033000D01*
X132952443Y-106039519D01*
X132952443Y-106039519D01*
G37*
G36*
X130412443Y-106039519D02*
X130478627Y-106046037D01*
X130591853Y-106080384D01*
X130648467Y-106097557D01*
X130787087Y-106171652D01*
X130804991Y-106181222D01*
X130840729Y-106210552D01*
X130942186Y-106293814D01*
X131025448Y-106395271D01*
X131054778Y-106431009D01*
X131054779Y-106431011D01*
X131138443Y-106587533D01*
X131138443Y-106587534D01*
X131189963Y-106757373D01*
X131207359Y-106934000D01*
X131189963Y-107110627D01*
X131155616Y-107223853D01*
X131138443Y-107280467D01*
X131064348Y-107419087D01*
X131054778Y-107436991D01*
X131025448Y-107472729D01*
X130942186Y-107574186D01*
X130840729Y-107657448D01*
X130804991Y-107686778D01*
X130804989Y-107686779D01*
X130648467Y-107770443D01*
X130591853Y-107787616D01*
X130478627Y-107821963D01*
X130412443Y-107828481D01*
X130346260Y-107835000D01*
X130257740Y-107835000D01*
X130191557Y-107828481D01*
X130125373Y-107821963D01*
X130012147Y-107787616D01*
X129955533Y-107770443D01*
X129799011Y-107686779D01*
X129799009Y-107686778D01*
X129763271Y-107657448D01*
X129661814Y-107574186D01*
X129578552Y-107472729D01*
X129549222Y-107436991D01*
X129539652Y-107419087D01*
X129465557Y-107280467D01*
X129448384Y-107223853D01*
X129414037Y-107110627D01*
X129396641Y-106934000D01*
X129414037Y-106757373D01*
X129465557Y-106587534D01*
X129465557Y-106587533D01*
X129549221Y-106431011D01*
X129549222Y-106431009D01*
X129578552Y-106395271D01*
X129661814Y-106293814D01*
X129763271Y-106210552D01*
X129799009Y-106181222D01*
X129816913Y-106171652D01*
X129955533Y-106097557D01*
X130012147Y-106080384D01*
X130125373Y-106046037D01*
X130191557Y-106039519D01*
X130257740Y-106033000D01*
X130346260Y-106033000D01*
X130412443Y-106039519D01*
X130412443Y-106039519D01*
G37*
G36*
X125332443Y-106039519D02*
X125398627Y-106046037D01*
X125511853Y-106080384D01*
X125568467Y-106097557D01*
X125707087Y-106171652D01*
X125724991Y-106181222D01*
X125760729Y-106210552D01*
X125862186Y-106293814D01*
X125945448Y-106395271D01*
X125974778Y-106431009D01*
X125974779Y-106431011D01*
X126058443Y-106587533D01*
X126058443Y-106587534D01*
X126109963Y-106757373D01*
X126127359Y-106934000D01*
X126109963Y-107110627D01*
X126075616Y-107223853D01*
X126058443Y-107280467D01*
X125984348Y-107419087D01*
X125974778Y-107436991D01*
X125945448Y-107472729D01*
X125862186Y-107574186D01*
X125760729Y-107657448D01*
X125724991Y-107686778D01*
X125724989Y-107686779D01*
X125568467Y-107770443D01*
X125511853Y-107787616D01*
X125398627Y-107821963D01*
X125332443Y-107828481D01*
X125266260Y-107835000D01*
X125177740Y-107835000D01*
X125111557Y-107828481D01*
X125045373Y-107821963D01*
X124932147Y-107787616D01*
X124875533Y-107770443D01*
X124719011Y-107686779D01*
X124719009Y-107686778D01*
X124683271Y-107657448D01*
X124581814Y-107574186D01*
X124498552Y-107472729D01*
X124469222Y-107436991D01*
X124459652Y-107419087D01*
X124385557Y-107280467D01*
X124368384Y-107223853D01*
X124334037Y-107110627D01*
X124316641Y-106934000D01*
X124334037Y-106757373D01*
X124385557Y-106587534D01*
X124385557Y-106587533D01*
X124469221Y-106431011D01*
X124469222Y-106431009D01*
X124498552Y-106395271D01*
X124581814Y-106293814D01*
X124683271Y-106210552D01*
X124719009Y-106181222D01*
X124736913Y-106171652D01*
X124875533Y-106097557D01*
X124932147Y-106080384D01*
X125045373Y-106046037D01*
X125111557Y-106039519D01*
X125177740Y-106033000D01*
X125266260Y-106033000D01*
X125332443Y-106039519D01*
X125332443Y-106039519D01*
G37*
G36*
X122792443Y-106039519D02*
X122858627Y-106046037D01*
X122971853Y-106080384D01*
X123028467Y-106097557D01*
X123167087Y-106171652D01*
X123184991Y-106181222D01*
X123220729Y-106210552D01*
X123322186Y-106293814D01*
X123405448Y-106395271D01*
X123434778Y-106431009D01*
X123434779Y-106431011D01*
X123518443Y-106587533D01*
X123518443Y-106587534D01*
X123569963Y-106757373D01*
X123587359Y-106934000D01*
X123569963Y-107110627D01*
X123535616Y-107223853D01*
X123518443Y-107280467D01*
X123444348Y-107419087D01*
X123434778Y-107436991D01*
X123405448Y-107472729D01*
X123322186Y-107574186D01*
X123220729Y-107657448D01*
X123184991Y-107686778D01*
X123184989Y-107686779D01*
X123028467Y-107770443D01*
X122971853Y-107787616D01*
X122858627Y-107821963D01*
X122792443Y-107828481D01*
X122726260Y-107835000D01*
X122637740Y-107835000D01*
X122571557Y-107828481D01*
X122505373Y-107821963D01*
X122392147Y-107787616D01*
X122335533Y-107770443D01*
X122179011Y-107686779D01*
X122179009Y-107686778D01*
X122143271Y-107657448D01*
X122041814Y-107574186D01*
X121958552Y-107472729D01*
X121929222Y-107436991D01*
X121919652Y-107419087D01*
X121845557Y-107280467D01*
X121828384Y-107223853D01*
X121794037Y-107110627D01*
X121776641Y-106934000D01*
X121794037Y-106757373D01*
X121845557Y-106587534D01*
X121845557Y-106587533D01*
X121929221Y-106431011D01*
X121929222Y-106431009D01*
X121958552Y-106395271D01*
X122041814Y-106293814D01*
X122143271Y-106210552D01*
X122179009Y-106181222D01*
X122196913Y-106171652D01*
X122335533Y-106097557D01*
X122392147Y-106080384D01*
X122505373Y-106046037D01*
X122571557Y-106039519D01*
X122637740Y-106033000D01*
X122726260Y-106033000D01*
X122792443Y-106039519D01*
X122792443Y-106039519D01*
G37*
G36*
X121043000Y-107835000D02*
X119241000Y-107835000D01*
X119241000Y-106033000D01*
X121043000Y-106033000D01*
X121043000Y-107835000D01*
X121043000Y-107835000D01*
G37*
G36*
X208610442Y-99645518D02*
X208676627Y-99652037D01*
X208789853Y-99686384D01*
X208846467Y-99703557D01*
X208985087Y-99777652D01*
X209002991Y-99787222D01*
X209038729Y-99816552D01*
X209140186Y-99899814D01*
X209223448Y-100001271D01*
X209252778Y-100037009D01*
X209252779Y-100037011D01*
X209336443Y-100193533D01*
X209336443Y-100193534D01*
X209387963Y-100363373D01*
X209405359Y-100540000D01*
X209387963Y-100716627D01*
X209366777Y-100786467D01*
X209336443Y-100886467D01*
X209306231Y-100942989D01*
X209252778Y-101042991D01*
X209223448Y-101078729D01*
X209140186Y-101180186D01*
X209038729Y-101263448D01*
X209002991Y-101292778D01*
X209002989Y-101292779D01*
X208846467Y-101376443D01*
X208789853Y-101393616D01*
X208676627Y-101427963D01*
X208610442Y-101434482D01*
X208544260Y-101441000D01*
X208455740Y-101441000D01*
X208389558Y-101434482D01*
X208323373Y-101427963D01*
X208210147Y-101393616D01*
X208153533Y-101376443D01*
X207997011Y-101292779D01*
X207997009Y-101292778D01*
X207961271Y-101263448D01*
X207859814Y-101180186D01*
X207776552Y-101078729D01*
X207747222Y-101042991D01*
X207693769Y-100942989D01*
X207663557Y-100886467D01*
X207633223Y-100786467D01*
X207612037Y-100716627D01*
X207594641Y-100540000D01*
X207612037Y-100363373D01*
X207663557Y-100193534D01*
X207663557Y-100193533D01*
X207747221Y-100037011D01*
X207747222Y-100037009D01*
X207776552Y-100001271D01*
X207859814Y-99899814D01*
X207961271Y-99816552D01*
X207997009Y-99787222D01*
X208014913Y-99777652D01*
X208153533Y-99703557D01*
X208210147Y-99686384D01*
X208323373Y-99652037D01*
X208389558Y-99645518D01*
X208455740Y-99639000D01*
X208544260Y-99639000D01*
X208610442Y-99645518D01*
X208610442Y-99645518D01*
G37*
G36*
X72210443Y-99545519D02*
X72276627Y-99552037D01*
X72389853Y-99586384D01*
X72446467Y-99603557D01*
X72512775Y-99639000D01*
X72602991Y-99687222D01*
X72622895Y-99703557D01*
X72740186Y-99799814D01*
X72822253Y-99899814D01*
X72852778Y-99937009D01*
X72852779Y-99937011D01*
X72936443Y-100093533D01*
X72936443Y-100093534D01*
X72987963Y-100263373D01*
X73005359Y-100440000D01*
X72987963Y-100616627D01*
X72957629Y-100716625D01*
X72936443Y-100786467D01*
X72882991Y-100886467D01*
X72852778Y-100942991D01*
X72823448Y-100978729D01*
X72740186Y-101080186D01*
X72638729Y-101163448D01*
X72602991Y-101192778D01*
X72602989Y-101192779D01*
X72446467Y-101276443D01*
X72392617Y-101292778D01*
X72276627Y-101327963D01*
X72210443Y-101334481D01*
X72144260Y-101341000D01*
X72055740Y-101341000D01*
X71989557Y-101334481D01*
X71923373Y-101327963D01*
X71807383Y-101292778D01*
X71753533Y-101276443D01*
X71597011Y-101192779D01*
X71597009Y-101192778D01*
X71561271Y-101163448D01*
X71459814Y-101080186D01*
X71376552Y-100978729D01*
X71347222Y-100942991D01*
X71317009Y-100886467D01*
X71263557Y-100786467D01*
X71242371Y-100716625D01*
X71212037Y-100616627D01*
X71194641Y-100440000D01*
X71212037Y-100263373D01*
X71263557Y-100093534D01*
X71263557Y-100093533D01*
X71347221Y-99937011D01*
X71347222Y-99937009D01*
X71377747Y-99899814D01*
X71459814Y-99799814D01*
X71577105Y-99703557D01*
X71597009Y-99687222D01*
X71687225Y-99639000D01*
X71753533Y-99603557D01*
X71810147Y-99586384D01*
X71923373Y-99552037D01*
X71989557Y-99545519D01*
X72055740Y-99539000D01*
X72144260Y-99539000D01*
X72210443Y-99545519D01*
X72210443Y-99545519D01*
G37*
G36*
X209401000Y-98901000D02*
X207599000Y-98901000D01*
X207599000Y-97099000D01*
X209401000Y-97099000D01*
X209401000Y-98901000D01*
X209401000Y-98901000D01*
G37*
G36*
X73001000Y-98801000D02*
X71199000Y-98801000D01*
X71199000Y-96999000D01*
X73001000Y-96999000D01*
X73001000Y-98801000D01*
X73001000Y-98801000D01*
G37*
G36*
X142957677Y-91201465D02*
X142995364Y-91212898D01*
X143030103Y-91231466D01*
X143060548Y-91256452D01*
X143085534Y-91286897D01*
X143104102Y-91321636D01*
X143115535Y-91359323D01*
X143120000Y-91404661D01*
X143120000Y-92491339D01*
X143115535Y-92536677D01*
X143104102Y-92574364D01*
X143085534Y-92609103D01*
X143060548Y-92639548D01*
X143030103Y-92664534D01*
X142995364Y-92683102D01*
X142957677Y-92694535D01*
X142912339Y-92699000D01*
X142075661Y-92699000D01*
X142030323Y-92694535D01*
X141992636Y-92683102D01*
X141957897Y-92664534D01*
X141927452Y-92639548D01*
X141902466Y-92609103D01*
X141883898Y-92574364D01*
X141872465Y-92536677D01*
X141868000Y-92491339D01*
X141868000Y-91404661D01*
X141872465Y-91359323D01*
X141883898Y-91321636D01*
X141902466Y-91286897D01*
X141927452Y-91256452D01*
X141957897Y-91231466D01*
X141992636Y-91212898D01*
X142030323Y-91201465D01*
X142075661Y-91197000D01*
X142912339Y-91197000D01*
X142957677Y-91201465D01*
X142957677Y-91201465D01*
G37*
G36*
X109193677Y-91201465D02*
X109231364Y-91212898D01*
X109266103Y-91231466D01*
X109296548Y-91256452D01*
X109321534Y-91286897D01*
X109340102Y-91321636D01*
X109351535Y-91359323D01*
X109356000Y-91404661D01*
X109356000Y-92491339D01*
X109351535Y-92536677D01*
X109340102Y-92574364D01*
X109321534Y-92609103D01*
X109296548Y-92639548D01*
X109266103Y-92664534D01*
X109231364Y-92683102D01*
X109193677Y-92694535D01*
X109148339Y-92699000D01*
X108311661Y-92699000D01*
X108266323Y-92694535D01*
X108228636Y-92683102D01*
X108193897Y-92664534D01*
X108163452Y-92639548D01*
X108138466Y-92609103D01*
X108119898Y-92574364D01*
X108108465Y-92536677D01*
X108104000Y-92491339D01*
X108104000Y-91404661D01*
X108108465Y-91359323D01*
X108119898Y-91321636D01*
X108138466Y-91286897D01*
X108163452Y-91256452D01*
X108193897Y-91231466D01*
X108228636Y-91212898D01*
X108266323Y-91201465D01*
X108311661Y-91197000D01*
X109148339Y-91197000D01*
X109193677Y-91201465D01*
X109193677Y-91201465D01*
G37*
G36*
X107143677Y-91201465D02*
X107181364Y-91212898D01*
X107216103Y-91231466D01*
X107246548Y-91256452D01*
X107271534Y-91286897D01*
X107290102Y-91321636D01*
X107301535Y-91359323D01*
X107306000Y-91404661D01*
X107306000Y-92491339D01*
X107301535Y-92536677D01*
X107290102Y-92574364D01*
X107271534Y-92609103D01*
X107246548Y-92639548D01*
X107216103Y-92664534D01*
X107181364Y-92683102D01*
X107143677Y-92694535D01*
X107098339Y-92699000D01*
X106261661Y-92699000D01*
X106216323Y-92694535D01*
X106178636Y-92683102D01*
X106143897Y-92664534D01*
X106113452Y-92639548D01*
X106088466Y-92609103D01*
X106069898Y-92574364D01*
X106058465Y-92536677D01*
X106054000Y-92491339D01*
X106054000Y-91404661D01*
X106058465Y-91359323D01*
X106069898Y-91321636D01*
X106088466Y-91286897D01*
X106113452Y-91256452D01*
X106143897Y-91231466D01*
X106178636Y-91212898D01*
X106216323Y-91201465D01*
X106261661Y-91197000D01*
X107098339Y-91197000D01*
X107143677Y-91201465D01*
X107143677Y-91201465D01*
G37*
G36*
X145007677Y-91201465D02*
X145045364Y-91212898D01*
X145080103Y-91231466D01*
X145110548Y-91256452D01*
X145135534Y-91286897D01*
X145154102Y-91321636D01*
X145165535Y-91359323D01*
X145170000Y-91404661D01*
X145170000Y-92491339D01*
X145165535Y-92536677D01*
X145154102Y-92574364D01*
X145135534Y-92609103D01*
X145110548Y-92639548D01*
X145080103Y-92664534D01*
X145045364Y-92683102D01*
X145007677Y-92694535D01*
X144962339Y-92699000D01*
X144125661Y-92699000D01*
X144080323Y-92694535D01*
X144042636Y-92683102D01*
X144007897Y-92664534D01*
X143977452Y-92639548D01*
X143952466Y-92609103D01*
X143933898Y-92574364D01*
X143922465Y-92536677D01*
X143918000Y-92491339D01*
X143918000Y-91404661D01*
X143922465Y-91359323D01*
X143933898Y-91321636D01*
X143952466Y-91286897D01*
X143977452Y-91256452D01*
X144007897Y-91231466D01*
X144042636Y-91212898D01*
X144080323Y-91201465D01*
X144125661Y-91197000D01*
X144962339Y-91197000D01*
X145007677Y-91201465D01*
X145007677Y-91201465D01*
G37*
G36*
X183343677Y-91201465D02*
X183381364Y-91212898D01*
X183416103Y-91231466D01*
X183446548Y-91256452D01*
X183471534Y-91286897D01*
X183490102Y-91321636D01*
X183501535Y-91359323D01*
X183506000Y-91404661D01*
X183506000Y-92491339D01*
X183501535Y-92536677D01*
X183490102Y-92574364D01*
X183471534Y-92609103D01*
X183446548Y-92639548D01*
X183416103Y-92664534D01*
X183381364Y-92683102D01*
X183343677Y-92694535D01*
X183298339Y-92699000D01*
X182461661Y-92699000D01*
X182416323Y-92694535D01*
X182378636Y-92683102D01*
X182343897Y-92664534D01*
X182313452Y-92639548D01*
X182288466Y-92609103D01*
X182269898Y-92574364D01*
X182258465Y-92536677D01*
X182254000Y-92491339D01*
X182254000Y-91404661D01*
X182258465Y-91359323D01*
X182269898Y-91321636D01*
X182288466Y-91286897D01*
X182313452Y-91256452D01*
X182343897Y-91231466D01*
X182378636Y-91212898D01*
X182416323Y-91201465D01*
X182461661Y-91197000D01*
X183298339Y-91197000D01*
X183343677Y-91201465D01*
X183343677Y-91201465D01*
G37*
G36*
X185393677Y-91201465D02*
X185431364Y-91212898D01*
X185466103Y-91231466D01*
X185496548Y-91256452D01*
X185521534Y-91286897D01*
X185540102Y-91321636D01*
X185551535Y-91359323D01*
X185556000Y-91404661D01*
X185556000Y-92491339D01*
X185551535Y-92536677D01*
X185540102Y-92574364D01*
X185521534Y-92609103D01*
X185496548Y-92639548D01*
X185466103Y-92664534D01*
X185431364Y-92683102D01*
X185393677Y-92694535D01*
X185348339Y-92699000D01*
X184511661Y-92699000D01*
X184466323Y-92694535D01*
X184428636Y-92683102D01*
X184393897Y-92664534D01*
X184363452Y-92639548D01*
X184338466Y-92609103D01*
X184319898Y-92574364D01*
X184308465Y-92536677D01*
X184304000Y-92491339D01*
X184304000Y-91404661D01*
X184308465Y-91359323D01*
X184319898Y-91321636D01*
X184338466Y-91286897D01*
X184363452Y-91256452D01*
X184393897Y-91231466D01*
X184428636Y-91212898D01*
X184466323Y-91201465D01*
X184511661Y-91197000D01*
X185348339Y-91197000D01*
X185393677Y-91201465D01*
X185393677Y-91201465D01*
G37*
G36*
X104220677Y-88296465D02*
X104258364Y-88307898D01*
X104293103Y-88326466D01*
X104323548Y-88351452D01*
X104348534Y-88381897D01*
X104367102Y-88416636D01*
X104378535Y-88454323D01*
X104383000Y-88499661D01*
X104383000Y-89336339D01*
X104378535Y-89381677D01*
X104367102Y-89419364D01*
X104348534Y-89454103D01*
X104323548Y-89484548D01*
X104293103Y-89509534D01*
X104258364Y-89528102D01*
X104220677Y-89539535D01*
X104175339Y-89544000D01*
X103088661Y-89544000D01*
X103043323Y-89539535D01*
X103005636Y-89528102D01*
X102970897Y-89509534D01*
X102940452Y-89484548D01*
X102915466Y-89454103D01*
X102896898Y-89419364D01*
X102885465Y-89381677D01*
X102881000Y-89336339D01*
X102881000Y-88499661D01*
X102885465Y-88454323D01*
X102896898Y-88416636D01*
X102915466Y-88381897D01*
X102940452Y-88351452D01*
X102970897Y-88326466D01*
X103005636Y-88307898D01*
X103043323Y-88296465D01*
X103088661Y-88292000D01*
X104175339Y-88292000D01*
X104220677Y-88296465D01*
X104220677Y-88296465D01*
G37*
G36*
X100664677Y-88296465D02*
X100702364Y-88307898D01*
X100737103Y-88326466D01*
X100767548Y-88351452D01*
X100792534Y-88381897D01*
X100811102Y-88416636D01*
X100822535Y-88454323D01*
X100827000Y-88499661D01*
X100827000Y-89336339D01*
X100822535Y-89381677D01*
X100811102Y-89419364D01*
X100792534Y-89454103D01*
X100767548Y-89484548D01*
X100737103Y-89509534D01*
X100702364Y-89528102D01*
X100664677Y-89539535D01*
X100619339Y-89544000D01*
X99532661Y-89544000D01*
X99487323Y-89539535D01*
X99449636Y-89528102D01*
X99414897Y-89509534D01*
X99384452Y-89484548D01*
X99359466Y-89454103D01*
X99340898Y-89419364D01*
X99329465Y-89381677D01*
X99325000Y-89336339D01*
X99325000Y-88499661D01*
X99329465Y-88454323D01*
X99340898Y-88416636D01*
X99359466Y-88381897D01*
X99384452Y-88351452D01*
X99414897Y-88326466D01*
X99449636Y-88307898D01*
X99487323Y-88296465D01*
X99532661Y-88292000D01*
X100619339Y-88292000D01*
X100664677Y-88296465D01*
X100664677Y-88296465D01*
G37*
G36*
X137748677Y-88287465D02*
X137786364Y-88298898D01*
X137821103Y-88317466D01*
X137851548Y-88342452D01*
X137876534Y-88372897D01*
X137895102Y-88407636D01*
X137906535Y-88445323D01*
X137911000Y-88490661D01*
X137911000Y-89327339D01*
X137906535Y-89372677D01*
X137895102Y-89410364D01*
X137876534Y-89445103D01*
X137851548Y-89475548D01*
X137821103Y-89500534D01*
X137786364Y-89519102D01*
X137748677Y-89530535D01*
X137703339Y-89535000D01*
X136616661Y-89535000D01*
X136571323Y-89530535D01*
X136533636Y-89519102D01*
X136498897Y-89500534D01*
X136468452Y-89475548D01*
X136443466Y-89445103D01*
X136424898Y-89410364D01*
X136413465Y-89372677D01*
X136409000Y-89327339D01*
X136409000Y-88490661D01*
X136413465Y-88445323D01*
X136424898Y-88407636D01*
X136443466Y-88372897D01*
X136468452Y-88342452D01*
X136498897Y-88317466D01*
X136533636Y-88298898D01*
X136571323Y-88287465D01*
X136616661Y-88283000D01*
X137703339Y-88283000D01*
X137748677Y-88287465D01*
X137748677Y-88287465D01*
G37*
G36*
X176356677Y-88278465D02*
X176394364Y-88289898D01*
X176429103Y-88308466D01*
X176459548Y-88333452D01*
X176484534Y-88363897D01*
X176503102Y-88398636D01*
X176514535Y-88436323D01*
X176519000Y-88481661D01*
X176519000Y-89318339D01*
X176514535Y-89363677D01*
X176503102Y-89401364D01*
X176484534Y-89436103D01*
X176459548Y-89466548D01*
X176429103Y-89491534D01*
X176394364Y-89510102D01*
X176356677Y-89521535D01*
X176311339Y-89526000D01*
X175224661Y-89526000D01*
X175179323Y-89521535D01*
X175141636Y-89510102D01*
X175106897Y-89491534D01*
X175076452Y-89466548D01*
X175051466Y-89436103D01*
X175032898Y-89401364D01*
X175021465Y-89363677D01*
X175017000Y-89318339D01*
X175017000Y-88481661D01*
X175021465Y-88436323D01*
X175032898Y-88398636D01*
X175051466Y-88363897D01*
X175076452Y-88333452D01*
X175106897Y-88308466D01*
X175141636Y-88289898D01*
X175179323Y-88278465D01*
X175224661Y-88274000D01*
X176311339Y-88274000D01*
X176356677Y-88278465D01*
X176356677Y-88278465D01*
G37*
G36*
X179912677Y-88278465D02*
X179950364Y-88289898D01*
X179985103Y-88308466D01*
X180015548Y-88333452D01*
X180040534Y-88363897D01*
X180059102Y-88398636D01*
X180070535Y-88436323D01*
X180075000Y-88481661D01*
X180075000Y-89318339D01*
X180070535Y-89363677D01*
X180059102Y-89401364D01*
X180040534Y-89436103D01*
X180015548Y-89466548D01*
X179985103Y-89491534D01*
X179950364Y-89510102D01*
X179912677Y-89521535D01*
X179867339Y-89526000D01*
X178780661Y-89526000D01*
X178735323Y-89521535D01*
X178697636Y-89510102D01*
X178662897Y-89491534D01*
X178632452Y-89466548D01*
X178607466Y-89436103D01*
X178588898Y-89401364D01*
X178577465Y-89363677D01*
X178573000Y-89318339D01*
X178573000Y-88481661D01*
X178577465Y-88436323D01*
X178588898Y-88398636D01*
X178607466Y-88363897D01*
X178632452Y-88333452D01*
X178662897Y-88308466D01*
X178697636Y-88289898D01*
X178735323Y-88278465D01*
X178780661Y-88274000D01*
X179867339Y-88274000D01*
X179912677Y-88278465D01*
X179912677Y-88278465D01*
G37*
G36*
X145640000Y-89185000D02*
X144488000Y-89185000D01*
X144488000Y-86583000D01*
X145640000Y-86583000D01*
X145640000Y-89185000D01*
X145640000Y-89185000D01*
G37*
G36*
X183172000Y-89185000D02*
X182020000Y-89185000D01*
X182020000Y-86583000D01*
X183172000Y-86583000D01*
X183172000Y-89185000D01*
X183172000Y-89185000D01*
G37*
G36*
X143040000Y-89185000D02*
X141888000Y-89185000D01*
X141888000Y-86583000D01*
X143040000Y-86583000D01*
X143040000Y-89185000D01*
X143040000Y-89185000D01*
G37*
G36*
X185772000Y-89185000D02*
X184620000Y-89185000D01*
X184620000Y-86583000D01*
X185772000Y-86583000D01*
X185772000Y-89185000D01*
X185772000Y-89185000D01*
G37*
G36*
X107256000Y-89119000D02*
X106104000Y-89119000D01*
X106104000Y-86517000D01*
X107256000Y-86517000D01*
X107256000Y-89119000D01*
X107256000Y-89119000D01*
G37*
G36*
X109856000Y-89119000D02*
X108704000Y-89119000D01*
X108704000Y-86517000D01*
X109856000Y-86517000D01*
X109856000Y-89119000D01*
X109856000Y-89119000D01*
G37*
G36*
X131853938Y-88025716D02*
X131874556Y-88031970D01*
X131893556Y-88042126D01*
X131910208Y-88055792D01*
X131923874Y-88072444D01*
X131934030Y-88091444D01*
X131940284Y-88112062D01*
X131943000Y-88139640D01*
X131943000Y-88598360D01*
X131940284Y-88625938D01*
X131934030Y-88646556D01*
X131923874Y-88665556D01*
X131910208Y-88682208D01*
X131893556Y-88695874D01*
X131874556Y-88706030D01*
X131853938Y-88712284D01*
X131826360Y-88715000D01*
X131317640Y-88715000D01*
X131290062Y-88712284D01*
X131269444Y-88706030D01*
X131250444Y-88695874D01*
X131233792Y-88682208D01*
X131220126Y-88665556D01*
X131209970Y-88646556D01*
X131203716Y-88625938D01*
X131201000Y-88598360D01*
X131201000Y-88139640D01*
X131203716Y-88112062D01*
X131209970Y-88091444D01*
X131220126Y-88072444D01*
X131233792Y-88055792D01*
X131250444Y-88042126D01*
X131269444Y-88031970D01*
X131290062Y-88025716D01*
X131317640Y-88023000D01*
X131826360Y-88023000D01*
X131853938Y-88025716D01*
X131853938Y-88025716D01*
G37*
G36*
X172747938Y-87912716D02*
X172768556Y-87918970D01*
X172787556Y-87929126D01*
X172804208Y-87942792D01*
X172817874Y-87959444D01*
X172828030Y-87978444D01*
X172834284Y-87999062D01*
X172837000Y-88026640D01*
X172837000Y-88485360D01*
X172834284Y-88512938D01*
X172828030Y-88533556D01*
X172817874Y-88552556D01*
X172804208Y-88569208D01*
X172787556Y-88582874D01*
X172768556Y-88593030D01*
X172747938Y-88599284D01*
X172720360Y-88602000D01*
X172211640Y-88602000D01*
X172184062Y-88599284D01*
X172163444Y-88593030D01*
X172144444Y-88582874D01*
X172127792Y-88569208D01*
X172114126Y-88552556D01*
X172103970Y-88533556D01*
X172097716Y-88512938D01*
X172095000Y-88485360D01*
X172095000Y-88026640D01*
X172097716Y-87999062D01*
X172103970Y-87978444D01*
X172114126Y-87959444D01*
X172127792Y-87942792D01*
X172144444Y-87929126D01*
X172163444Y-87918970D01*
X172184062Y-87912716D01*
X172211640Y-87910000D01*
X172720360Y-87910000D01*
X172747938Y-87912716D01*
X172747938Y-87912716D01*
G37*
G36*
X95785938Y-87884716D02*
X95806556Y-87890970D01*
X95825556Y-87901126D01*
X95842208Y-87914792D01*
X95855874Y-87931444D01*
X95866030Y-87950444D01*
X95872284Y-87971062D01*
X95875000Y-87998640D01*
X95875000Y-88457360D01*
X95872284Y-88484938D01*
X95866030Y-88505556D01*
X95855874Y-88524556D01*
X95842208Y-88541208D01*
X95825556Y-88554874D01*
X95806556Y-88565030D01*
X95785938Y-88571284D01*
X95758360Y-88574000D01*
X95249640Y-88574000D01*
X95222062Y-88571284D01*
X95201444Y-88565030D01*
X95182444Y-88554874D01*
X95165792Y-88541208D01*
X95152126Y-88524556D01*
X95141970Y-88505556D01*
X95135716Y-88484938D01*
X95133000Y-88457360D01*
X95133000Y-87998640D01*
X95135716Y-87971062D01*
X95141970Y-87950444D01*
X95152126Y-87931444D01*
X95165792Y-87914792D01*
X95182444Y-87901126D01*
X95201444Y-87890970D01*
X95222062Y-87884716D01*
X95249640Y-87882000D01*
X95758360Y-87882000D01*
X95785938Y-87884716D01*
X95785938Y-87884716D01*
G37*
G36*
X131853938Y-87055716D02*
X131874556Y-87061970D01*
X131893556Y-87072126D01*
X131910208Y-87085792D01*
X131923874Y-87102444D01*
X131934030Y-87121444D01*
X131940284Y-87142062D01*
X131943000Y-87169640D01*
X131943000Y-87628360D01*
X131940284Y-87655938D01*
X131934030Y-87676556D01*
X131923874Y-87695556D01*
X131910208Y-87712208D01*
X131893556Y-87725874D01*
X131874556Y-87736030D01*
X131853938Y-87742284D01*
X131826360Y-87745000D01*
X131317640Y-87745000D01*
X131290062Y-87742284D01*
X131269444Y-87736030D01*
X131250444Y-87725874D01*
X131233792Y-87712208D01*
X131220126Y-87695556D01*
X131209970Y-87676556D01*
X131203716Y-87655938D01*
X131201000Y-87628360D01*
X131201000Y-87169640D01*
X131203716Y-87142062D01*
X131209970Y-87121444D01*
X131220126Y-87102444D01*
X131233792Y-87085792D01*
X131250444Y-87072126D01*
X131269444Y-87061970D01*
X131290062Y-87055716D01*
X131317640Y-87053000D01*
X131826360Y-87053000D01*
X131853938Y-87055716D01*
X131853938Y-87055716D01*
G37*
G36*
X172747938Y-86942716D02*
X172768556Y-86948970D01*
X172787556Y-86959126D01*
X172804208Y-86972792D01*
X172817874Y-86989444D01*
X172828030Y-87008444D01*
X172834284Y-87029062D01*
X172837000Y-87056640D01*
X172837000Y-87515360D01*
X172834284Y-87542938D01*
X172828030Y-87563556D01*
X172817874Y-87582556D01*
X172804208Y-87599208D01*
X172787556Y-87612874D01*
X172768556Y-87623030D01*
X172747938Y-87629284D01*
X172720360Y-87632000D01*
X172211640Y-87632000D01*
X172184062Y-87629284D01*
X172163444Y-87623030D01*
X172144444Y-87612874D01*
X172127792Y-87599208D01*
X172114126Y-87582556D01*
X172103970Y-87563556D01*
X172097716Y-87542938D01*
X172095000Y-87515360D01*
X172095000Y-87056640D01*
X172097716Y-87029062D01*
X172103970Y-87008444D01*
X172114126Y-86989444D01*
X172127792Y-86972792D01*
X172144444Y-86959126D01*
X172163444Y-86948970D01*
X172184062Y-86942716D01*
X172211640Y-86940000D01*
X172720360Y-86940000D01*
X172747938Y-86942716D01*
X172747938Y-86942716D01*
G37*
G36*
X95785938Y-86914716D02*
X95806556Y-86920970D01*
X95825556Y-86931126D01*
X95842208Y-86944792D01*
X95855874Y-86961444D01*
X95866030Y-86980444D01*
X95872284Y-87001062D01*
X95875000Y-87028640D01*
X95875000Y-87487360D01*
X95872284Y-87514938D01*
X95866030Y-87535556D01*
X95855874Y-87554556D01*
X95842208Y-87571208D01*
X95825556Y-87584874D01*
X95806556Y-87595030D01*
X95785938Y-87601284D01*
X95758360Y-87604000D01*
X95249640Y-87604000D01*
X95222062Y-87601284D01*
X95201444Y-87595030D01*
X95182444Y-87584874D01*
X95165792Y-87571208D01*
X95152126Y-87554556D01*
X95141970Y-87535556D01*
X95135716Y-87514938D01*
X95133000Y-87487360D01*
X95133000Y-87028640D01*
X95135716Y-87001062D01*
X95141970Y-86980444D01*
X95152126Y-86961444D01*
X95165792Y-86944792D01*
X95182444Y-86931126D01*
X95201444Y-86920970D01*
X95222062Y-86914716D01*
X95249640Y-86912000D01*
X95758360Y-86912000D01*
X95785938Y-86914716D01*
X95785938Y-86914716D01*
G37*
G36*
X104220677Y-86246465D02*
X104258364Y-86257898D01*
X104293103Y-86276466D01*
X104323548Y-86301452D01*
X104348534Y-86331897D01*
X104367102Y-86366636D01*
X104378535Y-86404323D01*
X104383000Y-86449661D01*
X104383000Y-87286339D01*
X104378535Y-87331677D01*
X104367102Y-87369364D01*
X104348534Y-87404103D01*
X104323548Y-87434548D01*
X104293103Y-87459534D01*
X104258364Y-87478102D01*
X104220677Y-87489535D01*
X104175339Y-87494000D01*
X103088661Y-87494000D01*
X103043323Y-87489535D01*
X103005636Y-87478102D01*
X102970897Y-87459534D01*
X102940452Y-87434548D01*
X102915466Y-87404103D01*
X102896898Y-87369364D01*
X102885465Y-87331677D01*
X102881000Y-87286339D01*
X102881000Y-86449661D01*
X102885465Y-86404323D01*
X102896898Y-86366636D01*
X102915466Y-86331897D01*
X102940452Y-86301452D01*
X102970897Y-86276466D01*
X103005636Y-86257898D01*
X103043323Y-86246465D01*
X103088661Y-86242000D01*
X104175339Y-86242000D01*
X104220677Y-86246465D01*
X104220677Y-86246465D01*
G37*
G36*
X100664677Y-86246465D02*
X100702364Y-86257898D01*
X100737103Y-86276466D01*
X100767548Y-86301452D01*
X100792534Y-86331897D01*
X100811102Y-86366636D01*
X100822535Y-86404323D01*
X100827000Y-86449661D01*
X100827000Y-87286339D01*
X100822535Y-87331677D01*
X100811102Y-87369364D01*
X100792534Y-87404103D01*
X100767548Y-87434548D01*
X100737103Y-87459534D01*
X100702364Y-87478102D01*
X100664677Y-87489535D01*
X100619339Y-87494000D01*
X99532661Y-87494000D01*
X99487323Y-87489535D01*
X99449636Y-87478102D01*
X99414897Y-87459534D01*
X99384452Y-87434548D01*
X99359466Y-87404103D01*
X99340898Y-87369364D01*
X99329465Y-87331677D01*
X99325000Y-87286339D01*
X99325000Y-86449661D01*
X99329465Y-86404323D01*
X99340898Y-86366636D01*
X99359466Y-86331897D01*
X99384452Y-86301452D01*
X99414897Y-86276466D01*
X99449636Y-86257898D01*
X99487323Y-86246465D01*
X99532661Y-86242000D01*
X100619339Y-86242000D01*
X100664677Y-86246465D01*
X100664677Y-86246465D01*
G37*
G36*
X137748677Y-86237465D02*
X137786364Y-86248898D01*
X137821103Y-86267466D01*
X137851548Y-86292452D01*
X137876534Y-86322897D01*
X137895102Y-86357636D01*
X137906535Y-86395323D01*
X137911000Y-86440661D01*
X137911000Y-87277339D01*
X137906535Y-87322677D01*
X137895102Y-87360364D01*
X137876534Y-87395103D01*
X137851548Y-87425548D01*
X137821103Y-87450534D01*
X137786364Y-87469102D01*
X137748677Y-87480535D01*
X137703339Y-87485000D01*
X136616661Y-87485000D01*
X136571323Y-87480535D01*
X136533636Y-87469102D01*
X136498897Y-87450534D01*
X136468452Y-87425548D01*
X136443466Y-87395103D01*
X136424898Y-87360364D01*
X136413465Y-87322677D01*
X136409000Y-87277339D01*
X136409000Y-86440661D01*
X136413465Y-86395323D01*
X136424898Y-86357636D01*
X136443466Y-86322897D01*
X136468452Y-86292452D01*
X136498897Y-86267466D01*
X136533636Y-86248898D01*
X136571323Y-86237465D01*
X136616661Y-86233000D01*
X137703339Y-86233000D01*
X137748677Y-86237465D01*
X137748677Y-86237465D01*
G37*
G36*
X176356677Y-86228465D02*
X176394364Y-86239898D01*
X176429103Y-86258466D01*
X176459548Y-86283452D01*
X176484534Y-86313897D01*
X176503102Y-86348636D01*
X176514535Y-86386323D01*
X176519000Y-86431661D01*
X176519000Y-87268339D01*
X176514535Y-87313677D01*
X176503102Y-87351364D01*
X176484534Y-87386103D01*
X176459548Y-87416548D01*
X176429103Y-87441534D01*
X176394364Y-87460102D01*
X176356677Y-87471535D01*
X176311339Y-87476000D01*
X175224661Y-87476000D01*
X175179323Y-87471535D01*
X175141636Y-87460102D01*
X175106897Y-87441534D01*
X175076452Y-87416548D01*
X175051466Y-87386103D01*
X175032898Y-87351364D01*
X175021465Y-87313677D01*
X175017000Y-87268339D01*
X175017000Y-86431661D01*
X175021465Y-86386323D01*
X175032898Y-86348636D01*
X175051466Y-86313897D01*
X175076452Y-86283452D01*
X175106897Y-86258466D01*
X175141636Y-86239898D01*
X175179323Y-86228465D01*
X175224661Y-86224000D01*
X176311339Y-86224000D01*
X176356677Y-86228465D01*
X176356677Y-86228465D01*
G37*
G36*
X179912677Y-86228465D02*
X179950364Y-86239898D01*
X179985103Y-86258466D01*
X180015548Y-86283452D01*
X180040534Y-86313897D01*
X180059102Y-86348636D01*
X180070535Y-86386323D01*
X180075000Y-86431661D01*
X180075000Y-87268339D01*
X180070535Y-87313677D01*
X180059102Y-87351364D01*
X180040534Y-87386103D01*
X180015548Y-87416548D01*
X179985103Y-87441534D01*
X179950364Y-87460102D01*
X179912677Y-87471535D01*
X179867339Y-87476000D01*
X178780661Y-87476000D01*
X178735323Y-87471535D01*
X178697636Y-87460102D01*
X178662897Y-87441534D01*
X178632452Y-87416548D01*
X178607466Y-87386103D01*
X178588898Y-87351364D01*
X178577465Y-87313677D01*
X178573000Y-87268339D01*
X178573000Y-86431661D01*
X178577465Y-86386323D01*
X178588898Y-86348636D01*
X178607466Y-86313897D01*
X178632452Y-86283452D01*
X178662897Y-86258466D01*
X178697636Y-86239898D01*
X178735323Y-86228465D01*
X178780661Y-86224000D01*
X179867339Y-86224000D01*
X179912677Y-86228465D01*
X179912677Y-86228465D01*
G37*
G36*
X198855677Y-84597465D02*
X198893364Y-84608898D01*
X198928103Y-84627466D01*
X198958548Y-84652452D01*
X198983534Y-84682897D01*
X199002102Y-84717636D01*
X199013535Y-84755323D01*
X199018000Y-84800661D01*
X199018000Y-85887339D01*
X199013535Y-85932677D01*
X199002102Y-85970364D01*
X198983534Y-86005103D01*
X198958548Y-86035548D01*
X198928103Y-86060534D01*
X198893364Y-86079102D01*
X198855677Y-86090535D01*
X198810339Y-86095000D01*
X197973661Y-86095000D01*
X197928323Y-86090535D01*
X197890636Y-86079102D01*
X197855897Y-86060534D01*
X197825452Y-86035548D01*
X197800466Y-86005103D01*
X197781898Y-85970364D01*
X197770465Y-85932677D01*
X197766000Y-85887339D01*
X197766000Y-84800661D01*
X197770465Y-84755323D01*
X197781898Y-84717636D01*
X197800466Y-84682897D01*
X197825452Y-84652452D01*
X197855897Y-84627466D01*
X197890636Y-84608898D01*
X197928323Y-84597465D01*
X197973661Y-84593000D01*
X198810339Y-84593000D01*
X198855677Y-84597465D01*
X198855677Y-84597465D01*
G37*
G36*
X194672077Y-84597465D02*
X194709764Y-84608898D01*
X194744503Y-84627466D01*
X194774948Y-84652452D01*
X194799934Y-84682897D01*
X194818502Y-84717636D01*
X194829935Y-84755323D01*
X194834400Y-84800661D01*
X194834400Y-85887339D01*
X194829935Y-85932677D01*
X194818502Y-85970364D01*
X194799934Y-86005103D01*
X194774948Y-86035548D01*
X194744503Y-86060534D01*
X194709764Y-86079102D01*
X194672077Y-86090535D01*
X194626739Y-86095000D01*
X193790061Y-86095000D01*
X193744723Y-86090535D01*
X193707036Y-86079102D01*
X193672297Y-86060534D01*
X193641852Y-86035548D01*
X193616866Y-86005103D01*
X193598298Y-85970364D01*
X193586865Y-85932677D01*
X193582400Y-85887339D01*
X193582400Y-84800661D01*
X193586865Y-84755323D01*
X193598298Y-84717636D01*
X193616866Y-84682897D01*
X193641852Y-84652452D01*
X193672297Y-84627466D01*
X193707036Y-84608898D01*
X193744723Y-84597465D01*
X193790061Y-84593000D01*
X194626739Y-84593000D01*
X194672077Y-84597465D01*
X194672077Y-84597465D01*
G37*
G36*
X192622077Y-84597465D02*
X192659764Y-84608898D01*
X192694503Y-84627466D01*
X192724948Y-84652452D01*
X192749934Y-84682897D01*
X192768502Y-84717636D01*
X192779935Y-84755323D01*
X192784400Y-84800661D01*
X192784400Y-85887339D01*
X192779935Y-85932677D01*
X192768502Y-85970364D01*
X192749934Y-86005103D01*
X192724948Y-86035548D01*
X192694503Y-86060534D01*
X192659764Y-86079102D01*
X192622077Y-86090535D01*
X192576739Y-86095000D01*
X191740061Y-86095000D01*
X191694723Y-86090535D01*
X191657036Y-86079102D01*
X191622297Y-86060534D01*
X191591852Y-86035548D01*
X191566866Y-86005103D01*
X191548298Y-85970364D01*
X191536865Y-85932677D01*
X191532400Y-85887339D01*
X191532400Y-84800661D01*
X191536865Y-84755323D01*
X191548298Y-84717636D01*
X191566866Y-84682897D01*
X191591852Y-84652452D01*
X191622297Y-84627466D01*
X191657036Y-84608898D01*
X191694723Y-84597465D01*
X191740061Y-84593000D01*
X192576739Y-84593000D01*
X192622077Y-84597465D01*
X192622077Y-84597465D01*
G37*
G36*
X196805677Y-84597465D02*
X196843364Y-84608898D01*
X196878103Y-84627466D01*
X196908548Y-84652452D01*
X196933534Y-84682897D01*
X196952102Y-84717636D01*
X196963535Y-84755323D01*
X196968000Y-84800661D01*
X196968000Y-85887339D01*
X196963535Y-85932677D01*
X196952102Y-85970364D01*
X196933534Y-86005103D01*
X196908548Y-86035548D01*
X196878103Y-86060534D01*
X196843364Y-86079102D01*
X196805677Y-86090535D01*
X196760339Y-86095000D01*
X195923661Y-86095000D01*
X195878323Y-86090535D01*
X195840636Y-86079102D01*
X195805897Y-86060534D01*
X195775452Y-86035548D01*
X195750466Y-86005103D01*
X195731898Y-85970364D01*
X195720465Y-85932677D01*
X195716000Y-85887339D01*
X195716000Y-84800661D01*
X195720465Y-84755323D01*
X195731898Y-84717636D01*
X195750466Y-84682897D01*
X195775452Y-84652452D01*
X195805897Y-84627466D01*
X195840636Y-84608898D01*
X195878323Y-84597465D01*
X195923661Y-84593000D01*
X196760339Y-84593000D01*
X196805677Y-84597465D01*
X196805677Y-84597465D01*
G37*
G36*
X211296909Y-83173300D02*
X211417027Y-83197193D01*
X211631045Y-83285842D01*
X211737742Y-83357135D01*
X211823659Y-83414543D01*
X211987457Y-83578341D01*
X211987459Y-83578344D01*
X212116158Y-83770955D01*
X212184450Y-83935827D01*
X212204807Y-83984974D01*
X212250000Y-84212173D01*
X212250000Y-84443827D01*
X212231559Y-84536534D01*
X212204807Y-84671027D01*
X212116158Y-84885045D01*
X212072217Y-84950807D01*
X211987457Y-85077659D01*
X211823659Y-85241457D01*
X211823656Y-85241459D01*
X211631045Y-85370158D01*
X211417027Y-85458807D01*
X211303427Y-85481403D01*
X211189827Y-85504000D01*
X210958173Y-85504000D01*
X210844573Y-85481403D01*
X210730973Y-85458807D01*
X210516955Y-85370158D01*
X210324344Y-85241459D01*
X210324341Y-85241457D01*
X210160543Y-85077659D01*
X210075783Y-84950807D01*
X210031842Y-84885045D01*
X209943193Y-84671027D01*
X209916441Y-84536534D01*
X209898000Y-84443827D01*
X209898000Y-84212173D01*
X209943193Y-83984974D01*
X209963550Y-83935827D01*
X210031842Y-83770955D01*
X210160541Y-83578344D01*
X210160543Y-83578341D01*
X210324341Y-83414543D01*
X210410258Y-83357135D01*
X210516955Y-83285842D01*
X210730973Y-83197193D01*
X210851091Y-83173300D01*
X210958173Y-83152000D01*
X211189827Y-83152000D01*
X211296909Y-83173300D01*
X211296909Y-83173300D01*
G37*
G36*
X206216909Y-83173300D02*
X206337027Y-83197193D01*
X206551045Y-83285842D01*
X206657742Y-83357135D01*
X206743659Y-83414543D01*
X206907457Y-83578341D01*
X206907459Y-83578344D01*
X207036158Y-83770955D01*
X207104450Y-83935827D01*
X207124807Y-83984974D01*
X207170000Y-84212173D01*
X207170000Y-84443827D01*
X207151559Y-84536534D01*
X207124807Y-84671027D01*
X207036158Y-84885045D01*
X206992217Y-84950807D01*
X206907457Y-85077659D01*
X206743659Y-85241457D01*
X206743656Y-85241459D01*
X206551045Y-85370158D01*
X206337027Y-85458807D01*
X206223427Y-85481403D01*
X206109827Y-85504000D01*
X205878173Y-85504000D01*
X205764573Y-85481403D01*
X205650973Y-85458807D01*
X205436955Y-85370158D01*
X205244344Y-85241459D01*
X205244341Y-85241457D01*
X205080543Y-85077659D01*
X204995783Y-84950807D01*
X204951842Y-84885045D01*
X204863193Y-84671027D01*
X204836441Y-84536534D01*
X204818000Y-84443827D01*
X204818000Y-84212173D01*
X204863193Y-83984974D01*
X204883550Y-83935827D01*
X204951842Y-83770955D01*
X205080541Y-83578344D01*
X205080543Y-83578341D01*
X205244341Y-83414543D01*
X205330258Y-83357135D01*
X205436955Y-83285842D01*
X205650973Y-83197193D01*
X205771091Y-83173300D01*
X205878173Y-83152000D01*
X206109827Y-83152000D01*
X206216909Y-83173300D01*
X206216909Y-83173300D01*
G37*
G36*
X69792183Y-82659984D02*
X69939027Y-82689193D01*
X70153045Y-82777842D01*
X70265565Y-82853026D01*
X70345659Y-82906543D01*
X70509457Y-83070341D01*
X70509459Y-83070344D01*
X70638158Y-83262955D01*
X70726807Y-83476973D01*
X70772000Y-83704174D01*
X70772000Y-83935826D01*
X70726807Y-84163027D01*
X70638158Y-84377045D01*
X70539210Y-84525131D01*
X70509457Y-84569659D01*
X70345659Y-84733457D01*
X70345656Y-84733459D01*
X70153045Y-84862158D01*
X69939027Y-84950807D01*
X69825426Y-84973404D01*
X69711827Y-84996000D01*
X69480173Y-84996000D01*
X69366574Y-84973404D01*
X69252973Y-84950807D01*
X69038955Y-84862158D01*
X68846344Y-84733459D01*
X68846341Y-84733457D01*
X68682543Y-84569659D01*
X68652790Y-84525131D01*
X68553842Y-84377045D01*
X68465193Y-84163027D01*
X68420000Y-83935826D01*
X68420000Y-83704174D01*
X68465193Y-83476973D01*
X68553842Y-83262955D01*
X68682541Y-83070344D01*
X68682543Y-83070341D01*
X68846341Y-82906543D01*
X68926435Y-82853026D01*
X69038955Y-82777842D01*
X69252973Y-82689193D01*
X69399817Y-82659984D01*
X69480173Y-82644000D01*
X69711827Y-82644000D01*
X69792183Y-82659984D01*
X69792183Y-82659984D01*
G37*
G36*
X74872183Y-82659984D02*
X75019027Y-82689193D01*
X75233045Y-82777842D01*
X75345565Y-82853026D01*
X75425659Y-82906543D01*
X75589457Y-83070341D01*
X75589459Y-83070344D01*
X75718158Y-83262955D01*
X75806807Y-83476973D01*
X75852000Y-83704174D01*
X75852000Y-83935826D01*
X75806807Y-84163027D01*
X75718158Y-84377045D01*
X75619210Y-84525131D01*
X75589457Y-84569659D01*
X75425659Y-84733457D01*
X75425656Y-84733459D01*
X75233045Y-84862158D01*
X75019027Y-84950807D01*
X74905426Y-84973404D01*
X74791827Y-84996000D01*
X74560173Y-84996000D01*
X74446574Y-84973404D01*
X74332973Y-84950807D01*
X74118955Y-84862158D01*
X73926344Y-84733459D01*
X73926341Y-84733457D01*
X73762543Y-84569659D01*
X73732790Y-84525131D01*
X73633842Y-84377045D01*
X73545193Y-84163027D01*
X73500000Y-83935826D01*
X73500000Y-83704174D01*
X73545193Y-83476973D01*
X73633842Y-83262955D01*
X73762541Y-83070344D01*
X73762543Y-83070341D01*
X73926341Y-82906543D01*
X74006435Y-82853026D01*
X74118955Y-82777842D01*
X74332973Y-82689193D01*
X74479817Y-82659984D01*
X74560173Y-82644000D01*
X74791827Y-82644000D01*
X74872183Y-82659984D01*
X74872183Y-82659984D01*
G37*
G36*
X87830677Y-83073465D02*
X87868364Y-83084898D01*
X87903103Y-83103466D01*
X87933548Y-83128452D01*
X87958534Y-83158897D01*
X87977102Y-83193636D01*
X87988535Y-83231323D01*
X87993000Y-83276661D01*
X87993000Y-84363339D01*
X87988535Y-84408677D01*
X87977102Y-84446364D01*
X87958534Y-84481103D01*
X87933548Y-84511548D01*
X87903103Y-84536534D01*
X87868364Y-84555102D01*
X87830677Y-84566535D01*
X87785339Y-84571000D01*
X86948661Y-84571000D01*
X86903323Y-84566535D01*
X86865636Y-84555102D01*
X86830897Y-84536534D01*
X86800452Y-84511548D01*
X86775466Y-84481103D01*
X86756898Y-84446364D01*
X86745465Y-84408677D01*
X86741000Y-84363339D01*
X86741000Y-83276661D01*
X86745465Y-83231323D01*
X86756898Y-83193636D01*
X86775466Y-83158897D01*
X86800452Y-83128452D01*
X86830897Y-83103466D01*
X86865636Y-83084898D01*
X86903323Y-83073465D01*
X86948661Y-83069000D01*
X87785339Y-83069000D01*
X87830677Y-83073465D01*
X87830677Y-83073465D01*
G37*
G36*
X91885677Y-83073465D02*
X91923364Y-83084898D01*
X91958103Y-83103466D01*
X91988548Y-83128452D01*
X92013534Y-83158897D01*
X92032102Y-83193636D01*
X92043535Y-83231323D01*
X92048000Y-83276661D01*
X92048000Y-84363339D01*
X92043535Y-84408677D01*
X92032102Y-84446364D01*
X92013534Y-84481103D01*
X91988548Y-84511548D01*
X91958103Y-84536534D01*
X91923364Y-84555102D01*
X91885677Y-84566535D01*
X91840339Y-84571000D01*
X91003661Y-84571000D01*
X90958323Y-84566535D01*
X90920636Y-84555102D01*
X90885897Y-84536534D01*
X90855452Y-84511548D01*
X90830466Y-84481103D01*
X90811898Y-84446364D01*
X90800465Y-84408677D01*
X90796000Y-84363339D01*
X90796000Y-83276661D01*
X90800465Y-83231323D01*
X90811898Y-83193636D01*
X90830466Y-83158897D01*
X90855452Y-83128452D01*
X90885897Y-83103466D01*
X90920636Y-83084898D01*
X90958323Y-83073465D01*
X91003661Y-83069000D01*
X91840339Y-83069000D01*
X91885677Y-83073465D01*
X91885677Y-83073465D01*
G37*
G36*
X93935677Y-83073465D02*
X93973364Y-83084898D01*
X94008103Y-83103466D01*
X94038548Y-83128452D01*
X94063534Y-83158897D01*
X94082102Y-83193636D01*
X94093535Y-83231323D01*
X94098000Y-83276661D01*
X94098000Y-84363339D01*
X94093535Y-84408677D01*
X94082102Y-84446364D01*
X94063534Y-84481103D01*
X94038548Y-84511548D01*
X94008103Y-84536534D01*
X93973364Y-84555102D01*
X93935677Y-84566535D01*
X93890339Y-84571000D01*
X93053661Y-84571000D01*
X93008323Y-84566535D01*
X92970636Y-84555102D01*
X92935897Y-84536534D01*
X92905452Y-84511548D01*
X92880466Y-84481103D01*
X92861898Y-84446364D01*
X92850465Y-84408677D01*
X92846000Y-84363339D01*
X92846000Y-83276661D01*
X92850465Y-83231323D01*
X92861898Y-83193636D01*
X92880466Y-83158897D01*
X92905452Y-83128452D01*
X92935897Y-83103466D01*
X92970636Y-83084898D01*
X93008323Y-83073465D01*
X93053661Y-83069000D01*
X93890339Y-83069000D01*
X93935677Y-83073465D01*
X93935677Y-83073465D01*
G37*
G36*
X89880677Y-83073465D02*
X89918364Y-83084898D01*
X89953103Y-83103466D01*
X89983548Y-83128452D01*
X90008534Y-83158897D01*
X90027102Y-83193636D01*
X90038535Y-83231323D01*
X90043000Y-83276661D01*
X90043000Y-84363339D01*
X90038535Y-84408677D01*
X90027102Y-84446364D01*
X90008534Y-84481103D01*
X89983548Y-84511548D01*
X89953103Y-84536534D01*
X89918364Y-84555102D01*
X89880677Y-84566535D01*
X89835339Y-84571000D01*
X88998661Y-84571000D01*
X88953323Y-84566535D01*
X88915636Y-84555102D01*
X88880897Y-84536534D01*
X88850452Y-84511548D01*
X88825466Y-84481103D01*
X88806898Y-84446364D01*
X88795465Y-84408677D01*
X88791000Y-84363339D01*
X88791000Y-83276661D01*
X88795465Y-83231323D01*
X88806898Y-83193636D01*
X88825466Y-83158897D01*
X88850452Y-83128452D01*
X88880897Y-83103466D01*
X88915636Y-83084898D01*
X88953323Y-83073465D01*
X88998661Y-83069000D01*
X89835339Y-83069000D01*
X89880677Y-83073465D01*
X89880677Y-83073465D01*
G37*
G36*
X161480692Y-81322067D02*
X161485363Y-81323484D01*
X161489665Y-81325784D01*
X161496040Y-81331015D01*
X161516415Y-81344628D01*
X161539054Y-81354004D01*
X161563088Y-81358784D01*
X161587592Y-81358783D01*
X161611626Y-81354001D01*
X161634264Y-81344623D01*
X161654630Y-81331015D01*
X161661005Y-81325784D01*
X161665307Y-81323484D01*
X161669978Y-81322067D01*
X161680976Y-81320984D01*
X161969694Y-81320984D01*
X161980692Y-81322067D01*
X161985363Y-81323484D01*
X161989665Y-81325784D01*
X161996040Y-81331015D01*
X162016415Y-81344628D01*
X162039054Y-81354004D01*
X162063088Y-81358784D01*
X162087592Y-81358783D01*
X162111626Y-81354001D01*
X162134264Y-81344623D01*
X162154630Y-81331015D01*
X162161005Y-81325784D01*
X162165307Y-81323484D01*
X162169978Y-81322067D01*
X162180976Y-81320984D01*
X162469694Y-81320984D01*
X162480692Y-81322067D01*
X162485363Y-81323484D01*
X162489665Y-81325784D01*
X162496040Y-81331015D01*
X162516415Y-81344628D01*
X162539054Y-81354004D01*
X162563088Y-81358784D01*
X162587592Y-81358783D01*
X162611626Y-81354001D01*
X162634264Y-81344623D01*
X162654630Y-81331015D01*
X162661005Y-81325784D01*
X162665307Y-81323484D01*
X162669978Y-81322067D01*
X162680976Y-81320984D01*
X162969694Y-81320984D01*
X162980692Y-81322067D01*
X162985363Y-81323484D01*
X162989665Y-81325784D01*
X162993439Y-81328880D01*
X162996535Y-81332654D01*
X162998835Y-81336956D01*
X163000252Y-81341627D01*
X163001335Y-81352625D01*
X163001335Y-81841343D01*
X163000252Y-81852341D01*
X162998835Y-81857012D01*
X162996535Y-81861314D01*
X162993439Y-81865088D01*
X162989665Y-81868184D01*
X162985363Y-81870484D01*
X162980692Y-81871901D01*
X162969694Y-81872984D01*
X162683992Y-81872984D01*
X162659606Y-81875386D01*
X162636157Y-81882499D01*
X162614546Y-81894050D01*
X162595604Y-81909596D01*
X162580058Y-81928538D01*
X162568507Y-81950149D01*
X162561394Y-81973598D01*
X162558992Y-81997984D01*
X162561394Y-82022370D01*
X162568507Y-82045819D01*
X162580058Y-82067430D01*
X162587367Y-82077285D01*
X162588544Y-82078720D01*
X162595226Y-82091220D01*
X162599341Y-82104785D01*
X162601335Y-82125029D01*
X162601335Y-82290942D01*
X162603737Y-82315328D01*
X162610850Y-82338777D01*
X162622401Y-82360388D01*
X162637947Y-82379330D01*
X162656889Y-82394876D01*
X162678500Y-82406427D01*
X162701949Y-82413540D01*
X162726335Y-82415942D01*
X162750721Y-82413540D01*
X162774170Y-82406427D01*
X162785260Y-82401182D01*
X162790308Y-82398484D01*
X162794978Y-82397067D01*
X162805976Y-82395984D01*
X163294694Y-82395984D01*
X163305692Y-82397067D01*
X163310363Y-82398484D01*
X163314665Y-82400784D01*
X163318439Y-82403880D01*
X163321535Y-82407654D01*
X163323835Y-82411956D01*
X163325252Y-82416627D01*
X163326335Y-82427625D01*
X163326335Y-82716343D01*
X163325252Y-82727341D01*
X163323835Y-82732012D01*
X163321535Y-82736314D01*
X163318439Y-82740088D01*
X163314665Y-82743184D01*
X163310363Y-82745484D01*
X163305692Y-82746901D01*
X163294694Y-82747984D01*
X162805976Y-82747984D01*
X162794978Y-82746901D01*
X162790308Y-82745484D01*
X162785260Y-82742786D01*
X162762621Y-82733409D01*
X162738588Y-82728628D01*
X162714083Y-82728628D01*
X162690050Y-82733408D01*
X162667411Y-82742786D01*
X162647036Y-82756399D01*
X162629709Y-82773727D01*
X162616095Y-82794101D01*
X162606718Y-82816740D01*
X162601937Y-82840773D01*
X162601335Y-82853026D01*
X162601335Y-83018939D01*
X162599341Y-83039183D01*
X162595226Y-83052748D01*
X162588544Y-83065248D01*
X162587367Y-83066683D01*
X162573753Y-83087058D01*
X162564375Y-83109697D01*
X162559594Y-83133730D01*
X162559594Y-83158234D01*
X162564374Y-83182268D01*
X162573751Y-83204907D01*
X162587364Y-83225282D01*
X162604691Y-83242609D01*
X162625066Y-83256223D01*
X162647705Y-83265601D01*
X162671738Y-83270382D01*
X162683992Y-83270984D01*
X162969694Y-83270984D01*
X162980692Y-83272067D01*
X162985363Y-83273484D01*
X162989665Y-83275784D01*
X162993439Y-83278880D01*
X162996535Y-83282654D01*
X162998835Y-83286956D01*
X163000252Y-83291627D01*
X163001335Y-83302625D01*
X163001335Y-83791343D01*
X163000252Y-83802341D01*
X162998835Y-83807012D01*
X162996535Y-83811314D01*
X162993439Y-83815088D01*
X162989665Y-83818184D01*
X162985363Y-83820484D01*
X162980692Y-83821901D01*
X162969694Y-83822984D01*
X162680976Y-83822984D01*
X162669978Y-83821901D01*
X162665307Y-83820484D01*
X162661005Y-83818184D01*
X162654630Y-83812953D01*
X162634255Y-83799340D01*
X162611616Y-83789964D01*
X162587582Y-83785184D01*
X162563078Y-83785185D01*
X162539044Y-83789967D01*
X162516406Y-83799345D01*
X162496040Y-83812953D01*
X162489665Y-83818184D01*
X162485363Y-83820484D01*
X162480692Y-83821901D01*
X162469694Y-83822984D01*
X162180976Y-83822984D01*
X162169978Y-83821901D01*
X162165307Y-83820484D01*
X162161005Y-83818184D01*
X162154630Y-83812953D01*
X162134255Y-83799340D01*
X162111616Y-83789964D01*
X162087582Y-83785184D01*
X162063078Y-83785185D01*
X162039044Y-83789967D01*
X162016406Y-83799345D01*
X161996040Y-83812953D01*
X161989665Y-83818184D01*
X161985363Y-83820484D01*
X161980692Y-83821901D01*
X161969694Y-83822984D01*
X161680976Y-83822984D01*
X161669978Y-83821901D01*
X161665307Y-83820484D01*
X161661005Y-83818184D01*
X161654630Y-83812953D01*
X161634255Y-83799340D01*
X161611616Y-83789964D01*
X161587582Y-83785184D01*
X161563078Y-83785185D01*
X161539044Y-83789967D01*
X161516406Y-83799345D01*
X161496040Y-83812953D01*
X161489665Y-83818184D01*
X161485363Y-83820484D01*
X161480692Y-83821901D01*
X161469694Y-83822984D01*
X161180976Y-83822984D01*
X161169978Y-83821901D01*
X161165307Y-83820484D01*
X161161005Y-83818184D01*
X161157231Y-83815088D01*
X161154135Y-83811314D01*
X161151835Y-83807012D01*
X161150418Y-83802341D01*
X161149335Y-83791343D01*
X161149335Y-83302625D01*
X161150418Y-83291627D01*
X161151835Y-83286956D01*
X161154135Y-83282654D01*
X161157231Y-83278880D01*
X161161005Y-83275784D01*
X161165307Y-83273484D01*
X161169978Y-83272067D01*
X161180976Y-83270984D01*
X161466678Y-83270984D01*
X161491064Y-83268582D01*
X161514513Y-83261469D01*
X161536124Y-83249918D01*
X161555066Y-83234372D01*
X161570612Y-83215430D01*
X161582163Y-83193819D01*
X161589276Y-83170370D01*
X161591678Y-83145984D01*
X161589276Y-83121598D01*
X161582163Y-83098149D01*
X161570612Y-83076538D01*
X161563303Y-83066683D01*
X161562126Y-83065248D01*
X161555444Y-83052748D01*
X161551329Y-83039183D01*
X161549335Y-83018939D01*
X161549335Y-82853026D01*
X161546933Y-82828640D01*
X161539820Y-82805191D01*
X161528269Y-82783580D01*
X161512723Y-82764638D01*
X161493781Y-82749092D01*
X161472170Y-82737541D01*
X161448721Y-82730428D01*
X161424335Y-82728026D01*
X161399949Y-82730428D01*
X161376500Y-82737541D01*
X161365410Y-82742786D01*
X161360362Y-82745484D01*
X161355692Y-82746901D01*
X161344694Y-82747984D01*
X160855976Y-82747984D01*
X160844978Y-82746901D01*
X160840307Y-82745484D01*
X160836005Y-82743184D01*
X160832231Y-82740088D01*
X160829135Y-82736314D01*
X160826835Y-82732012D01*
X160825418Y-82727341D01*
X160824335Y-82716343D01*
X160824335Y-82427625D01*
X160825418Y-82416627D01*
X160826835Y-82411956D01*
X160829135Y-82407654D01*
X160832231Y-82403880D01*
X160836005Y-82400784D01*
X160840307Y-82398484D01*
X160844978Y-82397067D01*
X160855976Y-82395984D01*
X161344694Y-82395984D01*
X161355692Y-82397067D01*
X161360362Y-82398484D01*
X161365410Y-82401182D01*
X161388049Y-82410559D01*
X161412082Y-82415340D01*
X161436587Y-82415340D01*
X161460620Y-82410560D01*
X161483259Y-82401182D01*
X161503634Y-82387569D01*
X161520961Y-82370241D01*
X161534575Y-82349867D01*
X161543952Y-82327228D01*
X161548733Y-82303195D01*
X161549335Y-82290942D01*
X161549335Y-82125029D01*
X161551329Y-82104785D01*
X161555444Y-82091220D01*
X161562126Y-82078720D01*
X161563303Y-82077285D01*
X161576917Y-82056910D01*
X161586295Y-82034271D01*
X161591076Y-82010238D01*
X161591076Y-81985734D01*
X161586296Y-81961700D01*
X161576919Y-81939061D01*
X161563306Y-81918686D01*
X161545979Y-81901359D01*
X161525604Y-81887745D01*
X161502965Y-81878367D01*
X161478932Y-81873586D01*
X161466678Y-81872984D01*
X161180976Y-81872984D01*
X161169978Y-81871901D01*
X161165307Y-81870484D01*
X161161005Y-81868184D01*
X161157231Y-81865088D01*
X161154135Y-81861314D01*
X161151835Y-81857012D01*
X161150418Y-81852341D01*
X161149335Y-81841343D01*
X161149335Y-81352625D01*
X161150418Y-81341627D01*
X161151835Y-81336956D01*
X161154135Y-81332654D01*
X161157231Y-81328880D01*
X161161005Y-81325784D01*
X161165307Y-81323484D01*
X161169978Y-81322067D01*
X161180976Y-81320984D01*
X161469694Y-81320984D01*
X161480692Y-81322067D01*
X161480692Y-81322067D01*
G37*
G36*
X157159373Y-81320218D02*
X157164044Y-81321635D01*
X157168346Y-81323935D01*
X157172120Y-81327031D01*
X157175216Y-81330805D01*
X157177516Y-81335107D01*
X157178933Y-81339778D01*
X157180016Y-81350776D01*
X157180016Y-81839494D01*
X157178933Y-81850492D01*
X157177516Y-81855162D01*
X157174818Y-81860210D01*
X157165441Y-81882849D01*
X157160660Y-81906882D01*
X157160660Y-81931387D01*
X157165440Y-81955420D01*
X157174818Y-81978059D01*
X157188431Y-81998434D01*
X157205759Y-82015761D01*
X157226133Y-82029375D01*
X157248772Y-82038752D01*
X157272805Y-82043533D01*
X157285058Y-82044135D01*
X157450971Y-82044135D01*
X157471215Y-82046129D01*
X157484780Y-82050244D01*
X157497280Y-82056926D01*
X157498715Y-82058103D01*
X157519090Y-82071717D01*
X157541729Y-82081095D01*
X157565762Y-82085876D01*
X157590266Y-82085876D01*
X157614300Y-82081096D01*
X157636939Y-82071719D01*
X157657314Y-82058106D01*
X157674641Y-82040779D01*
X157688255Y-82020404D01*
X157697633Y-81997765D01*
X157702414Y-81973732D01*
X157703016Y-81961478D01*
X157703016Y-81675776D01*
X157704099Y-81664778D01*
X157705516Y-81660107D01*
X157707816Y-81655805D01*
X157710912Y-81652031D01*
X157714686Y-81648935D01*
X157718988Y-81646635D01*
X157723659Y-81645218D01*
X157734657Y-81644135D01*
X158223375Y-81644135D01*
X158234373Y-81645218D01*
X158239044Y-81646635D01*
X158243346Y-81648935D01*
X158247120Y-81652031D01*
X158250216Y-81655805D01*
X158252516Y-81660107D01*
X158253933Y-81664778D01*
X158255016Y-81675776D01*
X158255016Y-81964494D01*
X158253933Y-81975492D01*
X158252516Y-81980163D01*
X158250216Y-81984465D01*
X158244985Y-81990840D01*
X158231372Y-82011215D01*
X158221996Y-82033854D01*
X158217216Y-82057888D01*
X158217217Y-82082392D01*
X158221999Y-82106426D01*
X158231377Y-82129064D01*
X158244985Y-82149430D01*
X158250216Y-82155805D01*
X158252516Y-82160107D01*
X158253933Y-82164778D01*
X158255016Y-82175776D01*
X158255016Y-82464494D01*
X158253933Y-82475492D01*
X158252516Y-82480163D01*
X158250216Y-82484465D01*
X158244985Y-82490840D01*
X158231372Y-82511215D01*
X158221996Y-82533854D01*
X158217216Y-82557888D01*
X158217217Y-82582392D01*
X158221999Y-82606426D01*
X158231377Y-82629064D01*
X158244985Y-82649430D01*
X158250216Y-82655805D01*
X158252516Y-82660107D01*
X158253933Y-82664778D01*
X158255016Y-82675776D01*
X158255016Y-82964494D01*
X158253933Y-82975492D01*
X158252516Y-82980163D01*
X158250216Y-82984465D01*
X158244985Y-82990840D01*
X158231372Y-83011215D01*
X158221996Y-83033854D01*
X158217216Y-83057888D01*
X158217217Y-83082392D01*
X158221999Y-83106426D01*
X158231377Y-83129064D01*
X158244985Y-83149430D01*
X158250216Y-83155805D01*
X158252516Y-83160107D01*
X158253933Y-83164778D01*
X158255016Y-83175776D01*
X158255016Y-83464494D01*
X158253933Y-83475492D01*
X158252516Y-83480163D01*
X158250216Y-83484465D01*
X158247120Y-83488239D01*
X158243346Y-83491335D01*
X158239044Y-83493635D01*
X158234373Y-83495052D01*
X158223375Y-83496135D01*
X157734657Y-83496135D01*
X157723659Y-83495052D01*
X157718988Y-83493635D01*
X157714686Y-83491335D01*
X157710912Y-83488239D01*
X157707816Y-83484465D01*
X157705516Y-83480163D01*
X157704099Y-83475492D01*
X157703016Y-83464494D01*
X157703016Y-83178792D01*
X157700614Y-83154406D01*
X157693501Y-83130957D01*
X157681950Y-83109346D01*
X157666404Y-83090404D01*
X157647462Y-83074858D01*
X157625851Y-83063307D01*
X157602402Y-83056194D01*
X157578016Y-83053792D01*
X157553630Y-83056194D01*
X157530181Y-83063307D01*
X157508570Y-83074858D01*
X157498715Y-83082167D01*
X157497280Y-83083344D01*
X157484780Y-83090026D01*
X157471215Y-83094141D01*
X157450971Y-83096135D01*
X157285058Y-83096135D01*
X157260672Y-83098537D01*
X157237223Y-83105650D01*
X157215612Y-83117201D01*
X157196670Y-83132747D01*
X157181124Y-83151689D01*
X157169573Y-83173300D01*
X157162460Y-83196749D01*
X157160058Y-83221135D01*
X157162460Y-83245521D01*
X157169573Y-83268970D01*
X157174818Y-83280060D01*
X157177516Y-83285108D01*
X157178933Y-83289778D01*
X157180016Y-83300776D01*
X157180016Y-83789494D01*
X157178933Y-83800492D01*
X157177516Y-83805163D01*
X157175216Y-83809465D01*
X157172120Y-83813239D01*
X157168346Y-83816335D01*
X157164044Y-83818635D01*
X157159373Y-83820052D01*
X157148375Y-83821135D01*
X156859657Y-83821135D01*
X156848659Y-83820052D01*
X156843988Y-83818635D01*
X156839686Y-83816335D01*
X156835912Y-83813239D01*
X156832816Y-83809465D01*
X156830516Y-83805163D01*
X156829099Y-83800492D01*
X156828016Y-83789494D01*
X156828016Y-83300776D01*
X156829099Y-83289778D01*
X156830516Y-83285108D01*
X156833214Y-83280060D01*
X156842591Y-83257421D01*
X156847372Y-83233388D01*
X156847372Y-83208883D01*
X156842592Y-83184850D01*
X156833214Y-83162211D01*
X156819601Y-83141836D01*
X156802273Y-83124509D01*
X156781899Y-83110895D01*
X156759260Y-83101518D01*
X156735227Y-83096737D01*
X156722974Y-83096135D01*
X156557061Y-83096135D01*
X156536817Y-83094141D01*
X156523252Y-83090026D01*
X156510752Y-83083344D01*
X156509317Y-83082167D01*
X156488942Y-83068553D01*
X156466303Y-83059175D01*
X156442270Y-83054394D01*
X156417766Y-83054394D01*
X156393732Y-83059174D01*
X156371093Y-83068551D01*
X156350718Y-83082164D01*
X156333391Y-83099491D01*
X156319777Y-83119866D01*
X156310399Y-83142505D01*
X156305618Y-83166538D01*
X156305016Y-83178792D01*
X156305016Y-83464494D01*
X156303933Y-83475492D01*
X156302516Y-83480163D01*
X156300216Y-83484465D01*
X156297120Y-83488239D01*
X156293346Y-83491335D01*
X156289044Y-83493635D01*
X156284373Y-83495052D01*
X156273375Y-83496135D01*
X155784657Y-83496135D01*
X155773659Y-83495052D01*
X155768988Y-83493635D01*
X155764686Y-83491335D01*
X155760912Y-83488239D01*
X155757816Y-83484465D01*
X155755516Y-83480163D01*
X155754099Y-83475492D01*
X155753016Y-83464494D01*
X155753016Y-83175776D01*
X155754099Y-83164778D01*
X155755516Y-83160107D01*
X155757816Y-83155805D01*
X155763047Y-83149430D01*
X155776660Y-83129055D01*
X155786036Y-83106416D01*
X155790816Y-83082382D01*
X155790815Y-83057878D01*
X155786033Y-83033844D01*
X155776655Y-83011206D01*
X155763047Y-82990840D01*
X155757816Y-82984465D01*
X155755516Y-82980163D01*
X155754099Y-82975492D01*
X155753016Y-82964494D01*
X155753016Y-82675776D01*
X155754099Y-82664778D01*
X155755516Y-82660107D01*
X155757816Y-82655805D01*
X155763047Y-82649430D01*
X155776660Y-82629055D01*
X155786036Y-82606416D01*
X155790816Y-82582382D01*
X155790815Y-82557878D01*
X155786033Y-82533844D01*
X155776655Y-82511206D01*
X155763047Y-82490840D01*
X155757816Y-82484465D01*
X155755516Y-82480163D01*
X155754099Y-82475492D01*
X155753016Y-82464494D01*
X155753016Y-82175776D01*
X155754099Y-82164778D01*
X155755516Y-82160107D01*
X155757816Y-82155805D01*
X155763047Y-82149430D01*
X155776660Y-82129055D01*
X155786036Y-82106416D01*
X155790816Y-82082382D01*
X155790815Y-82057878D01*
X155786033Y-82033844D01*
X155776655Y-82011206D01*
X155763047Y-81990840D01*
X155757816Y-81984465D01*
X155755516Y-81980163D01*
X155754099Y-81975492D01*
X155753016Y-81964494D01*
X155753016Y-81675776D01*
X155754099Y-81664778D01*
X155755516Y-81660107D01*
X155757816Y-81655805D01*
X155760912Y-81652031D01*
X155764686Y-81648935D01*
X155768988Y-81646635D01*
X155773659Y-81645218D01*
X155784657Y-81644135D01*
X156273375Y-81644135D01*
X156284373Y-81645218D01*
X156289044Y-81646635D01*
X156293346Y-81648935D01*
X156297120Y-81652031D01*
X156300216Y-81655805D01*
X156302516Y-81660107D01*
X156303933Y-81664778D01*
X156305016Y-81675776D01*
X156305016Y-81961478D01*
X156307418Y-81985864D01*
X156314531Y-82009313D01*
X156326082Y-82030924D01*
X156341628Y-82049866D01*
X156360570Y-82065412D01*
X156382181Y-82076963D01*
X156405630Y-82084076D01*
X156430016Y-82086478D01*
X156454402Y-82084076D01*
X156477851Y-82076963D01*
X156499462Y-82065412D01*
X156509317Y-82058103D01*
X156510752Y-82056926D01*
X156523252Y-82050244D01*
X156536817Y-82046129D01*
X156557061Y-82044135D01*
X156722974Y-82044135D01*
X156747360Y-82041733D01*
X156770809Y-82034620D01*
X156792420Y-82023069D01*
X156811362Y-82007523D01*
X156826908Y-81988581D01*
X156838459Y-81966970D01*
X156845572Y-81943521D01*
X156847974Y-81919135D01*
X156845572Y-81894749D01*
X156838459Y-81871300D01*
X156833214Y-81860210D01*
X156830516Y-81855162D01*
X156829099Y-81850492D01*
X156828016Y-81839494D01*
X156828016Y-81350776D01*
X156829099Y-81339778D01*
X156830516Y-81335107D01*
X156832816Y-81330805D01*
X156835912Y-81327031D01*
X156839686Y-81323935D01*
X156843988Y-81321635D01*
X156848659Y-81320218D01*
X156859657Y-81319135D01*
X157148375Y-81319135D01*
X157159373Y-81320218D01*
X157159373Y-81320218D01*
G37*
G36*
X122275292Y-80534667D02*
X122279963Y-80536084D01*
X122284265Y-80538384D01*
X122290640Y-80543615D01*
X122311015Y-80557228D01*
X122333654Y-80566604D01*
X122357688Y-80571384D01*
X122382192Y-80571383D01*
X122406226Y-80566601D01*
X122428864Y-80557223D01*
X122449230Y-80543615D01*
X122455605Y-80538384D01*
X122459907Y-80536084D01*
X122464578Y-80534667D01*
X122475576Y-80533584D01*
X122764294Y-80533584D01*
X122775292Y-80534667D01*
X122779963Y-80536084D01*
X122784265Y-80538384D01*
X122790640Y-80543615D01*
X122811015Y-80557228D01*
X122833654Y-80566604D01*
X122857688Y-80571384D01*
X122882192Y-80571383D01*
X122906226Y-80566601D01*
X122928864Y-80557223D01*
X122949230Y-80543615D01*
X122955605Y-80538384D01*
X122959907Y-80536084D01*
X122964578Y-80534667D01*
X122975576Y-80533584D01*
X123264294Y-80533584D01*
X123275292Y-80534667D01*
X123279963Y-80536084D01*
X123284265Y-80538384D01*
X123290640Y-80543615D01*
X123311015Y-80557228D01*
X123333654Y-80566604D01*
X123357688Y-80571384D01*
X123382192Y-80571383D01*
X123406226Y-80566601D01*
X123428864Y-80557223D01*
X123449230Y-80543615D01*
X123455605Y-80538384D01*
X123459907Y-80536084D01*
X123464578Y-80534667D01*
X123475576Y-80533584D01*
X123764294Y-80533584D01*
X123775292Y-80534667D01*
X123779963Y-80536084D01*
X123784265Y-80538384D01*
X123788039Y-80541480D01*
X123791135Y-80545254D01*
X123793435Y-80549556D01*
X123794852Y-80554227D01*
X123795935Y-80565225D01*
X123795935Y-81053943D01*
X123794852Y-81064941D01*
X123793435Y-81069612D01*
X123791135Y-81073914D01*
X123788039Y-81077688D01*
X123784265Y-81080784D01*
X123779963Y-81083084D01*
X123775292Y-81084501D01*
X123764294Y-81085584D01*
X123478592Y-81085584D01*
X123454206Y-81087986D01*
X123430757Y-81095099D01*
X123409146Y-81106650D01*
X123390204Y-81122196D01*
X123374658Y-81141138D01*
X123363107Y-81162749D01*
X123355994Y-81186198D01*
X123353592Y-81210584D01*
X123355994Y-81234970D01*
X123363107Y-81258419D01*
X123374658Y-81280030D01*
X123381967Y-81289885D01*
X123383144Y-81291320D01*
X123389826Y-81303820D01*
X123393941Y-81317385D01*
X123395935Y-81337629D01*
X123395935Y-81503542D01*
X123398337Y-81527928D01*
X123405450Y-81551377D01*
X123417001Y-81572988D01*
X123432547Y-81591930D01*
X123451489Y-81607476D01*
X123473100Y-81619027D01*
X123496549Y-81626140D01*
X123520935Y-81628542D01*
X123545321Y-81626140D01*
X123568770Y-81619027D01*
X123579860Y-81613782D01*
X123584908Y-81611084D01*
X123589578Y-81609667D01*
X123600576Y-81608584D01*
X124089294Y-81608584D01*
X124100292Y-81609667D01*
X124104963Y-81611084D01*
X124109265Y-81613384D01*
X124113039Y-81616480D01*
X124116135Y-81620254D01*
X124118435Y-81624556D01*
X124119852Y-81629227D01*
X124120935Y-81640225D01*
X124120935Y-81928943D01*
X124119852Y-81939941D01*
X124118435Y-81944612D01*
X124116135Y-81948914D01*
X124113039Y-81952688D01*
X124109265Y-81955784D01*
X124104963Y-81958084D01*
X124100292Y-81959501D01*
X124089294Y-81960584D01*
X123600576Y-81960584D01*
X123589578Y-81959501D01*
X123584908Y-81958084D01*
X123579860Y-81955386D01*
X123557221Y-81946009D01*
X123533188Y-81941228D01*
X123508683Y-81941228D01*
X123484650Y-81946008D01*
X123462011Y-81955386D01*
X123441636Y-81968999D01*
X123424309Y-81986327D01*
X123410695Y-82006701D01*
X123401318Y-82029340D01*
X123396537Y-82053373D01*
X123395935Y-82065626D01*
X123395935Y-82231539D01*
X123393941Y-82251783D01*
X123389826Y-82265348D01*
X123383144Y-82277848D01*
X123381967Y-82279283D01*
X123368353Y-82299658D01*
X123358975Y-82322297D01*
X123354194Y-82346330D01*
X123354194Y-82370834D01*
X123358974Y-82394868D01*
X123368351Y-82417507D01*
X123381964Y-82437882D01*
X123399291Y-82455209D01*
X123419666Y-82468823D01*
X123442305Y-82478201D01*
X123466338Y-82482982D01*
X123478592Y-82483584D01*
X123764294Y-82483584D01*
X123775292Y-82484667D01*
X123779963Y-82486084D01*
X123784265Y-82488384D01*
X123788039Y-82491480D01*
X123791135Y-82495254D01*
X123793435Y-82499556D01*
X123794852Y-82504227D01*
X123795935Y-82515225D01*
X123795935Y-83003943D01*
X123794852Y-83014941D01*
X123793435Y-83019612D01*
X123791135Y-83023914D01*
X123788039Y-83027688D01*
X123784265Y-83030784D01*
X123779963Y-83033084D01*
X123775292Y-83034501D01*
X123764294Y-83035584D01*
X123475576Y-83035584D01*
X123464578Y-83034501D01*
X123459907Y-83033084D01*
X123455605Y-83030784D01*
X123449230Y-83025553D01*
X123428855Y-83011940D01*
X123406216Y-83002564D01*
X123382182Y-82997784D01*
X123357678Y-82997785D01*
X123333644Y-83002567D01*
X123311006Y-83011945D01*
X123290640Y-83025553D01*
X123284265Y-83030784D01*
X123279963Y-83033084D01*
X123275292Y-83034501D01*
X123264294Y-83035584D01*
X122975576Y-83035584D01*
X122964578Y-83034501D01*
X122959907Y-83033084D01*
X122955605Y-83030784D01*
X122949230Y-83025553D01*
X122928855Y-83011940D01*
X122906216Y-83002564D01*
X122882182Y-82997784D01*
X122857678Y-82997785D01*
X122833644Y-83002567D01*
X122811006Y-83011945D01*
X122790640Y-83025553D01*
X122784265Y-83030784D01*
X122779963Y-83033084D01*
X122775292Y-83034501D01*
X122764294Y-83035584D01*
X122475576Y-83035584D01*
X122464578Y-83034501D01*
X122459907Y-83033084D01*
X122455605Y-83030784D01*
X122449230Y-83025553D01*
X122428855Y-83011940D01*
X122406216Y-83002564D01*
X122382182Y-82997784D01*
X122357678Y-82997785D01*
X122333644Y-83002567D01*
X122311006Y-83011945D01*
X122290640Y-83025553D01*
X122284265Y-83030784D01*
X122279963Y-83033084D01*
X122275292Y-83034501D01*
X122264294Y-83035584D01*
X121975576Y-83035584D01*
X121964578Y-83034501D01*
X121959907Y-83033084D01*
X121955605Y-83030784D01*
X121951831Y-83027688D01*
X121948735Y-83023914D01*
X121946435Y-83019612D01*
X121945018Y-83014941D01*
X121943935Y-83003943D01*
X121943935Y-82515225D01*
X121945018Y-82504227D01*
X121946435Y-82499556D01*
X121948735Y-82495254D01*
X121951831Y-82491480D01*
X121955605Y-82488384D01*
X121959907Y-82486084D01*
X121964578Y-82484667D01*
X121975576Y-82483584D01*
X122261278Y-82483584D01*
X122285664Y-82481182D01*
X122309113Y-82474069D01*
X122330724Y-82462518D01*
X122349666Y-82446972D01*
X122365212Y-82428030D01*
X122376763Y-82406419D01*
X122383876Y-82382970D01*
X122386278Y-82358584D01*
X122383876Y-82334198D01*
X122376763Y-82310749D01*
X122365212Y-82289138D01*
X122357903Y-82279283D01*
X122356726Y-82277848D01*
X122350044Y-82265348D01*
X122345929Y-82251783D01*
X122343935Y-82231539D01*
X122343935Y-82065626D01*
X122341533Y-82041240D01*
X122334420Y-82017791D01*
X122322869Y-81996180D01*
X122307323Y-81977238D01*
X122288381Y-81961692D01*
X122266770Y-81950141D01*
X122243321Y-81943028D01*
X122218935Y-81940626D01*
X122194549Y-81943028D01*
X122171100Y-81950141D01*
X122160010Y-81955386D01*
X122154962Y-81958084D01*
X122150292Y-81959501D01*
X122139294Y-81960584D01*
X121650576Y-81960584D01*
X121639578Y-81959501D01*
X121634907Y-81958084D01*
X121630605Y-81955784D01*
X121626831Y-81952688D01*
X121623735Y-81948914D01*
X121621435Y-81944612D01*
X121620018Y-81939941D01*
X121618935Y-81928943D01*
X121618935Y-81640225D01*
X121620018Y-81629227D01*
X121621435Y-81624556D01*
X121623735Y-81620254D01*
X121626831Y-81616480D01*
X121630605Y-81613384D01*
X121634907Y-81611084D01*
X121639578Y-81609667D01*
X121650576Y-81608584D01*
X122139294Y-81608584D01*
X122150292Y-81609667D01*
X122154962Y-81611084D01*
X122160010Y-81613782D01*
X122182649Y-81623159D01*
X122206682Y-81627940D01*
X122231187Y-81627940D01*
X122255220Y-81623160D01*
X122277859Y-81613782D01*
X122298234Y-81600169D01*
X122315561Y-81582841D01*
X122329175Y-81562467D01*
X122338552Y-81539828D01*
X122343333Y-81515795D01*
X122343935Y-81503542D01*
X122343935Y-81337629D01*
X122345929Y-81317385D01*
X122350044Y-81303820D01*
X122356726Y-81291320D01*
X122357903Y-81289885D01*
X122371517Y-81269510D01*
X122380895Y-81246871D01*
X122385676Y-81222838D01*
X122385676Y-81198334D01*
X122380896Y-81174300D01*
X122371519Y-81151661D01*
X122357906Y-81131286D01*
X122340579Y-81113959D01*
X122320204Y-81100345D01*
X122297565Y-81090967D01*
X122273532Y-81086186D01*
X122261278Y-81085584D01*
X121975576Y-81085584D01*
X121964578Y-81084501D01*
X121959907Y-81083084D01*
X121955605Y-81080784D01*
X121951831Y-81077688D01*
X121948735Y-81073914D01*
X121946435Y-81069612D01*
X121945018Y-81064941D01*
X121943935Y-81053943D01*
X121943935Y-80565225D01*
X121945018Y-80554227D01*
X121946435Y-80549556D01*
X121948735Y-80545254D01*
X121951831Y-80541480D01*
X121955605Y-80538384D01*
X121959907Y-80536084D01*
X121964578Y-80534667D01*
X121975576Y-80533584D01*
X122264294Y-80533584D01*
X122275292Y-80534667D01*
X122275292Y-80534667D01*
G37*
G36*
X118014773Y-80532818D02*
X118019444Y-80534235D01*
X118023746Y-80536535D01*
X118027520Y-80539631D01*
X118030616Y-80543405D01*
X118032916Y-80547707D01*
X118034333Y-80552378D01*
X118035416Y-80563376D01*
X118035416Y-81052094D01*
X118034333Y-81063092D01*
X118032916Y-81067762D01*
X118030218Y-81072810D01*
X118020841Y-81095449D01*
X118016060Y-81119482D01*
X118016060Y-81143987D01*
X118020840Y-81168020D01*
X118030218Y-81190659D01*
X118043831Y-81211034D01*
X118061159Y-81228361D01*
X118081533Y-81241975D01*
X118104172Y-81251352D01*
X118128205Y-81256133D01*
X118140458Y-81256735D01*
X118306371Y-81256735D01*
X118326615Y-81258729D01*
X118340180Y-81262844D01*
X118352680Y-81269526D01*
X118354115Y-81270703D01*
X118374490Y-81284317D01*
X118397129Y-81293695D01*
X118421162Y-81298476D01*
X118445666Y-81298476D01*
X118469700Y-81293696D01*
X118492339Y-81284319D01*
X118512714Y-81270706D01*
X118530041Y-81253379D01*
X118543655Y-81233004D01*
X118553033Y-81210365D01*
X118557814Y-81186332D01*
X118558416Y-81174078D01*
X118558416Y-80888376D01*
X118559499Y-80877378D01*
X118560916Y-80872707D01*
X118563216Y-80868405D01*
X118566312Y-80864631D01*
X118570086Y-80861535D01*
X118574388Y-80859235D01*
X118579059Y-80857818D01*
X118590057Y-80856735D01*
X119078775Y-80856735D01*
X119089773Y-80857818D01*
X119094444Y-80859235D01*
X119098746Y-80861535D01*
X119102520Y-80864631D01*
X119105616Y-80868405D01*
X119107916Y-80872707D01*
X119109333Y-80877378D01*
X119110416Y-80888376D01*
X119110416Y-81177094D01*
X119109333Y-81188092D01*
X119107916Y-81192763D01*
X119105616Y-81197065D01*
X119100385Y-81203440D01*
X119086772Y-81223815D01*
X119077396Y-81246454D01*
X119072616Y-81270488D01*
X119072617Y-81294992D01*
X119077399Y-81319026D01*
X119086777Y-81341664D01*
X119100385Y-81362030D01*
X119105616Y-81368405D01*
X119107916Y-81372707D01*
X119109333Y-81377378D01*
X119110416Y-81388376D01*
X119110416Y-81677094D01*
X119109333Y-81688092D01*
X119107916Y-81692763D01*
X119105616Y-81697065D01*
X119100385Y-81703440D01*
X119086772Y-81723815D01*
X119077396Y-81746454D01*
X119072616Y-81770488D01*
X119072617Y-81794992D01*
X119077399Y-81819026D01*
X119086777Y-81841664D01*
X119100385Y-81862030D01*
X119105616Y-81868405D01*
X119107916Y-81872707D01*
X119109333Y-81877378D01*
X119110416Y-81888376D01*
X119110416Y-82177094D01*
X119109333Y-82188092D01*
X119107916Y-82192763D01*
X119105616Y-82197065D01*
X119100385Y-82203440D01*
X119086772Y-82223815D01*
X119077396Y-82246454D01*
X119072616Y-82270488D01*
X119072617Y-82294992D01*
X119077399Y-82319026D01*
X119086777Y-82341664D01*
X119100385Y-82362030D01*
X119105616Y-82368405D01*
X119107916Y-82372707D01*
X119109333Y-82377378D01*
X119110416Y-82388376D01*
X119110416Y-82677094D01*
X119109333Y-82688092D01*
X119107916Y-82692763D01*
X119105616Y-82697065D01*
X119102520Y-82700839D01*
X119098746Y-82703935D01*
X119094444Y-82706235D01*
X119089773Y-82707652D01*
X119078775Y-82708735D01*
X118590057Y-82708735D01*
X118579059Y-82707652D01*
X118574388Y-82706235D01*
X118570086Y-82703935D01*
X118566312Y-82700839D01*
X118563216Y-82697065D01*
X118560916Y-82692763D01*
X118559499Y-82688092D01*
X118558416Y-82677094D01*
X118558416Y-82391392D01*
X118556014Y-82367006D01*
X118548901Y-82343557D01*
X118537350Y-82321946D01*
X118521804Y-82303004D01*
X118502862Y-82287458D01*
X118481251Y-82275907D01*
X118457802Y-82268794D01*
X118433416Y-82266392D01*
X118409030Y-82268794D01*
X118385581Y-82275907D01*
X118363970Y-82287458D01*
X118354115Y-82294767D01*
X118352680Y-82295944D01*
X118340180Y-82302626D01*
X118326615Y-82306741D01*
X118306371Y-82308735D01*
X118140458Y-82308735D01*
X118116072Y-82311137D01*
X118092623Y-82318250D01*
X118071012Y-82329801D01*
X118052070Y-82345347D01*
X118036524Y-82364289D01*
X118024973Y-82385900D01*
X118017860Y-82409349D01*
X118015458Y-82433735D01*
X118017860Y-82458121D01*
X118024973Y-82481570D01*
X118030218Y-82492660D01*
X118032916Y-82497708D01*
X118034333Y-82502378D01*
X118035416Y-82513376D01*
X118035416Y-83002094D01*
X118034333Y-83013092D01*
X118032916Y-83017763D01*
X118030616Y-83022065D01*
X118027520Y-83025839D01*
X118023746Y-83028935D01*
X118019444Y-83031235D01*
X118014773Y-83032652D01*
X118003775Y-83033735D01*
X117715057Y-83033735D01*
X117704059Y-83032652D01*
X117699388Y-83031235D01*
X117695086Y-83028935D01*
X117691312Y-83025839D01*
X117688216Y-83022065D01*
X117685916Y-83017763D01*
X117684499Y-83013092D01*
X117683416Y-83002094D01*
X117683416Y-82513376D01*
X117684499Y-82502378D01*
X117685916Y-82497708D01*
X117688614Y-82492660D01*
X117697991Y-82470021D01*
X117702772Y-82445988D01*
X117702772Y-82421483D01*
X117697992Y-82397450D01*
X117688614Y-82374811D01*
X117675001Y-82354436D01*
X117657673Y-82337109D01*
X117637299Y-82323495D01*
X117614660Y-82314118D01*
X117590627Y-82309337D01*
X117578374Y-82308735D01*
X117412461Y-82308735D01*
X117392217Y-82306741D01*
X117378652Y-82302626D01*
X117366152Y-82295944D01*
X117364717Y-82294767D01*
X117344342Y-82281153D01*
X117321703Y-82271775D01*
X117297670Y-82266994D01*
X117273166Y-82266994D01*
X117249132Y-82271774D01*
X117226493Y-82281151D01*
X117206118Y-82294764D01*
X117188791Y-82312091D01*
X117175177Y-82332466D01*
X117165799Y-82355105D01*
X117161018Y-82379138D01*
X117160416Y-82391392D01*
X117160416Y-82677094D01*
X117159333Y-82688092D01*
X117157916Y-82692763D01*
X117155616Y-82697065D01*
X117152520Y-82700839D01*
X117148746Y-82703935D01*
X117144444Y-82706235D01*
X117139773Y-82707652D01*
X117128775Y-82708735D01*
X116640057Y-82708735D01*
X116629059Y-82707652D01*
X116624388Y-82706235D01*
X116620086Y-82703935D01*
X116616312Y-82700839D01*
X116613216Y-82697065D01*
X116610916Y-82692763D01*
X116609499Y-82688092D01*
X116608416Y-82677094D01*
X116608416Y-82388376D01*
X116609499Y-82377378D01*
X116610916Y-82372707D01*
X116613216Y-82368405D01*
X116618447Y-82362030D01*
X116632060Y-82341655D01*
X116641436Y-82319016D01*
X116646216Y-82294982D01*
X116646215Y-82270478D01*
X116641433Y-82246444D01*
X116632055Y-82223806D01*
X116618447Y-82203440D01*
X116613216Y-82197065D01*
X116610916Y-82192763D01*
X116609499Y-82188092D01*
X116608416Y-82177094D01*
X116608416Y-81888376D01*
X116609499Y-81877378D01*
X116610916Y-81872707D01*
X116613216Y-81868405D01*
X116618447Y-81862030D01*
X116632060Y-81841655D01*
X116641436Y-81819016D01*
X116646216Y-81794982D01*
X116646215Y-81770478D01*
X116641433Y-81746444D01*
X116632055Y-81723806D01*
X116618447Y-81703440D01*
X116613216Y-81697065D01*
X116610916Y-81692763D01*
X116609499Y-81688092D01*
X116608416Y-81677094D01*
X116608416Y-81388376D01*
X116609499Y-81377378D01*
X116610916Y-81372707D01*
X116613216Y-81368405D01*
X116618447Y-81362030D01*
X116632060Y-81341655D01*
X116641436Y-81319016D01*
X116646216Y-81294982D01*
X116646215Y-81270478D01*
X116641433Y-81246444D01*
X116632055Y-81223806D01*
X116618447Y-81203440D01*
X116613216Y-81197065D01*
X116610916Y-81192763D01*
X116609499Y-81188092D01*
X116608416Y-81177094D01*
X116608416Y-80888376D01*
X116609499Y-80877378D01*
X116610916Y-80872707D01*
X116613216Y-80868405D01*
X116616312Y-80864631D01*
X116620086Y-80861535D01*
X116624388Y-80859235D01*
X116629059Y-80857818D01*
X116640057Y-80856735D01*
X117128775Y-80856735D01*
X117139773Y-80857818D01*
X117144444Y-80859235D01*
X117148746Y-80861535D01*
X117152520Y-80864631D01*
X117155616Y-80868405D01*
X117157916Y-80872707D01*
X117159333Y-80877378D01*
X117160416Y-80888376D01*
X117160416Y-81174078D01*
X117162818Y-81198464D01*
X117169931Y-81221913D01*
X117181482Y-81243524D01*
X117197028Y-81262466D01*
X117215970Y-81278012D01*
X117237581Y-81289563D01*
X117261030Y-81296676D01*
X117285416Y-81299078D01*
X117309802Y-81296676D01*
X117333251Y-81289563D01*
X117354862Y-81278012D01*
X117364717Y-81270703D01*
X117366152Y-81269526D01*
X117378652Y-81262844D01*
X117392217Y-81258729D01*
X117412461Y-81256735D01*
X117578374Y-81256735D01*
X117602760Y-81254333D01*
X117626209Y-81247220D01*
X117647820Y-81235669D01*
X117666762Y-81220123D01*
X117682308Y-81201181D01*
X117693859Y-81179570D01*
X117700972Y-81156121D01*
X117703374Y-81131735D01*
X117700972Y-81107349D01*
X117693859Y-81083900D01*
X117688614Y-81072810D01*
X117685916Y-81067762D01*
X117684499Y-81063092D01*
X117683416Y-81052094D01*
X117683416Y-80563376D01*
X117684499Y-80552378D01*
X117685916Y-80547707D01*
X117688216Y-80543405D01*
X117691312Y-80539631D01*
X117695086Y-80536535D01*
X117699388Y-80534235D01*
X117704059Y-80532818D01*
X117715057Y-80531735D01*
X118003775Y-80531735D01*
X118014773Y-80532818D01*
X118014773Y-80532818D01*
G37*
G36*
X208691947Y-80722337D02*
X208847858Y-80753350D01*
X209043677Y-80834461D01*
X209205676Y-80942705D01*
X209219913Y-80952218D01*
X209369782Y-81102087D01*
X209369784Y-81102090D01*
X209487539Y-81278323D01*
X209568650Y-81474142D01*
X209595728Y-81610275D01*
X209610000Y-81682022D01*
X209610000Y-81893978D01*
X209608532Y-81901359D01*
X209568650Y-82101858D01*
X209487539Y-82297677D01*
X209404630Y-82421759D01*
X209369782Y-82473913D01*
X209219913Y-82623782D01*
X209219910Y-82623784D01*
X209043677Y-82741539D01*
X208847858Y-82822650D01*
X208695147Y-82853026D01*
X208639978Y-82864000D01*
X208428022Y-82864000D01*
X208372853Y-82853026D01*
X208220142Y-82822650D01*
X208024323Y-82741539D01*
X207848090Y-82623784D01*
X207848087Y-82623782D01*
X207698218Y-82473913D01*
X207663370Y-82421759D01*
X207580461Y-82297677D01*
X207499350Y-82101858D01*
X207459468Y-81901359D01*
X207458000Y-81893978D01*
X207458000Y-81682022D01*
X207472272Y-81610275D01*
X207499350Y-81474142D01*
X207580461Y-81278323D01*
X207698216Y-81102090D01*
X207698218Y-81102087D01*
X207848087Y-80952218D01*
X207862324Y-80942705D01*
X208024323Y-80834461D01*
X208220142Y-80753350D01*
X208376053Y-80722337D01*
X208428022Y-80712000D01*
X208639978Y-80712000D01*
X208691947Y-80722337D01*
X208691947Y-80722337D01*
G37*
G36*
X199581677Y-81041465D02*
X199619364Y-81052898D01*
X199654103Y-81071466D01*
X199684548Y-81096452D01*
X199709534Y-81126897D01*
X199728102Y-81161636D01*
X199739535Y-81199323D01*
X199744000Y-81244661D01*
X199744000Y-82331339D01*
X199739535Y-82376677D01*
X199728102Y-82414364D01*
X199709534Y-82449103D01*
X199684548Y-82479548D01*
X199654103Y-82504534D01*
X199619364Y-82523102D01*
X199581677Y-82534535D01*
X199536339Y-82539000D01*
X198699661Y-82539000D01*
X198654323Y-82534535D01*
X198616636Y-82523102D01*
X198581897Y-82504534D01*
X198551452Y-82479548D01*
X198526466Y-82449103D01*
X198507898Y-82414364D01*
X198496465Y-82376677D01*
X198492000Y-82331339D01*
X198492000Y-81244661D01*
X198496465Y-81199323D01*
X198507898Y-81161636D01*
X198526466Y-81126897D01*
X198551452Y-81096452D01*
X198581897Y-81071466D01*
X198616636Y-81052898D01*
X198654323Y-81041465D01*
X198699661Y-81037000D01*
X199536339Y-81037000D01*
X199581677Y-81041465D01*
X199581677Y-81041465D01*
G37*
G36*
X201631677Y-81041465D02*
X201669364Y-81052898D01*
X201704103Y-81071466D01*
X201734548Y-81096452D01*
X201759534Y-81126897D01*
X201778102Y-81161636D01*
X201789535Y-81199323D01*
X201794000Y-81244661D01*
X201794000Y-82331339D01*
X201789535Y-82376677D01*
X201778102Y-82414364D01*
X201759534Y-82449103D01*
X201734548Y-82479548D01*
X201704103Y-82504534D01*
X201669364Y-82523102D01*
X201631677Y-82534535D01*
X201586339Y-82539000D01*
X200749661Y-82539000D01*
X200704323Y-82534535D01*
X200666636Y-82523102D01*
X200631897Y-82504534D01*
X200601452Y-82479548D01*
X200576466Y-82449103D01*
X200557898Y-82414364D01*
X200546465Y-82376677D01*
X200542000Y-82331339D01*
X200542000Y-81244661D01*
X200546465Y-81199323D01*
X200557898Y-81161636D01*
X200576466Y-81126897D01*
X200601452Y-81096452D01*
X200631897Y-81071466D01*
X200666636Y-81052898D01*
X200704323Y-81041465D01*
X200749661Y-81037000D01*
X201586339Y-81037000D01*
X201631677Y-81041465D01*
X201631677Y-81041465D01*
G37*
G36*
X192695357Y-80030083D02*
X192700028Y-80031500D01*
X192704330Y-80033800D01*
X192710705Y-80039031D01*
X192731080Y-80052644D01*
X192753719Y-80062020D01*
X192777753Y-80066800D01*
X192802257Y-80066799D01*
X192826291Y-80062017D01*
X192848929Y-80052639D01*
X192869295Y-80039031D01*
X192875670Y-80033800D01*
X192879972Y-80031500D01*
X192884643Y-80030083D01*
X192895641Y-80029000D01*
X193184359Y-80029000D01*
X193195357Y-80030083D01*
X193200028Y-80031500D01*
X193204330Y-80033800D01*
X193210705Y-80039031D01*
X193231080Y-80052644D01*
X193253719Y-80062020D01*
X193277753Y-80066800D01*
X193302257Y-80066799D01*
X193326291Y-80062017D01*
X193348929Y-80052639D01*
X193369295Y-80039031D01*
X193375670Y-80033800D01*
X193379972Y-80031500D01*
X193384643Y-80030083D01*
X193395641Y-80029000D01*
X193684359Y-80029000D01*
X193695357Y-80030083D01*
X193700028Y-80031500D01*
X193704330Y-80033800D01*
X193708104Y-80036896D01*
X193711200Y-80040670D01*
X193713500Y-80044972D01*
X193714917Y-80049643D01*
X193716000Y-80060641D01*
X193716000Y-80479000D01*
X193718402Y-80503386D01*
X193725515Y-80526835D01*
X193737066Y-80548446D01*
X193752612Y-80567388D01*
X193771554Y-80582934D01*
X193793165Y-80594485D01*
X193816614Y-80601598D01*
X193841000Y-80604000D01*
X194259359Y-80604000D01*
X194270357Y-80605083D01*
X194275028Y-80606500D01*
X194279330Y-80608800D01*
X194283104Y-80611896D01*
X194286200Y-80615670D01*
X194288500Y-80619972D01*
X194289917Y-80624643D01*
X194291000Y-80635641D01*
X194291000Y-80924359D01*
X194289917Y-80935357D01*
X194288500Y-80940028D01*
X194286200Y-80944330D01*
X194280969Y-80950705D01*
X194267356Y-80971080D01*
X194257980Y-80993719D01*
X194253200Y-81017753D01*
X194253201Y-81042257D01*
X194257983Y-81066291D01*
X194267361Y-81088929D01*
X194280969Y-81109295D01*
X194286200Y-81115670D01*
X194288500Y-81119972D01*
X194289917Y-81124643D01*
X194291000Y-81135641D01*
X194291000Y-81424359D01*
X194289917Y-81435357D01*
X194288500Y-81440028D01*
X194286200Y-81444330D01*
X194280969Y-81450705D01*
X194267356Y-81471080D01*
X194257980Y-81493719D01*
X194253200Y-81517753D01*
X194253201Y-81542257D01*
X194257983Y-81566291D01*
X194267361Y-81588929D01*
X194280969Y-81609295D01*
X194286200Y-81615670D01*
X194288500Y-81619972D01*
X194289917Y-81624643D01*
X194291000Y-81635641D01*
X194291000Y-81924359D01*
X194289917Y-81935357D01*
X194288500Y-81940028D01*
X194286200Y-81944330D01*
X194283104Y-81948104D01*
X194279330Y-81951200D01*
X194275028Y-81953500D01*
X194270357Y-81954917D01*
X194259359Y-81956000D01*
X193841000Y-81956000D01*
X193816614Y-81958402D01*
X193793165Y-81965515D01*
X193771554Y-81977066D01*
X193752612Y-81992612D01*
X193737066Y-82011554D01*
X193725515Y-82033165D01*
X193718402Y-82056614D01*
X193716000Y-82081000D01*
X193716000Y-82499359D01*
X193714917Y-82510357D01*
X193713500Y-82515028D01*
X193711200Y-82519330D01*
X193708104Y-82523104D01*
X193704330Y-82526200D01*
X193700028Y-82528500D01*
X193695357Y-82529917D01*
X193684359Y-82531000D01*
X193395641Y-82531000D01*
X193384643Y-82529917D01*
X193379972Y-82528500D01*
X193375670Y-82526200D01*
X193369295Y-82520969D01*
X193348920Y-82507356D01*
X193326281Y-82497980D01*
X193302247Y-82493200D01*
X193277743Y-82493201D01*
X193253709Y-82497983D01*
X193231071Y-82507361D01*
X193210705Y-82520969D01*
X193204330Y-82526200D01*
X193200028Y-82528500D01*
X193195357Y-82529917D01*
X193184359Y-82531000D01*
X192895641Y-82531000D01*
X192884643Y-82529917D01*
X192879972Y-82528500D01*
X192875670Y-82526200D01*
X192869295Y-82520969D01*
X192848920Y-82507356D01*
X192826281Y-82497980D01*
X192802247Y-82493200D01*
X192777743Y-82493201D01*
X192753709Y-82497983D01*
X192731071Y-82507361D01*
X192710705Y-82520969D01*
X192704330Y-82526200D01*
X192700028Y-82528500D01*
X192695357Y-82529917D01*
X192684359Y-82531000D01*
X192395641Y-82531000D01*
X192384643Y-82529917D01*
X192379972Y-82528500D01*
X192375670Y-82526200D01*
X192371896Y-82523104D01*
X192368800Y-82519330D01*
X192366500Y-82515028D01*
X192365083Y-82510357D01*
X192364000Y-82499359D01*
X192364000Y-82081000D01*
X192361598Y-82056614D01*
X192354485Y-82033165D01*
X192342934Y-82011554D01*
X192327388Y-81992612D01*
X192308446Y-81977066D01*
X192286835Y-81965515D01*
X192263386Y-81958402D01*
X192239000Y-81956000D01*
X191820641Y-81956000D01*
X191809643Y-81954917D01*
X191804972Y-81953500D01*
X191800670Y-81951200D01*
X191796896Y-81948104D01*
X191793800Y-81944330D01*
X191791500Y-81940028D01*
X191790083Y-81935357D01*
X191789000Y-81924359D01*
X191789000Y-81635641D01*
X191790083Y-81624643D01*
X191791500Y-81619972D01*
X191793800Y-81615670D01*
X191799031Y-81609295D01*
X191812644Y-81588920D01*
X191822020Y-81566281D01*
X191826800Y-81542247D01*
X191826799Y-81517743D01*
X191822017Y-81493709D01*
X191812639Y-81471071D01*
X191799031Y-81450705D01*
X191793800Y-81444330D01*
X191791500Y-81440028D01*
X191790083Y-81435357D01*
X191789000Y-81424359D01*
X191789000Y-81135641D01*
X191790083Y-81124643D01*
X191791500Y-81119972D01*
X191793800Y-81115670D01*
X191799031Y-81109295D01*
X191812644Y-81088920D01*
X191822020Y-81066281D01*
X191826800Y-81042247D01*
X191826799Y-81017743D01*
X191822017Y-80993709D01*
X191812639Y-80971071D01*
X191799031Y-80950705D01*
X191793800Y-80944330D01*
X191791500Y-80940028D01*
X191790083Y-80935357D01*
X191789000Y-80924359D01*
X191789000Y-80635641D01*
X191790083Y-80624643D01*
X191791500Y-80619972D01*
X191793800Y-80615670D01*
X191796896Y-80611896D01*
X191800670Y-80608800D01*
X191804972Y-80606500D01*
X191809643Y-80605083D01*
X191820641Y-80604000D01*
X192239000Y-80604000D01*
X192263386Y-80601598D01*
X192286835Y-80594485D01*
X192308446Y-80582934D01*
X192327388Y-80567388D01*
X192342934Y-80548446D01*
X192354485Y-80526835D01*
X192361598Y-80503386D01*
X192364000Y-80479000D01*
X192364000Y-80060641D01*
X192365083Y-80049643D01*
X192366500Y-80044972D01*
X192368800Y-80040670D01*
X192371896Y-80036896D01*
X192375670Y-80033800D01*
X192379972Y-80031500D01*
X192384643Y-80030083D01*
X192395641Y-80029000D01*
X192684359Y-80029000D01*
X192695357Y-80030083D01*
X192695357Y-80030083D01*
G37*
G36*
X72293947Y-80214338D02*
X72449858Y-80245350D01*
X72645677Y-80326461D01*
X72721565Y-80377168D01*
X72821913Y-80444218D01*
X72971782Y-80594087D01*
X72971784Y-80594090D01*
X73089539Y-80770323D01*
X73170650Y-80966142D01*
X73197691Y-81102087D01*
X73212000Y-81174022D01*
X73212000Y-81385978D01*
X73207442Y-81408890D01*
X73170650Y-81593858D01*
X73089539Y-81789677D01*
X72992565Y-81934809D01*
X72971782Y-81965913D01*
X72821913Y-82115782D01*
X72821910Y-82115784D01*
X72645677Y-82233539D01*
X72449858Y-82314650D01*
X72314094Y-82341655D01*
X72241978Y-82356000D01*
X72030022Y-82356000D01*
X71957906Y-82341655D01*
X71822142Y-82314650D01*
X71626323Y-82233539D01*
X71450090Y-82115784D01*
X71450087Y-82115782D01*
X71300218Y-81965913D01*
X71279435Y-81934809D01*
X71182461Y-81789677D01*
X71101350Y-81593858D01*
X71064558Y-81408890D01*
X71060000Y-81385978D01*
X71060000Y-81174022D01*
X71074309Y-81102087D01*
X71101350Y-80966142D01*
X71182461Y-80770323D01*
X71300216Y-80594090D01*
X71300218Y-80594087D01*
X71450087Y-80444218D01*
X71550435Y-80377168D01*
X71626323Y-80326461D01*
X71822142Y-80245350D01*
X71978053Y-80214338D01*
X72030022Y-80204000D01*
X72241978Y-80204000D01*
X72293947Y-80214338D01*
X72293947Y-80214338D01*
G37*
G36*
X82269677Y-80533465D02*
X82307364Y-80544898D01*
X82342103Y-80563466D01*
X82372548Y-80588452D01*
X82397534Y-80618897D01*
X82416102Y-80653636D01*
X82427535Y-80691323D01*
X82432000Y-80736661D01*
X82432000Y-81823339D01*
X82427535Y-81868677D01*
X82416102Y-81906364D01*
X82397534Y-81941103D01*
X82372548Y-81971548D01*
X82342103Y-81996534D01*
X82307364Y-82015102D01*
X82269677Y-82026535D01*
X82224339Y-82031000D01*
X81387661Y-82031000D01*
X81342323Y-82026535D01*
X81304636Y-82015102D01*
X81269897Y-81996534D01*
X81239452Y-81971548D01*
X81214466Y-81941103D01*
X81195898Y-81906364D01*
X81184465Y-81868677D01*
X81180000Y-81823339D01*
X81180000Y-80736661D01*
X81184465Y-80691323D01*
X81195898Y-80653636D01*
X81214466Y-80618897D01*
X81239452Y-80588452D01*
X81269897Y-80563466D01*
X81304636Y-80544898D01*
X81342323Y-80533465D01*
X81387661Y-80529000D01*
X82224339Y-80529000D01*
X82269677Y-80533465D01*
X82269677Y-80533465D01*
G37*
G36*
X80219677Y-80533465D02*
X80257364Y-80544898D01*
X80292103Y-80563466D01*
X80322548Y-80588452D01*
X80347534Y-80618897D01*
X80366102Y-80653636D01*
X80377535Y-80691323D01*
X80382000Y-80736661D01*
X80382000Y-81823339D01*
X80377535Y-81868677D01*
X80366102Y-81906364D01*
X80347534Y-81941103D01*
X80322548Y-81971548D01*
X80292103Y-81996534D01*
X80257364Y-82015102D01*
X80219677Y-82026535D01*
X80174339Y-82031000D01*
X79337661Y-82031000D01*
X79292323Y-82026535D01*
X79254636Y-82015102D01*
X79219897Y-81996534D01*
X79189452Y-81971548D01*
X79164466Y-81941103D01*
X79145898Y-81906364D01*
X79134465Y-81868677D01*
X79130000Y-81823339D01*
X79130000Y-80736661D01*
X79134465Y-80691323D01*
X79145898Y-80653636D01*
X79164466Y-80618897D01*
X79189452Y-80588452D01*
X79219897Y-80563466D01*
X79254636Y-80544898D01*
X79292323Y-80533465D01*
X79337661Y-80529000D01*
X80174339Y-80529000D01*
X80219677Y-80533465D01*
X80219677Y-80533465D01*
G37*
G36*
X88047357Y-79522083D02*
X88052028Y-79523500D01*
X88056330Y-79525800D01*
X88062705Y-79531031D01*
X88083080Y-79544644D01*
X88105719Y-79554020D01*
X88129753Y-79558800D01*
X88154257Y-79558799D01*
X88178291Y-79554017D01*
X88200929Y-79544639D01*
X88221295Y-79531031D01*
X88227670Y-79525800D01*
X88231972Y-79523500D01*
X88236643Y-79522083D01*
X88247641Y-79521000D01*
X88536359Y-79521000D01*
X88547357Y-79522083D01*
X88552028Y-79523500D01*
X88556330Y-79525800D01*
X88562705Y-79531031D01*
X88583080Y-79544644D01*
X88605719Y-79554020D01*
X88629753Y-79558800D01*
X88654257Y-79558799D01*
X88678291Y-79554017D01*
X88700929Y-79544639D01*
X88721295Y-79531031D01*
X88727670Y-79525800D01*
X88731972Y-79523500D01*
X88736643Y-79522083D01*
X88747641Y-79521000D01*
X89036359Y-79521000D01*
X89047357Y-79522083D01*
X89052028Y-79523500D01*
X89056330Y-79525800D01*
X89060104Y-79528896D01*
X89063200Y-79532670D01*
X89065500Y-79536972D01*
X89066917Y-79541643D01*
X89068000Y-79552641D01*
X89068000Y-79971000D01*
X89070402Y-79995386D01*
X89077515Y-80018835D01*
X89089066Y-80040446D01*
X89104612Y-80059388D01*
X89123554Y-80074934D01*
X89145165Y-80086485D01*
X89168614Y-80093598D01*
X89193000Y-80096000D01*
X89611359Y-80096000D01*
X89622357Y-80097083D01*
X89627028Y-80098500D01*
X89631330Y-80100800D01*
X89635104Y-80103896D01*
X89638200Y-80107670D01*
X89640500Y-80111972D01*
X89641917Y-80116643D01*
X89643000Y-80127641D01*
X89643000Y-80416359D01*
X89641917Y-80427357D01*
X89640500Y-80432028D01*
X89638200Y-80436330D01*
X89632969Y-80442705D01*
X89619356Y-80463080D01*
X89609980Y-80485719D01*
X89605200Y-80509753D01*
X89605201Y-80534257D01*
X89609983Y-80558291D01*
X89619361Y-80580929D01*
X89632969Y-80601295D01*
X89638200Y-80607670D01*
X89640500Y-80611972D01*
X89641917Y-80616643D01*
X89643000Y-80627641D01*
X89643000Y-80916359D01*
X89641917Y-80927357D01*
X89640500Y-80932028D01*
X89638200Y-80936330D01*
X89632969Y-80942705D01*
X89619356Y-80963080D01*
X89609980Y-80985719D01*
X89605200Y-81009753D01*
X89605201Y-81034257D01*
X89609983Y-81058291D01*
X89619361Y-81080929D01*
X89632969Y-81101295D01*
X89638200Y-81107670D01*
X89640500Y-81111972D01*
X89641917Y-81116643D01*
X89643000Y-81127641D01*
X89643000Y-81416359D01*
X89641917Y-81427357D01*
X89640500Y-81432028D01*
X89638200Y-81436330D01*
X89635104Y-81440104D01*
X89631330Y-81443200D01*
X89627028Y-81445500D01*
X89622357Y-81446917D01*
X89611359Y-81448000D01*
X89193000Y-81448000D01*
X89168614Y-81450402D01*
X89145165Y-81457515D01*
X89123554Y-81469066D01*
X89104612Y-81484612D01*
X89089066Y-81503554D01*
X89077515Y-81525165D01*
X89070402Y-81548614D01*
X89068000Y-81573000D01*
X89068000Y-81991359D01*
X89066917Y-82002357D01*
X89065500Y-82007028D01*
X89063200Y-82011330D01*
X89060104Y-82015104D01*
X89056330Y-82018200D01*
X89052028Y-82020500D01*
X89047357Y-82021917D01*
X89036359Y-82023000D01*
X88747641Y-82023000D01*
X88736643Y-82021917D01*
X88731972Y-82020500D01*
X88727670Y-82018200D01*
X88721295Y-82012969D01*
X88700920Y-81999356D01*
X88678281Y-81989980D01*
X88654247Y-81985200D01*
X88629743Y-81985201D01*
X88605709Y-81989983D01*
X88583071Y-81999361D01*
X88562705Y-82012969D01*
X88556330Y-82018200D01*
X88552028Y-82020500D01*
X88547357Y-82021917D01*
X88536359Y-82023000D01*
X88247641Y-82023000D01*
X88236643Y-82021917D01*
X88231972Y-82020500D01*
X88227670Y-82018200D01*
X88221295Y-82012969D01*
X88200920Y-81999356D01*
X88178281Y-81989980D01*
X88154247Y-81985200D01*
X88129743Y-81985201D01*
X88105709Y-81989983D01*
X88083071Y-81999361D01*
X88062705Y-82012969D01*
X88056330Y-82018200D01*
X88052028Y-82020500D01*
X88047357Y-82021917D01*
X88036359Y-82023000D01*
X87747641Y-82023000D01*
X87736643Y-82021917D01*
X87731972Y-82020500D01*
X87727670Y-82018200D01*
X87723896Y-82015104D01*
X87720800Y-82011330D01*
X87718500Y-82007028D01*
X87717083Y-82002357D01*
X87716000Y-81991359D01*
X87716000Y-81573000D01*
X87713598Y-81548614D01*
X87706485Y-81525165D01*
X87694934Y-81503554D01*
X87679388Y-81484612D01*
X87660446Y-81469066D01*
X87638835Y-81457515D01*
X87615386Y-81450402D01*
X87591000Y-81448000D01*
X87172641Y-81448000D01*
X87161643Y-81446917D01*
X87156972Y-81445500D01*
X87152670Y-81443200D01*
X87148896Y-81440104D01*
X87145800Y-81436330D01*
X87143500Y-81432028D01*
X87142083Y-81427357D01*
X87141000Y-81416359D01*
X87141000Y-81127641D01*
X87142083Y-81116643D01*
X87143500Y-81111972D01*
X87145800Y-81107670D01*
X87151031Y-81101295D01*
X87164644Y-81080920D01*
X87174020Y-81058281D01*
X87178800Y-81034247D01*
X87178799Y-81009743D01*
X87174017Y-80985709D01*
X87164639Y-80963071D01*
X87151031Y-80942705D01*
X87145800Y-80936330D01*
X87143500Y-80932028D01*
X87142083Y-80927357D01*
X87141000Y-80916359D01*
X87141000Y-80627641D01*
X87142083Y-80616643D01*
X87143500Y-80611972D01*
X87145800Y-80607670D01*
X87151031Y-80601295D01*
X87164644Y-80580920D01*
X87174020Y-80558281D01*
X87178800Y-80534247D01*
X87178799Y-80509743D01*
X87174017Y-80485709D01*
X87164639Y-80463071D01*
X87151031Y-80442705D01*
X87145800Y-80436330D01*
X87143500Y-80432028D01*
X87142083Y-80427357D01*
X87141000Y-80416359D01*
X87141000Y-80127641D01*
X87142083Y-80116643D01*
X87143500Y-80111972D01*
X87145800Y-80107670D01*
X87148896Y-80103896D01*
X87152670Y-80100800D01*
X87156972Y-80098500D01*
X87161643Y-80097083D01*
X87172641Y-80096000D01*
X87591000Y-80096000D01*
X87615386Y-80093598D01*
X87638835Y-80086485D01*
X87660446Y-80074934D01*
X87679388Y-80059388D01*
X87694934Y-80040446D01*
X87706485Y-80018835D01*
X87713598Y-79995386D01*
X87716000Y-79971000D01*
X87716000Y-79552641D01*
X87717083Y-79541643D01*
X87718500Y-79536972D01*
X87720800Y-79532670D01*
X87723896Y-79528896D01*
X87727670Y-79525800D01*
X87731972Y-79523500D01*
X87736643Y-79522083D01*
X87747641Y-79521000D01*
X88036359Y-79521000D01*
X88047357Y-79522083D01*
X88047357Y-79522083D01*
G37*
G36*
X206223426Y-78094596D02*
X206337027Y-78117193D01*
X206551045Y-78205842D01*
X206742358Y-78333674D01*
X206743659Y-78334543D01*
X206907457Y-78498341D01*
X206907459Y-78498344D01*
X207036158Y-78690955D01*
X207124807Y-78904973D01*
X207170000Y-79132174D01*
X207170000Y-79363826D01*
X207124807Y-79591027D01*
X207036158Y-79805045D01*
X206992217Y-79870807D01*
X206907457Y-79997659D01*
X206743659Y-80161457D01*
X206743656Y-80161459D01*
X206551045Y-80290158D01*
X206337027Y-80378807D01*
X206262275Y-80393676D01*
X206109827Y-80424000D01*
X205878173Y-80424000D01*
X205725725Y-80393676D01*
X205650973Y-80378807D01*
X205436955Y-80290158D01*
X205244344Y-80161459D01*
X205244341Y-80161457D01*
X205080543Y-79997659D01*
X204995783Y-79870807D01*
X204951842Y-79805045D01*
X204863193Y-79591027D01*
X204818000Y-79363826D01*
X204818000Y-79132174D01*
X204863193Y-78904973D01*
X204951842Y-78690955D01*
X205080541Y-78498344D01*
X205080543Y-78498341D01*
X205244341Y-78334543D01*
X205245642Y-78333674D01*
X205436955Y-78205842D01*
X205650973Y-78117193D01*
X205764574Y-78094596D01*
X205878173Y-78072000D01*
X206109827Y-78072000D01*
X206223426Y-78094596D01*
X206223426Y-78094596D01*
G37*
G36*
X211303426Y-78094596D02*
X211417027Y-78117193D01*
X211631045Y-78205842D01*
X211822358Y-78333674D01*
X211823659Y-78334543D01*
X211987457Y-78498341D01*
X211987459Y-78498344D01*
X212116158Y-78690955D01*
X212204807Y-78904973D01*
X212250000Y-79132174D01*
X212250000Y-79363826D01*
X212204807Y-79591027D01*
X212116158Y-79805045D01*
X212072217Y-79870807D01*
X211987457Y-79997659D01*
X211823659Y-80161457D01*
X211823656Y-80161459D01*
X211631045Y-80290158D01*
X211417027Y-80378807D01*
X211342275Y-80393676D01*
X211189827Y-80424000D01*
X210958173Y-80424000D01*
X210805725Y-80393676D01*
X210730973Y-80378807D01*
X210516955Y-80290158D01*
X210324344Y-80161459D01*
X210324341Y-80161457D01*
X210160543Y-79997659D01*
X210075783Y-79870807D01*
X210031842Y-79805045D01*
X209943193Y-79591027D01*
X209898000Y-79363826D01*
X209898000Y-79132174D01*
X209943193Y-78904973D01*
X210031842Y-78690955D01*
X210160541Y-78498344D01*
X210160543Y-78498341D01*
X210324341Y-78334543D01*
X210325642Y-78333674D01*
X210516955Y-78205842D01*
X210730973Y-78117193D01*
X210844574Y-78094596D01*
X210958173Y-78072000D01*
X211189827Y-78072000D01*
X211303426Y-78094596D01*
X211303426Y-78094596D01*
G37*
G36*
X74905427Y-77586597D02*
X75019027Y-77609193D01*
X75233045Y-77697842D01*
X75424358Y-77825674D01*
X75425659Y-77826543D01*
X75589457Y-77990341D01*
X75589459Y-77990344D01*
X75718158Y-78182955D01*
X75806807Y-78396973D01*
X75852000Y-78624174D01*
X75852000Y-78855826D01*
X75806807Y-79083027D01*
X75718158Y-79297045D01*
X75590326Y-79488358D01*
X75589457Y-79489659D01*
X75425659Y-79653457D01*
X75425656Y-79653459D01*
X75233045Y-79782158D01*
X75019027Y-79870807D01*
X74905427Y-79893403D01*
X74791827Y-79916000D01*
X74560173Y-79916000D01*
X74446573Y-79893403D01*
X74332973Y-79870807D01*
X74118955Y-79782158D01*
X73926344Y-79653459D01*
X73926341Y-79653457D01*
X73762543Y-79489659D01*
X73761674Y-79488358D01*
X73633842Y-79297045D01*
X73545193Y-79083027D01*
X73500000Y-78855826D01*
X73500000Y-78624174D01*
X73545193Y-78396973D01*
X73633842Y-78182955D01*
X73762541Y-77990344D01*
X73762543Y-77990341D01*
X73926341Y-77826543D01*
X73927642Y-77825674D01*
X74118955Y-77697842D01*
X74332973Y-77609193D01*
X74446573Y-77586597D01*
X74560173Y-77564000D01*
X74791827Y-77564000D01*
X74905427Y-77586597D01*
X74905427Y-77586597D01*
G37*
G36*
X69825427Y-77586597D02*
X69939027Y-77609193D01*
X70153045Y-77697842D01*
X70344358Y-77825674D01*
X70345659Y-77826543D01*
X70509457Y-77990341D01*
X70509459Y-77990344D01*
X70638158Y-78182955D01*
X70726807Y-78396973D01*
X70772000Y-78624174D01*
X70772000Y-78855826D01*
X70726807Y-79083027D01*
X70638158Y-79297045D01*
X70510326Y-79488358D01*
X70509457Y-79489659D01*
X70345659Y-79653457D01*
X70345656Y-79653459D01*
X70153045Y-79782158D01*
X69939027Y-79870807D01*
X69825427Y-79893403D01*
X69711827Y-79916000D01*
X69480173Y-79916000D01*
X69366573Y-79893403D01*
X69252973Y-79870807D01*
X69038955Y-79782158D01*
X68846344Y-79653459D01*
X68846341Y-79653457D01*
X68682543Y-79489659D01*
X68681674Y-79488358D01*
X68553842Y-79297045D01*
X68465193Y-79083027D01*
X68420000Y-78855826D01*
X68420000Y-78624174D01*
X68465193Y-78396973D01*
X68553842Y-78182955D01*
X68682541Y-77990344D01*
X68682543Y-77990341D01*
X68846341Y-77826543D01*
X68847642Y-77825674D01*
X69038955Y-77697842D01*
X69252973Y-77609193D01*
X69366573Y-77586597D01*
X69480173Y-77564000D01*
X69711827Y-77564000D01*
X69825427Y-77586597D01*
X69825427Y-77586597D01*
G37*
M02*
